<svg width="81" height="26" viewBox="0 0 81 26" fill="none" xmlns="http://www.w3.org/2000/svg">
<path fill-rule="evenodd" clip-rule="evenodd" d="M20.9704 0V3.33623L3.55652 3.32862L3.357 3.5021L3.33623 14.8779L3.5021 15.0439H20.9704V18.38H3.54337C3.54337 18.38 1.74067 18.2143 0.870333 17.1366C0 16.0591 0 14.9404 0 14.9404V3.37763C0 3.37763 0.0250214 1.9478 1.05657 1.03607C2.16551 0.0571365 2.94273 0.0571366 2.94273 0.0571366L20.9704 0Z" fill="black"/>
<path fill-rule="evenodd" clip-rule="evenodd" d="M8.13372 7.62573V10.9618H21.2193L21.3957 11.1274L21.4062 22.5141L21.2818 22.6488H8.25805L8.23741 18.7844L4.90118 18.7741V22.7004C4.90118 22.7004 4.98398 23.9541 5.63712 24.804C6.28897 25.6534 7.45001 25.9855 7.7918 25.9956C8.13372 26.0055 24.7318 25.9956 24.7318 25.9956V10.7445C24.7318 10.7445 24.7421 9.85328 23.7991 8.76537C22.8568 7.67771 21.7581 7.65669 21.6235 7.62573C21.4886 7.59478 8.13372 7.62573 8.13372 7.62573Z" fill="black"/>
<path fill-rule="evenodd" clip-rule="evenodd" d="M32.2556 7.90762C32.2556 6.00445 31.1118 4.83024 29.6742 4.83024C28.6821 4.83024 27.518 5.3566 27.518 7.48239C27.518 9.25388 28.5303 10.6511 30.2107 10.6511C30.8383 10.6511 32.2556 10.3574 32.2556 7.90762ZM26.2019 7.74563C26.2019 6.27775 27.2345 4.37444 29.9374 4.37444C32.1848 4.37444 33.5817 5.61984 33.5817 7.59382C33.5817 9.56794 32.1443 11.1168 29.8464 11.1168C27.2547 11.1168 26.2019 9.27439 26.2019 7.74563Z" fill="black"/>
<path fill-rule="evenodd" clip-rule="evenodd" d="M35.8495 9.83105C35.8696 10.4991 35.9812 10.7016 36.1531 10.7624C36.3049 10.8129 36.4771 10.823 36.6188 10.823C36.7201 10.823 36.7708 10.8636 36.7708 10.9142C36.7708 10.985 36.6898 11.0052 36.5683 11.0052C35.9911 11.0052 35.5761 10.9749 35.4142 10.9749C35.3332 10.9749 34.908 11.0052 34.4523 11.0052C34.331 11.0052 34.25 10.9952 34.25 10.9142C34.25 10.8636 34.3107 10.823 34.3918 10.823C34.5132 10.823 34.675 10.8129 34.7967 10.7828C35.0295 10.7219 35.0599 10.4891 35.07 9.73999L35.1508 4.63781C35.1508 4.46563 35.2117 4.34426 35.3028 4.34426C35.4142 4.34426 35.5357 4.47582 35.6876 4.62762C35.7987 4.73906 37.135 6.10556 38.4308 7.37108C39.0383 7.96837 40.2227 9.18333 40.3542 9.30457H40.3947L40.3038 5.47809C40.2936 4.95174 40.2126 4.79981 40.0001 4.71868C39.8683 4.66812 39.6558 4.66812 39.5342 4.66812C39.423 4.66812 39.3926 4.62762 39.3926 4.57706C39.3926 4.50626 39.4837 4.4962 39.6152 4.4962C40.0811 4.4962 40.5566 4.51632 40.749 4.51632C40.8504 4.51632 41.1843 4.4962 41.6196 4.4962C41.741 4.4962 41.8224 4.50626 41.8224 4.57706C41.8224 4.62762 41.7716 4.66812 41.6703 4.66812C41.579 4.66812 41.5083 4.66812 41.3971 4.69843C41.154 4.76937 41.0832 4.9213 41.073 5.40716L40.9718 10.8333C40.9718 11.0256 40.9011 11.1066 40.83 11.1066C40.6782 11.1066 40.5566 11.0154 40.4656 10.9245C39.9088 10.4081 38.7953 9.34507 37.864 8.44416C36.892 7.51283 35.9507 6.47005 35.7785 6.31825H35.7481L35.8495 9.83105Z" fill="black"/>
<path fill-rule="evenodd" clip-rule="evenodd" d="M45.0413 5.02252L43.7152 5.05283C43.199 5.06289 42.9865 5.12377 42.8548 5.31594C42.7637 5.43757 42.723 5.54888 42.7028 5.60962C42.6827 5.68069 42.6625 5.72093 42.6017 5.72093C42.5408 5.72093 42.5206 5.67037 42.5206 5.57919C42.5206 5.43757 42.6927 4.60748 42.713 4.53654C42.7332 4.4251 42.7637 4.37455 42.814 4.37455C42.8851 4.37455 42.9761 4.44535 43.199 4.47579C43.4621 4.50623 43.7962 4.51629 44.0899 4.51629H47.7039C47.9873 4.51629 48.1793 4.49617 48.3114 4.47579C48.4526 4.45554 48.5237 4.43529 48.5541 4.43529C48.6147 4.43529 48.6248 4.48585 48.6248 4.61754C48.6248 4.79978 48.6047 5.43757 48.6047 5.66018C48.5945 5.75137 48.5744 5.80206 48.5237 5.80206C48.4526 5.80206 48.4325 5.76143 48.4224 5.62987L48.4124 5.53869C48.392 5.31594 48.1592 5.05283 47.3595 5.04277L46.2358 5.02252V8.50489C46.2358 9.29448 46.246 9.97277 46.2863 10.3473C46.3169 10.5903 46.3674 10.7523 46.6307 10.7928C46.7523 10.813 46.9547 10.8231 47.0861 10.8231C47.1874 10.8231 47.228 10.8737 47.228 10.9143C47.228 10.9749 47.157 11.0054 47.0558 11.0054C46.4687 11.0054 45.8715 10.9749 45.6184 10.9749C45.4159 10.9749 44.8084 11.0054 44.4541 11.0054C44.3429 11.0054 44.2819 10.9749 44.2819 10.9143C44.2819 10.8737 44.3126 10.8231 44.4236 10.8231C44.5552 10.8231 44.6668 10.813 44.7377 10.7928C44.9198 10.7523 44.9704 10.5903 45.0008 10.3371C45.0413 9.97277 45.0413 9.29448 45.0413 8.50489V5.02252Z" fill="black"/>
<path fill-rule="evenodd" clip-rule="evenodd" d="M51.9961 8.36319C52.0363 8.36319 52.0467 8.34294 52.0363 8.31251L51.1962 6.12597C51.1863 6.09553 51.1763 6.04484 51.1558 6.04484C51.1254 6.04484 51.1153 6.09553 51.1053 6.12597L50.2447 8.30232C50.2245 8.34294 50.2447 8.36319 50.275 8.36319H51.9961ZM50.0928 8.83886C50.0424 8.83886 50.0319 8.84918 50.0118 8.89973L49.536 10.0537C49.4449 10.2664 49.4044 10.4789 49.4044 10.5799C49.4044 10.732 49.4856 10.823 49.7589 10.823H49.8906C50.0016 10.823 50.022 10.8637 50.022 10.9142C50.022 10.985 49.9716 11.0053 49.8804 11.0053C49.5867 11.0053 49.1716 10.975 48.8883 10.975C48.7971 10.975 48.3214 11.0053 47.8557 11.0053C47.7443 11.0053 47.6938 10.985 47.6938 10.9142C47.6938 10.8637 47.724 10.823 47.7951 10.823C47.8759 10.823 47.9771 10.813 48.0581 10.813C48.463 10.7522 48.615 10.489 48.7971 10.0537L51.1254 4.63784C51.2269 4.39472 51.2977 4.2936 51.3885 4.2936C51.5202 4.2936 51.5611 4.37447 51.6517 4.5669C51.8644 5.04282 53.3525 8.56556 53.9195 9.87144C54.2636 10.651 54.5168 10.7624 54.6787 10.7929C54.8102 10.813 54.9115 10.823 55.013 10.823C55.094 10.823 55.1342 10.8535 55.1342 10.9142C55.1342 10.985 55.0837 11.0053 54.7496 11.0053C54.4358 11.0053 53.788 11.0053 53.0387 10.985C52.8767 10.975 52.7755 10.975 52.7755 10.9142C52.7755 10.8637 52.7956 10.8332 52.8868 10.823C52.9477 10.813 53.0083 10.732 52.9678 10.6307L52.2795 8.89973C52.2593 8.84918 52.229 8.83886 52.1884 8.83886H50.0928Z" fill="black"/>
<path fill-rule="evenodd" clip-rule="evenodd" d="M56.1567 6.9864C56.1567 5.68064 56.1567 5.43752 56.1464 5.16422C56.1263 4.87079 56.0351 4.76942 55.8429 4.70867C55.7418 4.67823 55.6304 4.66804 55.5191 4.66804C55.4279 4.66804 55.3772 4.64792 55.3772 4.56693C55.3772 4.51637 55.448 4.49612 55.5897 4.49612C55.9238 4.49612 56.5313 4.51637 56.7843 4.51637C57.0072 4.51637 57.584 4.49612 57.9283 4.49612C58.0398 4.49612 58.1105 4.51637 58.1105 4.56693C58.1105 4.64792 58.0599 4.66804 57.9687 4.66804C57.8778 4.66804 57.8067 4.67823 57.7056 4.69848C57.4626 4.73898 57.3918 4.86061 57.3714 5.16422C57.3513 5.43752 57.3513 5.68064 57.3513 6.9864V8.50483C57.3513 9.33506 57.3513 10.0234 57.3918 10.3878C57.4221 10.6207 57.4827 10.7522 57.7458 10.7929C57.8672 10.813 58.07 10.8231 58.2016 10.8231C58.3029 10.8231 58.3431 10.8737 58.3431 10.9142C58.3431 10.975 58.2724 11.0053 58.1712 11.0053C57.584 11.0053 56.9765 10.975 56.7338 10.975C56.5313 10.975 55.9238 11.0053 55.5695 11.0053C55.4582 11.0053 55.3974 10.975 55.3974 10.9142C55.3974 10.8737 55.4279 10.8231 55.5393 10.8231C55.6707 10.8231 55.7722 10.813 55.853 10.7929C56.0351 10.7522 56.0859 10.6308 56.1162 10.3777C56.1567 10.0234 56.1567 9.33506 56.1567 8.50483V6.9864Z" fill="black"/>
<path fill-rule="evenodd" clip-rule="evenodd" d="M60.8844 9.83105C60.9045 10.4991 61.0159 10.7016 61.1879 10.7624C61.3398 10.8129 61.512 10.823 61.6536 10.823C61.755 10.823 61.8057 10.8636 61.8057 10.9142C61.8057 10.985 61.7245 11.0052 61.6029 11.0052C61.0263 11.0052 60.6108 10.9749 60.4491 10.9749C60.3681 10.9749 59.9427 11.0052 59.4872 11.0052C59.3659 11.0052 59.285 10.9952 59.285 10.9142C59.285 10.8636 59.3453 10.823 59.4264 10.823C59.5479 10.823 59.7101 10.8129 59.8316 10.7828C60.0644 10.7219 60.0945 10.4891 60.105 9.73999L60.1857 4.63781C60.1857 4.46563 60.2465 4.34426 60.3377 4.34426C60.4491 4.34426 60.5703 4.47582 60.7224 4.62762C60.8336 4.73906 62.1699 6.10556 63.466 7.37108C64.0731 7.96837 65.2575 9.18333 65.389 9.30457H65.4296L65.3385 5.47809C65.3283 4.95174 65.2474 4.79981 65.0347 4.71868C64.903 4.66812 64.6906 4.66812 64.5689 4.66812C64.4578 4.66812 64.4274 4.62762 64.4274 4.57706C64.4274 4.50626 64.5184 4.4962 64.6501 4.4962C65.1157 4.4962 65.5916 4.51632 65.7839 4.51632C65.8851 4.51632 66.2192 4.4962 66.6543 4.4962C66.776 4.4962 66.857 4.50626 66.857 4.57706C66.857 4.62762 66.8063 4.66812 66.7052 4.66812C66.614 4.66812 66.5432 4.66812 66.4319 4.69843C66.1889 4.76937 66.1179 4.9213 66.1079 5.40716L66.0067 10.8333C66.0067 11.0256 65.9358 11.1066 65.8648 11.1066C65.713 11.1066 65.5916 11.0154 65.5005 10.9245C64.9437 10.4081 63.8302 9.34507 62.8987 8.44416C61.9269 7.51283 60.9855 6.47005 60.8133 6.31825H60.7829L60.8844 9.83105Z" fill="black"/>
<path fill-rule="evenodd" clip-rule="evenodd" d="M68.8917 6.9864C68.8917 5.68064 68.8917 5.43752 68.8816 5.16422C68.8613 4.87079 68.7804 4.77948 68.4968 4.69848C68.4259 4.67823 68.2742 4.66804 68.1425 4.66804C68.0515 4.66804 67.991 4.63786 67.991 4.57699C67.991 4.51637 68.0615 4.49612 68.1933 4.49612C68.6587 4.49612 69.2258 4.51637 69.4788 4.51637C69.7621 4.51637 71.7364 4.52643 71.9085 4.51637C72.0704 4.50631 72.2121 4.47574 72.2832 4.46568C72.3336 4.45562 72.3843 4.42518 72.4247 4.42518C72.4754 4.42518 72.4854 4.46568 72.4854 4.50631C72.4854 4.56693 72.4349 4.66804 72.4145 5.06297C72.4044 5.15416 72.3843 5.52857 72.3639 5.62982C72.3537 5.67045 72.3336 5.77157 72.2627 5.77157C72.2022 5.77157 72.1919 5.7312 72.1919 5.66026C72.1919 5.59951 72.1819 5.44758 72.1311 5.34646C72.0602 5.19453 71.9895 5.07303 71.544 5.03266C71.3921 5.01228 70.3293 4.99203 70.1471 4.99203C70.1063 4.99203 70.0863 5.02247 70.0863 5.07303V7.19895C70.0863 7.24964 70.0964 7.29001 70.1471 7.29001C70.3496 7.29001 71.5037 7.29001 71.7058 7.26989C71.9186 7.24964 72.0501 7.22939 72.1311 7.13833C72.2022 7.07758 72.2322 7.02677 72.2729 7.02677C72.3135 7.02677 72.3438 7.06739 72.3438 7.11808C72.3438 7.16864 72.3234 7.31051 72.2729 7.74568C72.2527 7.91773 72.2322 8.2621 72.2322 8.32259C72.2322 8.39353 72.2223 8.51502 72.1413 8.51502C72.0806 8.51502 72.0602 8.48471 72.0602 8.44422C72.0501 8.35303 72.0501 8.24159 72.03 8.13042C71.9792 7.95823 71.868 7.82668 71.5337 7.79624C71.372 7.77599 70.3594 7.75574 70.1369 7.75574C70.0964 7.75574 70.0863 7.79624 70.0863 7.84693V8.53527C70.0863 8.82882 70.0761 9.55767 70.0863 9.81072C70.1063 10.398 70.3799 10.5296 71.291 10.5296C71.5239 10.5296 71.8983 10.5194 72.1311 10.4182C72.3537 10.317 72.4552 10.1347 72.5162 9.78041C72.5364 9.68935 72.5564 9.64886 72.617 9.64886C72.6879 9.64886 72.698 9.76029 72.698 9.85122C72.698 10.0437 72.627 10.6308 72.5766 10.8029C72.5162 11.0256 72.4349 11.0256 72.1007 11.0256C71.4326 11.0256 70.8963 11.0154 70.4609 10.9952C70.0256 10.9851 69.6914 10.975 69.4284 10.975C69.3268 10.975 69.1347 10.9851 68.9218 10.9851C68.7096 10.9952 68.4868 11.0053 68.3045 11.0053C68.1933 11.0053 68.1325 10.975 68.1325 10.9142C68.1325 10.8737 68.163 10.8231 68.2742 10.8231C68.4055 10.8231 68.5071 10.813 68.588 10.7929C68.7705 10.7522 68.8207 10.5903 68.8514 10.3371C68.8917 9.97272 68.8917 9.29456 68.8917 8.50483V6.9864Z" fill="black"/>
<path fill-rule="evenodd" clip-rule="evenodd" d="M75.7047 7.65457C75.7047 7.74563 75.7251 7.77594 75.7857 7.80638C75.9783 7.86712 76.2412 7.8875 76.4639 7.8875C76.8185 7.8875 76.9398 7.85706 77.0916 7.74563C77.3648 7.55332 77.6686 7.17865 77.6686 6.47005C77.6686 5.25522 76.8387 4.94142 76.3122 4.94142C76.0893 4.94142 75.8768 4.95174 75.7857 4.97186C75.7251 4.99198 75.7047 5.02255 75.7047 5.09336V7.65457ZM74.571 6.98634C74.571 5.68059 74.571 5.43759 74.5608 5.16416C74.5404 4.87074 74.4598 4.77943 74.1761 4.69843C74.1053 4.67831 73.9533 4.66812 73.8218 4.66812C73.7305 4.66812 73.67 4.63781 73.67 4.57706C73.67 4.51632 73.7408 4.4962 73.8725 4.4962C74.3381 4.4962 74.9051 4.51632 75.0873 4.51632C75.3909 4.51632 76.2008 4.4962 76.4738 4.4962C77.0409 4.4962 77.6889 4.54663 78.1644 4.86055C78.4177 5.03261 78.7921 5.4679 78.7921 6.04495C78.7921 6.68273 78.4279 7.24958 77.5572 7.94799C78.3469 8.91996 78.9746 9.69936 79.5112 10.2359C80.0072 10.7319 80.3206 10.7726 80.4626 10.8029C80.5537 10.823 80.6043 10.823 80.6753 10.823C80.746 10.823 80.7866 10.8737 80.7866 10.9142C80.7866 10.985 80.7259 11.0052 80.6144 11.0052H79.7644C79.2682 11.0052 79.0252 10.9547 78.7921 10.8333C78.4075 10.6408 78.0736 10.2359 77.5776 9.56794C77.223 9.1022 76.8486 8.52516 76.7373 8.39348C76.6866 8.34292 76.636 8.33273 76.5753 8.33273L75.7756 8.31261C75.735 8.31261 75.7047 8.33273 75.7047 8.38342V8.50491C75.7047 9.30457 75.7148 9.97279 75.7553 10.3372C75.7857 10.5903 75.8262 10.7523 76.0996 10.7928C76.2312 10.8129 76.4235 10.823 76.5348 10.823C76.6056 10.823 76.6464 10.8737 76.6464 10.9142C76.6464 10.9749 76.5753 11.0052 76.4639 11.0052C75.9478 11.0052 75.2088 10.9749 75.0771 10.9749C74.9051 10.9749 74.3381 11.0052 73.9838 11.0052C73.8725 11.0052 73.8116 10.9749 73.8116 10.9142C73.8116 10.8737 73.842 10.823 73.9533 10.823C74.085 10.823 74.1864 10.8129 74.2671 10.7928C74.4495 10.7523 74.5001 10.5903 74.5305 10.3372C74.571 9.97279 74.571 9.29451 74.571 8.50491V6.98634Z" fill="black"/>
<path fill-rule="evenodd" clip-rule="evenodd" d="M29.2799 17.6715C29.2799 18.7749 29.2799 19.3215 29.4722 19.4835C29.624 19.6151 29.9682 19.6656 30.6566 19.6656C31.1324 19.6656 31.4766 19.6557 31.6993 19.4228C31.8106 19.3113 31.9017 19.0685 31.9219 18.9064C31.9321 18.8257 31.9524 18.7749 32.0232 18.7749C32.0841 18.7749 32.1042 18.8661 32.1042 18.9674C32.1042 19.0685 32.0434 19.7063 31.9728 19.9593C31.912 20.1516 31.8714 20.1923 31.4057 20.1923C30.768 20.1923 30.2517 20.1819 29.8063 20.1618C29.3607 20.1516 28.9863 20.1416 28.6217 20.1416C28.5206 20.1416 28.3283 20.1516 28.1157 20.1516C27.903 20.1618 27.6804 20.172 27.4982 20.172C27.3869 20.172 27.3261 20.1416 27.3261 20.0808C27.3261 20.0403 27.3564 19.9899 27.4677 19.9899C27.5994 19.9899 27.7007 19.9797 27.7815 19.9593C27.9638 19.9188 28.0145 19.7568 28.0448 19.5036C28.0854 19.1393 28.0854 18.461 28.0854 17.6715V16.1531C28.0854 14.8471 28.0854 14.6042 28.0751 14.3309C28.0548 14.0372 27.974 13.9461 27.6904 13.8652C27.6196 13.8448 27.5084 13.8347 27.3969 13.8347C27.2957 13.8347 27.2451 13.8044 27.2451 13.7438C27.2451 13.6829 27.3058 13.6627 27.4373 13.6627C27.8525 13.6627 28.4195 13.6829 28.6623 13.6829C28.8749 13.6829 29.6037 13.6627 29.948 13.6627C30.0796 13.6627 30.1404 13.6829 30.1404 13.7438C30.1404 13.8044 30.0897 13.8347 29.9784 13.8347C29.877 13.8347 29.7354 13.8448 29.6343 13.8652C29.3912 13.9058 29.3204 14.0272 29.3002 14.3309C29.2799 14.6042 29.2799 14.8471 29.2799 16.1531V17.6715Z" fill="black"/>
<path fill-rule="evenodd" clip-rule="evenodd" d="M34.8679 17.6715C34.8679 18.7749 34.8679 19.3215 35.0602 19.4835C35.212 19.6151 35.5561 19.6656 36.2446 19.6656C36.7203 19.6656 37.0646 19.6557 37.2872 19.4228C37.3986 19.3113 37.4898 19.0685 37.5099 18.9064C37.5201 18.8257 37.5404 18.7749 37.6112 18.7749C37.6719 18.7749 37.6921 18.8661 37.6921 18.9674C37.6921 19.0685 37.6314 19.7063 37.5606 19.9593C37.4999 20.1516 37.4594 20.1923 36.9936 20.1923C36.356 20.1923 35.8397 20.1819 35.3942 20.1618C34.9487 20.1516 34.5743 20.1416 34.2098 20.1416C34.1086 20.1416 33.9161 20.1516 33.7037 20.1516C33.491 20.1618 33.2684 20.172 33.0862 20.172C32.9747 20.172 32.9141 20.1416 32.9141 20.0808C32.9141 20.0403 32.9443 19.9899 33.0557 19.9899C33.1874 19.9899 33.2885 19.9797 33.3695 19.9593C33.5518 19.9188 33.6023 19.7568 33.6328 19.5036C33.6733 19.1393 33.6733 18.461 33.6733 17.6715V16.1531C33.6733 14.8471 33.6733 14.6042 33.6631 14.3309C33.6428 14.0372 33.562 13.9461 33.2784 13.8652C33.2077 13.8448 33.0962 13.8347 32.9849 13.8347C32.8837 13.8347 32.833 13.8044 32.833 13.7438C32.833 13.6829 32.8937 13.6627 33.0253 13.6627C33.4405 13.6627 34.0072 13.6829 34.2503 13.6829C34.4629 13.6829 35.1917 13.6627 35.536 13.6627C35.6675 13.6627 35.7283 13.6829 35.7283 13.7438C35.7283 13.8044 35.6776 13.8347 35.5663 13.8347C35.465 13.8347 35.3233 13.8448 35.222 13.8652C34.9792 13.9058 34.9084 14.0272 34.8881 14.3309C34.8679 14.6042 34.8679 14.8471 34.8679 16.1531V17.6715Z" fill="black"/>
<path fill-rule="evenodd" clip-rule="evenodd" d="M39.2612 16.153C39.2612 14.847 39.2612 14.6042 39.251 14.3309C39.2309 14.0373 39.1397 13.9361 38.9473 13.8753C38.8463 13.8449 38.7347 13.8347 38.6235 13.8347C38.5323 13.8347 38.4818 13.8144 38.4818 13.7336C38.4818 13.683 38.5526 13.6626 38.6943 13.6626C39.0284 13.6626 39.6359 13.683 39.8889 13.683C40.1117 13.683 40.6886 13.6626 41.0327 13.6626C41.1441 13.6626 41.215 13.683 41.215 13.7336C41.215 13.8144 41.1645 13.8347 41.0733 13.8347C40.9822 13.8347 40.9113 13.8449 40.8102 13.8653C40.5672 13.9057 40.4964 14.0272 40.476 14.3309C40.4558 14.6042 40.4558 14.847 40.4558 16.153V17.6715C40.4558 18.5017 40.4558 19.1902 40.4964 19.5544C40.5266 19.7873 40.5873 19.9188 40.8506 19.9594C40.9722 19.9796 41.1744 19.9898 41.306 19.9898C41.4075 19.9898 41.4479 20.0404 41.4479 20.0808C41.4479 20.1416 41.377 20.1719 41.2758 20.1719C40.6886 20.1719 40.0812 20.1416 39.8384 20.1416C39.6359 20.1416 39.0284 20.1719 38.6741 20.1719C38.5626 20.1719 38.502 20.1416 38.502 20.0808C38.502 20.0404 38.5323 19.9898 38.6438 19.9898C38.7752 19.9898 38.8767 19.9796 38.9574 19.9594C39.1397 19.9188 39.1902 19.7975 39.2208 19.5445C39.2612 19.1902 39.2612 18.5017 39.2612 17.6715V16.153Z" fill="black"/>
<path fill-rule="evenodd" clip-rule="evenodd" d="M45.6693 17.5298C45.7097 17.5298 45.7199 17.5096 45.7097 17.479L44.8695 15.2925C44.8594 15.2622 44.8494 15.2116 44.8289 15.2116C44.7987 15.2116 44.7885 15.2622 44.7784 15.2925L43.918 17.469C43.8978 17.5096 43.918 17.5298 43.9483 17.5298H45.6693ZM43.7661 18.0055C43.7157 18.0055 43.7053 18.0157 43.6851 18.0663L43.2096 19.2203C43.1183 19.4328 43.0777 19.6454 43.0777 19.7468C43.0777 19.8985 43.1589 19.9898 43.432 19.9898H43.5637C43.675 19.9898 43.6951 20.0303 43.6951 20.0807C43.6951 20.1517 43.6448 20.1719 43.5535 20.1719C43.2598 20.1719 42.8447 20.1416 42.5614 20.1416C42.4705 20.1416 41.9945 20.1719 41.5287 20.1719C41.4174 20.1719 41.3668 20.1517 41.3668 20.0807C41.3668 20.0303 41.3974 19.9898 41.4682 19.9898C41.5489 19.9898 41.6504 19.9796 41.7314 19.9796C42.1363 19.9187 42.2879 19.6556 42.4704 19.2203L44.7986 13.8044C44.9 13.5615 44.971 13.4603 45.0618 13.4603C45.1935 13.4603 45.2342 13.5411 45.3251 13.7336C45.5376 14.2093 47.0258 17.7322 47.5928 19.0381C47.937 19.8175 48.1902 19.9292 48.3519 19.9594C48.4835 19.9796 48.5847 19.9898 48.6861 19.9898C48.7671 19.9898 48.8073 20.02 48.8073 20.0807C48.8073 20.1517 48.757 20.1719 48.423 20.1719C48.109 20.1719 47.4611 20.1719 46.7118 20.1517C46.55 20.1416 46.4487 20.1416 46.4487 20.0807C46.4487 20.0303 46.469 19.9997 46.5602 19.9898C46.6208 19.9796 46.6817 19.8985 46.6412 19.7975L45.9527 18.0663C45.9324 18.0157 45.9023 18.0055 45.8615 18.0055H43.7661Z" fill="black"/>
<path fill-rule="evenodd" clip-rule="evenodd" d="M50.336 18.9976C50.3561 19.6657 50.4677 19.8683 50.6396 19.9292C50.7916 19.9796 50.9638 19.9898 51.1054 19.9898C51.2067 19.9898 51.2573 20.0303 51.2573 20.0807C51.2573 20.1517 51.1763 20.1719 51.0549 20.1719C50.4779 20.1719 50.0629 20.1416 49.9007 20.1416C49.8197 20.1416 49.3946 20.1719 48.9392 20.1719C48.8176 20.1719 48.7366 20.1617 48.7366 20.0807C48.7366 20.0303 48.7973 19.9898 48.8783 19.9898C48.9997 19.9898 49.1617 19.9796 49.2833 19.9493C49.516 19.8885 49.5464 19.6557 49.5565 18.9064L49.6376 13.8043C49.6376 13.6324 49.6985 13.5109 49.7894 13.5109C49.9007 13.5109 50.0221 13.6423 50.174 13.7943C50.2853 13.9057 51.6218 15.2722 52.9174 16.5377C53.525 17.135 54.7091 18.3499 54.841 18.4712H54.8813L54.7902 14.6447C54.7802 14.1181 54.6992 13.9663 54.4867 13.8855C54.3549 13.8348 54.1425 13.8348 54.0209 13.8348C53.9094 13.8348 53.8791 13.7943 53.8791 13.7438C53.8791 13.6728 53.9705 13.6627 54.1019 13.6627C54.5679 13.6627 55.0433 13.683 55.2357 13.683C55.337 13.683 55.671 13.6627 56.1063 13.6627C56.2277 13.6627 56.3087 13.6728 56.3087 13.7438C56.3087 13.7943 56.2581 13.8348 56.157 13.8348C56.0657 13.8348 55.995 13.8348 55.8836 13.8652C55.6408 13.936 55.5695 14.088 55.5596 14.5738L55.4585 19.9998C55.4585 20.1923 55.3875 20.2733 55.3167 20.2733C55.1648 20.2733 55.0433 20.182 54.9523 20.091C54.3956 19.5747 53.2818 18.5117 52.3505 17.6107C51.3788 16.6795 50.4371 15.6367 50.2651 15.4849H50.2348L50.336 18.9976Z" fill="black"/>
<path fill-rule="evenodd" clip-rule="evenodd" d="M58.3333 19.352C57.4528 18.6131 57.2199 17.641 57.2199 16.811C57.2199 16.2238 57.4122 15.2116 58.2625 14.4523C58.9104 13.8855 59.7608 13.5411 61.087 13.5411C61.6436 13.5411 61.9778 13.5817 62.3827 13.6324C62.7168 13.683 63.0104 13.7439 63.2735 13.774C63.375 13.7842 63.4051 13.8247 63.4051 13.8753C63.4051 13.9461 63.3849 14.0473 63.3648 14.3512C63.3443 14.6346 63.3443 15.1104 63.3343 15.2824C63.3241 15.4039 63.2939 15.4951 63.213 15.4951C63.1421 15.4951 63.1216 15.4242 63.1216 15.3129C63.1115 15.0394 63.0003 14.7358 62.7773 14.5129C62.4739 14.2194 61.8767 14.007 61.0567 14.007C60.2771 14.007 59.7811 14.1486 59.3764 14.4927C58.7182 15.0597 58.5561 15.8899 58.5561 16.73C58.5561 18.7748 60.1354 19.7469 61.3298 19.7469C62.1196 19.7469 62.5549 19.6861 62.9092 19.2913C63.061 19.1192 63.1823 18.8763 63.213 18.7141C63.2331 18.5825 63.2533 18.5422 63.3241 18.5422C63.3849 18.5422 63.4254 18.6232 63.4254 18.6938C63.4254 18.7954 63.3241 19.5444 63.2331 19.8379C63.1925 19.9898 63.1521 20.0303 63.0003 20.0909C62.646 20.2325 61.9678 20.2834 61.3905 20.2834C60.1756 20.2834 59.143 20.0303 58.3333 19.352Z" fill="black"/>
<path fill-rule="evenodd" clip-rule="evenodd" d="M65.3285 16.153C65.3285 14.847 65.3285 14.6042 65.3183 14.3309C65.2981 14.0373 65.2174 13.9461 64.9337 13.8653C64.8631 13.8449 64.7111 13.8347 64.5794 13.8347C64.4882 13.8347 64.4275 13.8044 64.4275 13.7438C64.4275 13.683 64.4984 13.6626 64.6301 13.6626C65.0957 13.6626 65.6627 13.683 65.9158 13.683C66.199 13.683 68.1732 13.6931 68.3453 13.683C68.5073 13.6728 68.6492 13.6424 68.7198 13.6324C68.7705 13.6223 68.821 13.5918 68.8617 13.5918C68.9121 13.5918 68.9222 13.6324 68.9222 13.6728C68.9222 13.7336 68.8716 13.8347 68.8514 14.2296C68.8413 14.3207 68.821 14.6952 68.8007 14.7965C68.7906 14.8371 68.7705 14.9382 68.6997 14.9382C68.6386 14.9382 68.6289 14.8977 68.6289 14.8269C68.6289 14.766 68.6185 14.6142 68.5679 14.513C68.4971 14.3612 68.4262 14.2398 67.9807 14.1993C67.8291 14.1789 66.7661 14.1588 66.5839 14.1588C66.5432 14.1588 66.5231 14.1891 66.5231 14.2398V16.3656C66.5231 16.4163 66.533 16.4566 66.5839 16.4566C66.7862 16.4566 67.9404 16.4566 68.1427 16.4364C68.3553 16.4163 68.4872 16.396 68.5679 16.3048C68.6386 16.244 68.6691 16.1934 68.7098 16.1934C68.7503 16.1934 68.7805 16.234 68.7805 16.2846C68.7805 16.3353 68.7605 16.477 68.7098 16.9123C68.6895 17.0844 68.6691 17.4286 68.6691 17.4892C68.6691 17.56 68.659 17.6817 68.5781 17.6817C68.5173 17.6817 68.4971 17.6512 68.4971 17.6107C68.4872 17.5198 68.4872 17.4082 68.467 17.2969C68.4161 17.1249 68.3047 16.9932 67.9706 16.9629C67.8089 16.9426 66.7964 16.9225 66.5737 16.9225C66.533 16.9225 66.5231 16.9629 66.5231 17.0134V17.7019C66.5231 17.9953 66.5129 18.7244 66.5231 18.9774C66.5432 19.5645 66.8167 19.6963 67.728 19.6963C67.9606 19.6963 68.3352 19.6861 68.5679 19.5846C68.7906 19.4835 68.8918 19.3013 68.9526 18.9471C68.9729 18.8559 68.9933 18.8155 69.054 18.8155C69.1247 18.8155 69.135 18.9267 69.135 19.018C69.135 19.2102 69.0639 19.7975 69.0134 19.9694C68.9526 20.1922 68.8716 20.1922 68.5376 20.1922C67.8694 20.1922 67.333 20.1819 66.8977 20.1618C66.4622 20.1517 66.1282 20.1416 65.8649 20.1416C65.7638 20.1416 65.5715 20.1517 65.3588 20.1517C65.1464 20.1617 64.9235 20.1719 64.7412 20.1719C64.6301 20.1719 64.5692 20.1416 64.5692 20.0808C64.5692 20.0404 64.5997 19.9898 64.7111 19.9898C64.8428 19.9898 64.9438 19.9796 65.0248 19.9594C65.2073 19.9188 65.2576 19.7568 65.2883 19.5037C65.3285 19.1392 65.3285 18.4611 65.3285 17.6715V16.153Z" fill="black"/>
</svg>
