<svg width="65" height="21" viewBox="0 0 65 21" fill="none" xmlns="http://www.w3.org/2000/svg">
<path fill-rule="evenodd" clip-rule="evenodd" d="M64.787 4.4424C63.7164 4.3445 62.6687 4.79353 62.0012 5.63633L62.0012 4.56255L59.6284 4.56255L59.6284 14.8799L62.0012 14.8799L62.0012 9.18807C61.9662 8.4975 62.2257 7.82448 62.7154 7.33626C63.205 6.84804 63.8788 6.59046 64.5693 6.62751L64.787 6.62751L64.787 4.4424ZM50.0469 8.48886C50.5225 7.32093 51.658 6.5573 52.9191 6.5573C54.1801 6.5573 55.3156 7.32093 55.7912 8.48886L50.0469 8.48886ZM52.9157 4.44868C51.0298 4.46075 49.2935 5.47804 48.361 7.11734C47.4285 8.75665 47.4414 10.7689 48.3948 12.3961C49.3482 14.0234 51.0974 15.0184 52.9833 15.0063C55.5514 15.0063 57.6389 13.6246 58.2921 11.7549L55.4838 11.7549C55.1309 12.4157 54.2448 12.8587 52.9833 12.8587C51.5516 12.8937 50.2943 11.913 49.9797 10.5159L58.3372 10.5159C58.3828 10.2556 58.4054 9.99177 58.4048 9.72748C58.3792 8.30081 57.7852 6.94337 56.7546 5.95649C55.724 4.96961 54.3422 4.43495 52.9157 4.47121L52.9157 4.44868ZM41.1488 12.8168C40.3182 12.8463 39.5126 12.5303 38.9235 11.9441C38.3344 11.3579 38.0146 10.5538 38.0401 9.7231C38.1217 8.05944 39.4944 6.75248 41.16 6.75248C42.8257 6.75248 44.1984 8.05944 44.28 9.7231C44.3058 10.5578 43.9829 11.3657 43.3889 11.9526C42.7948 12.5396 41.9831 12.8527 41.1488 12.8168ZM41.2541 4.44937C44.4755 4.44937 46.608 6.50683 46.608 9.70565C46.608 12.9045 44.4755 14.9619 41.2541 14.9619C40.0834 14.9992 38.9441 14.5791 38.0779 13.7905L38.0779 20.023L35.705 20.2633L35.705 4.56951L38.0779 4.56951L38.0779 5.6433C38.9463 4.85601 40.0821 4.42909 41.2541 4.44937ZM30.9369 4.44464C32.2063 4.48447 33.3649 5.17739 34.0006 6.27683L32.0708 7.16289C31.826 6.75863 31.3942 6.50466 30.9219 6.48708C30.4338 6.48708 29.9382 6.71986 29.9382 7.29054C29.9382 7.86122 30.6366 8.16158 31.9056 8.61212C33.6702 9.24287 34.5112 10.1139 34.5112 11.6608C34.5112 13.2076 33.0845 15.0098 30.6966 15.0098C28.762 15.1237 27.0835 13.6874 26.8971 11.7584L29.2024 11.7584C29.3304 12.477 29.9754 12.9865 30.7041 12.9448C31.0637 12.9765 31.4201 12.8553 31.6858 12.611C31.9516 12.3667 32.1022 12.0218 32.1008 11.6608C32.1008 11.1877 31.9356 10.6696 30.4413 10.2791C28.8344 9.85861 27.6855 8.99508 27.6855 7.27552C27.7294 6.46445 28.0998 5.70571 28.7124 5.17234C29.325 4.63897 30.1275 4.37645 30.9369 4.44464ZM20.4839 12.8179C18.7753 12.8179 17.3903 11.4328 17.3903 9.72417C17.3903 8.01557 18.7753 6.63048 20.4839 6.63048C22.1925 6.63048 23.5776 8.01557 23.5776 9.72417C23.5776 11.4328 22.1925 12.8179 20.4839 12.8179ZM20.4017 4.44417C18.9739 4.37991 17.5828 4.90745 16.5567 5.90234C15.5305 6.89722 14.9602 8.27133 14.9803 9.70044C14.9602 11.1296 15.5305 12.5037 16.5567 13.4986C17.5828 14.4934 18.9739 15.021 20.4017 14.9567C21.547 15.0024 22.6614 14.5794 23.4879 13.7853L23.4879 14.8591L25.8908 14.8591L25.8908 4.56431L23.4879 4.56431L23.4879 5.63809C22.6623 4.84027 21.5494 4.40974 20.4017 4.44417ZM7.83918 0.270393C5.1446 0.18446 2.61709 1.57295 1.24438 3.89326C-0.128335 6.21357 -0.128335 9.09735 1.24438 11.4177C2.61709 13.738 5.1446 15.1265 7.83918 15.0405C10.4572 15.0751 12.9042 13.7435 14.2969 11.5263L12.0442 10.3249C11.1905 11.8376 9.56784 12.7516 7.83168 12.6977C6.49688 12.7145 5.21245 12.1888 4.27243 11.241C2.33151 9.24463 2.33151 6.06629 4.27243 4.06993C5.21047 3.11919 6.49622 2.59295 7.83168 2.61319C8.88347 2.58629 9.91413 2.91134 10.7602 3.53679C11.4581 4.11488 12.332 4.43799 13.2381 4.45289C14.7722 4.46831 16.1112 3.41644 16.4595 1.92237L14.1317 1.4493C14.0552 1.88312 13.6786 2.1996 13.2381 2.2002C12.9228 2.2002 12.7275 2.08005 12.2244 1.71211C10.9826 0.721789 9.42643 0.210187 7.83918 0.270393Z" fill="#050B0D"/>
</svg>
