<svg width="70" height="21" xmlns="http://www.w3.org/2000/svg" viewBox="0 0 70 21" fill="white">
  <g clip-path="url(#clip0_1_2)">
    <path d="M29.9514 9.23706C30.1898 9.36198 30.3147 9.44521 30.621 9.80952C30.8934 10.1218 31.0524 11.1523 31.0864 11.7248C31.1091 12.0578 31.1318 12.5991 31.1318 12.9322V15.7114C31.1318 16.0444 31.1204 16.5961 31.1204 16.9291C31.1091 17.408 31.0297 18.2615 30.8594 18.5113C30.6438 18.8444 30.4281 18.9068 30.2919 18.9693C30.1784 19.0318 29.8493 19.1462 29.906 19.3961C29.9628 19.6458 30.3032 19.6458 30.4395 19.6458H37.0448C37.1809 19.6458 37.5214 19.6458 37.5781 19.3961C37.6349 19.1462 37.3171 19.0214 37.2036 18.9693C37.0561 18.8964 36.9199 18.8548 36.6815 18.5841C36.4206 18.2823 36.3865 17.4704 36.3752 16.9084C36.3638 16.5753 36.3525 16.034 36.3525 15.6905V7.51961C36.3525 7.2802 36.2503 7.08244 36.0574 6.96794C35.8758 6.85344 35.6261 6.83262 35.3878 6.90548C35.3764 6.90548 34.1961 7.31143 32.5731 7.73819C30.8934 8.17537 30.2805 8.34191 30.2805 8.34191C29.4748 8.56052 29.191 8.64375 29.191 8.84152C29.191 8.93521 29.2818 8.99767 29.3727 9.02891C29.5088 9.07052 29.8153 9.15375 29.9514 9.23706Z" fill="white"/>
    <path d="M52.9214 7.84386C52.3653 7.14648 51.3665 6.66767 50.0954 6.66767C48.8697 6.66767 47.8937 6.95911 46.8495 7.62528C46.3048 7.97915 45.5898 8.59331 45.5671 8.62454C45.5444 8.64531 45.533 8.65577 45.5103 8.66615C45.5103 8.64531 45.5103 8.62454 45.5103 8.60369V7.51078C45.5103 7.27138 45.4082 7.07361 45.2152 6.95911C45.0336 6.84462 44.7839 6.82381 44.5456 6.89667C44.5342 6.89667 43.354 7.30261 41.731 7.72937C40.0513 8.16654 39.5632 8.30185 39.5632 8.30185C38.7575 8.52046 38.3489 8.59331 38.3489 8.83269C38.3489 8.92638 38.4397 8.98885 38.5305 9.02008C38.6781 9.07208 38.9845 9.16577 39.1207 9.23861C39.359 9.36354 39.4838 9.44685 39.7903 9.81115C40.0627 10.1234 40.2215 11.1538 40.2555 11.7263C40.2782 12.0594 40.301 12.6007 40.301 12.9338V15.7129C40.301 16.046 40.2897 16.5976 40.2897 16.9307C40.2783 17.4095 40.1988 18.2631 40.0286 18.5128C39.813 18.8459 39.5973 18.9084 39.4611 18.9708C39.3477 19.0333 39.0185 19.1478 39.0753 19.3976C39.132 19.6474 39.4725 19.6474 39.6086 19.6474H46.2027C46.3388 19.6474 46.6793 19.6474 46.736 19.3976C46.7928 19.1478 46.475 19.0333 46.3615 18.9708C46.214 18.898 46.0778 18.8564 45.8394 18.5857C45.5784 18.2838 45.5443 17.472 45.533 16.9099C45.5216 16.5768 45.5103 16.0355 45.5103 15.6921C45.5103 15.6921 45.5103 11.7888 45.5103 10.4877C45.5103 9.92561 45.76 9.655 45.953 9.46761C46.1572 9.26985 46.5885 9.02008 47.1332 8.99923C47.678 8.97838 47.9958 9.17615 48.1547 9.34269C48.5065 9.73823 48.4271 10.7479 48.4498 11.5806C48.4611 11.9137 48.4725 12.4549 48.4725 12.788V17.1077C48.4725 17.2742 48.4611 17.701 48.4384 18.0236C48.4271 18.2422 48.3703 18.5962 48.2228 18.7522C48.1433 18.8459 48.0525 18.8875 47.9618 18.9292C47.6894 19.0645 47.5759 19.2207 47.6213 19.3872C47.6667 19.5538 47.8482 19.6474 48.166 19.6474H54.3628C54.499 19.6474 54.8395 19.6474 54.8962 19.3976C54.9416 19.1478 54.6238 19.0333 54.499 18.9917C54.3741 18.95 54.0336 18.7939 53.8861 18.5753C53.7726 18.3984 53.7272 18.1173 53.7272 18.0132C53.7045 17.6905 53.6818 17.2742 53.6818 17.0972C53.6818 17.0972 53.6705 12.6007 53.6818 11.1018C53.6818 9.69661 53.6818 8.80146 52.9214 7.84386Z" fill="white"/>
    <path d="M9.5794 4.3331C9.5794 3.96879 9.86315 3.77102 9.98796 3.68775C10.6462 3.26099 10.669 3.10486 10.669 3.0424C10.669 2.89668 10.5781 2.68851 9.74968 2.68851H1.3512C0.534048 2.68851 0.5 2.88627 0.5 3.0424C0.5 3.18813 0.715636 3.30263 1.2831 3.5108C1.60088 3.6253 2.07755 3.84388 2.46343 4.3331C2.64501 4.5725 2.94009 4.87435 3.18978 5.22825C3.6097 5.81113 4.04097 6.5918 4.04097 6.6022C4.21121 6.90406 4.4609 7.39327 4.60844 7.69513L10.4193 19.5091C10.5328 19.7381 10.7144 19.8734 10.9186 19.8734H10.93C11.1343 19.8734 11.3158 19.7485 11.4407 19.5195C11.4407 19.5195 14.9816 12.8995 16.196 10.7033C16.2868 10.5471 16.4344 10.2869 16.5706 10.2869C16.7408 10.2869 16.8316 10.5471 16.8543 10.5888L21.099 19.4986C21.2465 19.8213 21.4735 19.8629 21.5983 19.8629C21.7232 19.8526 21.9388 19.8213 22.0977 19.4986C22.1431 19.4049 26.6147 10.4118 28.2603 7.26837C28.6803 6.46689 29.4066 5.49887 30.4508 5.49887C30.8366 5.49887 31.1884 5.58214 31.1884 5.58214C31.5403 5.66541 32.1191 5.81113 32.4709 5.8944C32.4936 5.90482 33.0498 6.04013 33.5377 6.04013C35.3309 6.04013 36.6361 4.88476 36.6361 3.2818C36.6361 1.74131 35.2628 0.585938 33.4356 0.585938C30.6323 0.585938 29.1683 3.55243 27.7496 6.41484L27.568 6.77915C26.7282 8.45495 24.9009 12.0564 24.7194 12.4207C24.6058 12.6393 24.5037 12.837 24.3789 12.837C24.2427 12.837 24.0838 12.4415 24.0725 12.4103L21.5302 6.86243C21.394 6.55016 21.1784 6.05054 21.0536 5.73827C20.9627 5.49887 20.7244 4.8223 20.7244 4.53086C20.7244 3.90634 21.3827 3.61489 21.4167 3.60448C22.1658 3.2818 22.1658 3.09445 22.1658 3.02159C22.1658 2.87587 22.075 2.66769 21.2465 2.66769H12.882C12.0649 2.66769 11.9627 2.86546 11.9627 3.02159C11.9627 3.1569 12.1444 3.33385 12.7459 3.50039C12.9955 3.57325 13.2339 3.71897 13.4609 3.91674C13.7673 4.18737 14.1532 4.9264 14.2893 5.1762C14.4369 5.47806 14.6866 5.96727 14.8341 6.27953L15.8783 8.5278C15.9917 8.77764 16.0485 9.20441 15.9236 9.4438C15.9236 9.4438 15.1406 10.8906 14.8114 11.5359C14.6071 11.9419 14.1418 12.8475 13.8241 12.8475C13.4836 12.8475 12.9955 11.7753 12.7005 11.2133C12.0082 9.87057 10.7598 7.12264 10.1129 5.7591C9.93123 5.43642 9.5794 4.6974 9.5794 4.3331Z" fill="white"/>
    <path d="M64.7943 9.49892C64.4652 8.406 64.9077 7.43795 63.387 7.43795C61.9683 7.43795 60.6178 8.75984 60.4135 11.1539C60.1865 13.8185 61.6846 16.2854 64.6808 16.2854C66.3378 16.2854 67.4273 15.7233 68.4374 15.0884C68.846 14.8386 69.1184 14.7137 69.3227 14.8281C69.6745 15.0259 69.4134 15.536 69.3 15.7545C69.2886 15.7754 69.0503 16.2334 68.7438 16.6809C68.3466 17.2742 67.8926 17.7947 67.4046 18.2318C66.1335 19.3664 64.5332 19.9493 62.672 19.9493C58.609 19.9493 55.6695 17.243 55.6695 13.5271C55.6695 9.67584 58.7678 6.65729 63.2849 6.6677C64.4311 6.6677 65.5206 6.83423 66.2584 7.07364C67.3025 7.40672 68.6871 8.06246 68.6871 9.29069C68.6871 10.0401 68.2331 10.9769 66.9052 10.9873C65.793 10.9978 65.044 10.3316 64.7943 9.49892Z" fill="white"/>
  </g>
  <defs>
    <clipPath id="clip0_1_2">
      <rect width="69" height="21" fill="white" transform="translate(0.5)"/>
    </clipPath>
  </defs>
</svg>