<svg width="106" height="25" xmlns="http://www.w3.org/2000/svg" viewBox="0 0 106 25" fill="white">
  <path d="M63.7988 23.2649C63.5179 23.1937 63.2198 23.1937 63.0177 23.0527C62.3777 22.606 61.9398 22.06 61.9428 21.1691C61.9676 14.4995 61.9567 7.82977 61.955 1.16011C61.955 0.947979 61.9289 0.735846 61.9137 0.5C61.7748 0.525635 61.6977 0.534607 61.624 0.555115C60.0025 1.00694 58.3861 1.47863 56.7579 1.90225C56.2796 2.02659 56.08 2.23103 56.2404 2.75976C56.2956 2.7745 56.3385 2.795 56.3836 2.79757C57.6198 2.88152 58.3647 3.6916 58.3655 4.96185C58.3668 7.16392 58.3668 9.36598 58.3655 11.5674C58.3655 11.7296 58.3466 11.8917 58.3314 12.1231C58.1676 12.0045 58.0754 11.9488 57.9954 11.8789C55.4573 9.6576 51.3154 10.6003 49.6 13.1337C48.5082 14.7462 48.2657 16.5554 48.4897 18.4416C48.6851 20.0829 49.3049 21.5466 50.496 22.722C52.3322 24.5338 55.4447 25.2381 57.8851 23.436C58.2497 23.1668 58.5811 22.8515 58.9853 22.5092C59.0964 22.9739 59.2114 23.3821 59.288 23.7974C59.3415 24.0903 59.4821 24.18 59.7676 24.1768C60.8998 24.1634 62.0324 24.1717 63.1655 24.1717C63.648 24.1717 63.872 23.9211 63.8383 23.4199C63.8346 23.3597 63.8089 23.3007 63.7988 23.2649ZM58.3769 19.6554C58.2821 22.142 55.8977 23.6475 53.8543 22.4952C52.835 21.9203 52.2956 20.9622 52.1609 19.8143C51.9592 18.0993 51.92 16.3696 52.219 14.6642C52.6093 12.432 54.7234 11.454 56.5242 12.6531C57.6535 13.4055 58.3061 14.4854 58.376 15.8761C58.4084 16.5125 58.3819 17.1521 58.3819 17.7898C58.3811 18.4121 58.4009 19.0343 58.3769 19.6554Z" fill="white"/>
  <path d="M93.2535 21.4549C93.2514 19.2054 93.2409 16.9553 93.256 14.7058C93.2729 12.191 90.688 9.28645 87.4783 11.3065C86.6059 11.8558 85.859 12.612 85.0586 13.2785C84.8821 13.4253 84.723 13.5932 84.488 13.8156C84.2425 12.6402 84.0173 11.5603 83.7933 10.4875C82.5154 10.9944 81.2931 11.4969 80.0581 11.9628C79.3099 12.2448 79.2434 12.3268 79.4535 13.1119C80.5179 13.2407 81.1916 14.0046 81.1916 15.0839C81.1916 17.1264 81.1916 19.1682 81.1916 21.2107C81.1916 22.322 80.616 23.0578 79.5436 23.3039V24.1325H86.2779V23.3051C86.0004 23.2347 85.7381 23.2443 85.5937 23.1167C85.0901 22.672 84.6661 22.1637 84.6678 21.4184C84.6737 19.5675 84.6623 17.7166 84.6788 15.8658C84.6804 15.6261 84.7432 15.3338 84.8863 15.1569C85.6366 14.2315 86.5482 13.5035 87.6691 13.0914C88.3377 12.8453 88.848 12.9799 89.2375 13.5849C89.4813 13.9643 89.683 14.4507 89.6918 14.8942C89.7373 17.095 89.7251 19.2977 89.6985 21.4991C89.6948 21.826 89.5638 22.1849 89.3933 22.4681C89.1167 22.9289 88.7937 23.3929 88.1394 23.234V24.1377H94.8185V23.2846C93.9343 23.1443 93.2543 22.3361 93.2535 21.4549Z" fill="white"/>
  <path d="M24.5134 20.2015C24.3813 20.4444 24.1494 20.6418 23.9358 20.8277C22.518 22.0626 20.9043 22.5657 19.1289 21.8339C17.56 21.1872 16.8504 19.8086 16.592 18.1725C16.4966 17.5688 16.5155 17.5688 17.1215 17.52C19.4877 17.3297 21.8533 17.1387 24.2189 16.942C24.9651 16.8798 25.2235 16.6414 25.1667 15.8678C25.0182 13.8484 24.1785 12.1956 22.3632 11.2362C20.1296 10.055 17.0532 10.6587 15.2254 12.4206C12.8073 14.7508 12.6424 18.9339 14.1038 21.4551C16.1396 24.9678 21.2316 25.5452 24.1412 22.585C24.9152 21.7973 25.4946 20.8815 25.8876 19.774C25.3044 19.6805 24.828 19.6235 24.5134 20.2015ZM17.6516 12.6314C18.3769 11.8585 19.3177 11.663 20.299 11.995C21.3542 12.352 21.6454 13.3267 21.8059 14.2983C22.0498 15.7755 21.9601 15.864 20.5328 16.0056C19.3771 16.1203 18.2196 16.2184 17.0627 16.319C16.8959 16.3338 16.7272 16.321 16.4991 16.321C16.4884 14.9379 16.6937 13.6516 17.6516 12.6314Z" fill="white"/>
  <path d="M76.6615 20.2385C76.3162 20.6262 75.9364 20.9973 75.5188 21.3011C73.7579 22.5829 71.368 22.4022 70.0034 20.9083C69.2602 20.095 68.8868 19.1131 68.7339 18.0275C68.6834 17.6673 68.8122 17.5436 69.1554 17.5244C69.9558 17.4789 70.7554 17.411 71.5537 17.3443C73.2775 17.2007 75.0004 17.0463 76.7251 16.9136C77.0059 16.8918 77.16 16.7957 77.2076 16.5156C77.2442 16.2971 77.3423 16.0766 77.3284 15.8626C77.1975 13.8457 76.3571 12.2102 74.5689 11.261C72.6244 10.2292 70.6152 10.4176 68.7327 11.4571C66.5491 12.6639 65.5112 14.659 65.3537 17.1328C65.2375 18.9542 65.5908 20.6763 66.7444 22.1272C68.2602 24.0326 70.2973 24.667 72.6383 24.4331C75.3209 24.1652 77.411 21.8683 78.0207 19.7739C77.1613 19.6399 77.1752 19.6617 76.6615 20.2385ZM69.8404 12.6197C70.491 11.9262 71.3251 11.7551 72.2236 11.9141C72.7562 12.0083 73.1739 12.3262 73.4556 12.7991C73.963 13.6502 74.104 14.584 73.9958 15.5568C73.9819 15.6844 73.819 15.8869 73.7091 15.8978C72.0569 16.0676 70.4013 16.2106 68.6505 16.3689C68.6918 14.9333 68.8775 13.6457 69.8404 12.6197Z" fill="white"/>
  <path d="M36.1079 17.236C35.562 16.8726 34.9434 16.6157 34.3438 16.3433C33.197 15.8229 32.0338 15.3409 30.8908 14.8122C30.3967 14.5834 29.9683 14.231 29.8262 13.6638C29.6006 12.7652 30.2249 12.0115 31.2642 11.8891C32.7939 11.7084 34.8777 12.846 35.6486 14.3636C35.8849 14.8289 36.1566 14.8289 36.5691 14.7398V10.8708C36.2229 10.9592 35.9354 11.0483 35.641 11.104C35.3383 11.1611 35.023 11.2451 34.7254 11.2104C34.2762 11.1585 33.8421 10.9765 33.3923 10.9169C32.6043 10.8125 31.8001 10.6394 31.0203 10.7061C28.5776 10.9137 27.0145 13.1498 27.5768 15.5326C27.8548 16.7105 28.5985 17.5603 29.6265 18.0884C30.7581 18.6703 31.9555 19.1209 33.1193 19.64C33.621 19.8637 34.1309 20.0822 34.5978 20.368C35.121 20.6878 35.2929 21.2191 35.2019 21.8203C35.114 22.4035 34.7431 22.8258 34.2023 22.8989C33.5325 22.9893 32.7952 23.0623 32.1671 22.8713C30.6456 22.4073 29.3548 21.553 28.5593 20.0694C28.4923 19.9444 28.1878 19.9149 27.9926 19.9136C27.9243 19.9136 27.7967 20.1309 27.7955 20.2501C27.7809 21.462 27.7859 22.6739 27.7885 23.8859C27.7885 23.9621 27.8119 24.039 27.8378 24.1922C28.1063 24.1537 28.4001 24.1877 28.6061 24.0672C29.0408 23.8121 29.4761 23.8256 29.9272 23.9205C30.3272 24.0044 30.7202 24.1204 31.1164 24.2198C32.4369 24.5524 33.7663 24.6549 35.0616 24.1569C36.5161 23.5981 37.4878 22.5733 37.7052 20.957C37.9143 19.4003 37.4221 18.1115 36.1079 17.236Z" fill="white"/>
  <path d="M104.715 20.9903C104.246 21.3434 103.851 21.6882 103.412 21.9625C102.54 22.5079 101.389 21.8754 101.381 20.8346C101.362 18.1717 101.378 15.5088 101.369 12.8466C101.368 12.5454 101.481 12.4633 101.758 12.4678C102.528 12.48 103.298 12.4736 104.068 12.4704C104.233 12.4697 104.398 12.4518 104.547 12.4428V10.9387C103.579 10.9387 102.652 10.9233 101.727 10.9457C101.348 10.9547 101.257 10.8278 101.264 10.4503C101.291 9.14742 101.275 7.84384 101.275 6.50249C100.976 6.53003 100.688 6.29483 100.517 6.70434C99.9634 8.03163 99.0813 9.12818 98.128 10.1747C97.6451 10.7048 97.0994 11.0579 96.3474 10.9438C96.2468 10.9284 96.1381 10.9669 96.0266 10.9816V12.3819C96.1861 12.3935 96.3095 12.4082 96.4333 12.4108C97.4497 12.4332 97.8914 12.8831 97.8914 13.9034C97.8914 16.3433 97.9647 18.7857 97.8682 21.221C97.7937 23.1052 99.8918 24.6818 101.467 24.4216C103.156 24.1428 104.272 22.9739 105.421 21.7908C105.154 21.4883 104.937 21.2422 104.715 20.9903Z" fill="white"/>
  <path d="M10.471 10.6695C9.43537 10.4939 8.55647 10.8784 7.85765 11.5943C7.16455 12.3044 6.57377 13.1176 5.93689 13.8848C5.84211 13.9989 5.74164 14.1078 5.58177 14.2905C5.14771 13.0523 4.74712 11.9083 4.36107 10.806C3.23387 11.3052 2.17239 11.7821 1.10521 12.2461C0.526445 12.4979 0.497377 12.5421 0.674924 13.2189C0.733053 13.2266 0.794341 13.2381 0.856261 13.2433C1.83877 13.3182 2.55338 14.0969 2.55338 15.0935C2.55338 17.1507 2.5698 19.2086 2.53758 21.2652C2.5319 21.619 2.38405 22.0157 2.18502 22.3118C1.83625 22.8322 1.45335 23.3782 0.697037 23.2526V24.144H8.82817C9.06131 23.3051 9.01205 23.2359 8.21024 23.2353C8.11609 23.2353 8.02131 23.2353 7.92716 23.2353C6.96426 23.2353 6.04051 22.3111 6.03735 21.3312C6.0323 19.6245 6.02914 17.9185 6.04367 16.2118C6.04556 15.9856 6.09672 15.7184 6.22249 15.5408C6.70771 14.8564 7.22771 14.1969 7.74708 13.5381C7.84691 13.4118 8.00299 13.3311 8.1603 13.208C8.24308 13.3772 8.2968 13.49 8.35301 13.6015C8.78901 14.4667 9.74434 14.8968 10.6624 14.6423C11.5603 14.393 12.1226 13.5304 12.0796 12.4691C12.0436 11.5776 11.3732 10.8226 10.471 10.6695Z" fill="white"/>
  <path d="M44.7478 20.8732C44.7478 17.6656 44.7478 14.4586 44.7478 11.251V10.7453C43.0387 11.2952 41.3907 11.8137 39.7568 12.3738C39.631 12.4167 39.5609 12.7467 39.547 12.9493C39.5413 13.03 39.7511 13.1858 39.8781 13.2057C40.5877 13.3146 41.3377 14.1323 41.3389 14.8553C41.3433 17.0253 41.3541 19.196 41.3257 21.3654C41.3212 21.6897 41.179 22.0556 40.992 22.3248C40.6376 22.8343 40.2136 23.3015 39.4902 23.2086V24.1295H46.6817V23.2515C45.2682 22.9932 44.7478 22.3466 44.7478 20.8732Z" fill="white"/>
  <path d="M42.6305 8.36943C43.8194 8.37327 44.8114 7.39015 44.8114 6.20901C44.8114 5.04644 43.8316 4.06269 42.6684 4.0582C41.4976 4.05308 40.4974 5.02337 40.4898 6.17057C40.4816 7.37284 41.4476 8.36623 42.6305 8.36943Z" fill="white"/>
</svg>