<svg width="20" height="20" xmlns="http://www.w3.org/2000/svg" viewBox="0 0 20 20" fill="white">
  <path fill-rule="evenodd" clip-rule="evenodd" d="M9.18555 13.7764C9.89413 13.7764 10.1785 14.11 10.3203 14.3682V13.8262H11.5137V18.0479C11.4798 19.6999 10.1868 20 9.29395 20C8.40143 20 7.75932 19.6077 7.45898 19.0322L8.20117 18.5732C8.35973 18.7736 8.64321 19.0234 9.29395 19.0234C10.0112 19.0234 10.3202 18.7488 10.3203 17.9814V17.6143C10.3119 17.6723 10.0199 18.1816 9.18555 18.1816C8.45156 18.1816 7.3584 17.5892 7.3584 15.9961C7.35844 14.3938 8.45157 13.7764 9.18555 13.7764ZM9.43555 14.7773C8.92671 14.7774 8.54397 15.0952 8.54395 15.9961C8.54395 16.8629 8.92669 17.1806 9.43555 17.1807C9.9777 17.1807 10.3701 16.8801 10.3701 15.9961C10.3701 15.1281 9.97768 14.7773 9.43555 14.7773Z" fill="white"/>
  <path d="M18.1211 13.8262H18.9551V14.7773H18.1211V16.8047C18.1211 17.0634 18.2373 17.2304 18.5205 17.2305C18.6957 17.2305 18.8468 17.2059 19.0303 17.1729V18.0898C18.8468 18.1733 18.5707 18.2148 18.1621 18.2148C17.5116 18.2148 16.9279 17.981 16.9277 16.7803V14.7773H16.3018V13.8262H16.9277V12.7422H18.1211V13.8262Z" fill="white"/>
  <path d="M3.75488 13.7852C4.63859 13.7852 5.28989 14.227 5.29004 15.5449V18.1641H4.09668V15.6035C4.09656 15.0036 3.81306 14.8029 3.39648 14.8027C2.8123 14.8027 2.41125 15.3372 2.34473 15.6123V18.1641H1.15234V13.8262H2.34473V14.6777C2.47803 14.3773 2.94516 13.7852 3.75488 13.7852Z" fill="white"/>
  <path d="M7.02539 18.1641H5.83203V13.8262H7.02539V18.1641Z" fill="white"/>
  <path d="M13.1729 14.6777C13.3067 14.3773 13.7736 13.7853 14.583 13.7852C15.4668 13.7852 16.118 14.227 16.1182 15.5449V18.1641H14.9248V15.6035C14.9247 15.0035 14.6416 14.8028 14.2246 14.8027C13.6408 14.8027 13.2399 15.3372 13.1729 15.6123V18.1641H11.9805V12.3252H13.1729V14.6777Z" fill="white"/>
  <path d="M7.02539 13.3008H5.83203V12.3252H7.02539V13.3008Z" fill="white"/>
  <path fill-rule="evenodd" clip-rule="evenodd" d="M3.0293 7.03906C3.9471 7.0392 5.13965 7.65711 5.13965 9.28418C5.13952 10.9024 3.94705 11.5028 3.0293 11.5029C2.11182 11.5029 0.91029 10.9026 0.910156 9.28418C0.910156 7.65693 2.11177 7.03906 3.0293 7.03906ZM3.0293 8.00684C2.51204 8.00684 2.09473 8.36664 2.09473 9.28418C2.09481 10.1685 2.5121 10.5361 3.0293 10.5361C3.53815 10.536 3.95499 10.1684 3.95508 9.28418C3.95508 8.36683 3.5382 8.00698 3.0293 8.00684Z" fill="white"/>
  <path fill-rule="evenodd" clip-rule="evenodd" d="M11.4805 7.03906C12.5894 7.03919 13.5156 7.73275 13.5156 9.42578V9.64258H10.5625C10.6631 10.2685 11.0463 10.5361 11.5801 10.5361C11.8804 10.5361 12.1813 10.4271 12.3232 10.1768H13.4482C13.1315 11.1021 12.4892 11.5029 11.4629 11.5029C10.5456 11.5028 9.36146 10.8936 9.36133 9.28418C9.36133 7.66561 10.4961 7.03906 11.4805 7.03906ZM11.4805 8.00684C11.0131 8.00684 10.6789 8.28275 10.5703 8.8418H12.3311C12.2485 8.27423 11.9724 8.00694 11.4805 8.00684Z" fill="white"/>
  <path d="M7.25879 10.2188L8.38477 7.08984H9.58594L7.90918 11.4277H6.59961L4.92285 7.08984H6.12402L7.25879 10.2188Z" fill="white"/>
  <path d="M16.2686 7.04785C16.4186 7.04786 16.5274 7.05556 16.6943 7.08105V8.13281C16.5524 8.12469 16.4523 8.12402 16.4023 8.12402C15.4844 8.11561 15.1168 8.51671 14.9922 9.14258V11.4277H13.7998V7.08984H14.9922V8.07422C15.1256 7.48141 15.5514 7.04785 16.2686 7.04785Z" fill="white"/>
  <path fill-rule="evenodd" clip-rule="evenodd" d="M2.88672 1.03516C3.84608 1.03516 4.85547 1.74437 4.85547 3.2627C4.85537 4.789 3.84604 5.49805 2.88672 5.49805C1.91885 5.49783 0.910254 4.78877 0.910156 3.2627C0.910156 1.7446 1.91881 1.03537 2.88672 1.03516ZM2.88672 1.44434C2.12759 1.44455 1.38574 2.01138 1.38574 3.2627C1.38583 4.52142 2.12763 5.08963 2.88672 5.08984C3.64564 5.08984 4.38858 4.52166 4.38867 3.2627C4.38867 2.01114 3.64568 1.44434 2.88672 1.44434Z" fill="white"/>
  <path fill-rule="evenodd" clip-rule="evenodd" d="M7.1748 1.03516C8.26757 1.03516 8.83485 1.44399 8.83496 2.63672V4.78906C8.83499 5.02254 8.91849 5.1054 9.17676 5.09766V5.43164C9.0938 5.45701 9.02702 5.46484 8.93555 5.46484C8.57648 5.46481 8.38477 5.3145 8.38477 4.86426V4.48926C8.25086 4.76469 7.74966 5.49805 6.66602 5.49805C5.84846 5.49795 5.25586 5.05572 5.25586 4.23828C5.256 3.52094 5.70708 3.08747 6.7666 2.9541C7.24209 2.8877 8.03468 2.80338 8.35156 2.63672V2.52051C8.35156 1.70263 7.99232 1.42773 7.16602 1.42773C6.41567 1.42783 6.07384 1.68596 6.00684 2.09473H5.54004C5.63148 1.38528 6.24894 1.03516 7.1748 1.03516ZM8.35156 2.9873C8.12643 3.12093 7.41681 3.2121 6.70801 3.32031C6.01555 3.42837 5.74916 3.71285 5.74902 4.22949C5.74902 4.78036 6.12432 5.10547 6.74121 5.10547C7.7677 5.10529 8.23465 4.3053 8.35156 4.03809V2.9873Z" fill="white"/>
  <path d="M13.3652 1.03516C14.1741 1.03516 14.7418 1.34395 14.9502 2.10352H14.5078C14.324 1.58574 13.9489 1.41016 13.3652 1.41016C12.6225 1.41021 12.2804 1.711 12.2803 2.16895C12.2803 2.59481 12.5146 2.81171 13.1318 2.96191L13.79 3.12109C14.6161 3.32098 15.1006 3.50478 15.1006 4.28027C15.1004 5.18933 14.2742 5.48145 13.3984 5.48145C12.4976 5.48144 11.7712 5.1225 11.6543 4.23828H12.0967C12.2386 4.89752 12.7726 5.10547 13.3984 5.10547C14.0322 5.10547 14.6161 4.88954 14.6162 4.28027C14.6162 3.76306 14.2911 3.62093 13.7402 3.4873L12.957 3.30371C12.1974 3.12073 11.7969 2.78732 11.7969 2.16895C11.797 1.41878 12.4142 1.03521 13.3652 1.03516Z" fill="white"/>
  <path d="M10.3867 1.08496H11.2217V1.49414H10.3867V4.73926C10.3867 4.97317 10.4871 5.05566 10.7373 5.05566C10.9626 5.05565 11.1127 5.03097 11.2959 4.98926V5.38965C11.1126 5.44788 10.8783 5.47266 10.6367 5.47266C10.2363 5.47255 9.90332 5.33059 9.90332 4.76367V1.49414H9.27734V1.08496H9.90332V0H10.3867V1.08496Z" fill="white"/>
</svg>