<svg width="85" height="25" xmlns="http://www.w3.org/2000/svg" viewBox="0 0 85 25" fill="white">
  <path d="M40.0202 6.47506C40.8077 6.47896 41.4189 6.64931 42.1403 6.68546C42.7131 6.71415 43.3129 6.64129 43.8862 6.60659C44.6006 6.56337 45.3288 6.546 46.0388 6.45772C46.0246 6.76624 46.0062 7.07455 45.9838 7.38258C45.1619 7.37423 43.9512 7.32507 43.1505 7.19792C43.5976 7.50042 43.9869 7.87449 44.2573 8.34578C44.7833 9.26277 44.8233 10.4907 44.5484 11.4979C44.282 12.4739 43.6637 13.2174 42.7926 13.7133C41.393 14.5101 39.2854 14.5375 37.7676 14.1199C37.6105 14.3563 37.4808 14.5837 37.4208 14.8641C37.3291 15.2932 37.4204 15.8121 37.6625 16.1794C38.4042 17.3047 41.5455 17.6489 42.7969 17.9125C43.7613 18.1156 45.0114 18.4628 45.5759 19.3395C46.0141 20.0201 45.9885 20.9406 45.8247 21.7027C45.5857 22.3767 45.1686 22.9385 44.5675 23.3321C42.8929 24.4289 39.8314 24.5304 37.9325 24.1397C36.8214 23.9112 35.7554 23.406 35.1173 22.4268C34.6799 21.7555 34.5576 20.939 34.7216 20.1603C35.0349 18.673 36.1329 17.8177 37.3297 17.0381C37.0159 16.8587 36.7179 16.6345 36.5044 16.3398C36.2464 15.9902 36.1415 15.5508 36.2135 15.1224C36.3065 14.5649 36.6715 14.2005 37.1148 13.8877C36.8657 13.7564 36.6332 13.6251 36.4199 13.4378C35.6627 12.7729 35.3641 11.8046 35.3016 10.8278C35.235 9.7876 35.4382 8.78106 36.1499 7.97951C37.1336 6.87169 38.6082 6.55371 40.0202 6.47506ZM42.4765 23.4917C43.2323 23.1446 43.892 22.744 44.1965 21.9232C44.4453 21.2527 44.4729 20.3467 44.1655 19.6905C43.8444 19.0052 43.1503 18.6222 42.4652 18.3791C40.9756 17.8507 39.2788 17.7777 37.7301 17.2376C36.7878 18.3257 36.1157 19.4387 36.2236 20.937C36.2816 21.7422 36.5774 22.5292 37.1989 23.0674C38.1196 23.8647 39.4629 23.9734 40.6282 23.8847C41.2597 23.8407 41.8818 23.7084 42.4765 23.4917ZM40.3252 14.0227C41.1965 13.8553 41.8978 13.4802 42.4085 12.7306C43.102 11.7128 43.2117 10.2716 42.9816 9.0856C42.8417 8.3645 42.5045 7.67563 41.8828 7.25451C41.22 6.80544 40.4229 6.74753 39.6485 6.8107C38.7849 6.94031 38.0355 7.27091 37.5035 7.99209C36.7768 8.97725 36.7521 10.4412 36.9326 11.6082C37.0473 12.3501 37.3258 13.1053 37.9526 13.5634C38.6289 14.0578 39.5201 14.1063 40.3252 14.0227Z" fill="white"/>
  <path d="M58.7589 6.51619C59.8084 6.4861 60.9506 6.63608 61.8252 7.26584C62.3723 7.65979 62.74 8.25742 62.9145 8.90364C63.1731 9.86166 63.0522 11.0183 63.0518 12.0074L63.051 15.8956C63.051 16.4146 62.9864 17.0406 63.0751 17.5493C63.2003 18.2667 64.3834 17.7274 64.845 18.0542C64.8936 18.1551 64.8846 18.1692 64.8567 18.2775C64.766 18.3534 64.718 18.3641 64.6005 18.3822C63.9394 18.4843 62.5029 18.7259 61.9609 18.3191C61.6801 18.1083 61.6012 17.8406 61.5558 17.5064C59.7706 18.2467 57.5962 18.9278 55.6769 18.2729C55.0796 18.0692 54.5743 17.6857 54.2955 17.1101C53.9411 16.3933 53.891 15.5637 54.1566 14.8094C54.2153 14.6948 54.2759 14.5803 54.3492 14.4743C54.6534 14.0351 55.1153 13.7308 55.602 13.5276C57.1486 12.8818 59.774 12.8351 61.5026 12.5201C61.4879 11.0275 61.7379 8.98197 60.745 7.73232C60.3641 7.25309 59.7928 7.02334 59.1974 6.95453C57.6468 6.77536 55.9952 7.72985 54.8268 8.65616C54.7985 9.27033 54.795 9.90067 54.7233 10.5106L54.277 10.6349C54.2407 9.68382 54.2577 8.72737 54.2557 7.77548C55.7048 7.0594 57.1518 6.64395 58.7589 6.51619ZM56.3362 17.7146C57.3003 18.2431 58.2906 18.2005 59.32 17.9006C60.1008 17.6732 60.811 17.3038 61.5073 16.8896C61.4789 15.5896 61.4968 14.2868 61.4994 12.9866L60.9348 13.0185C59.568 13.0821 56.9384 13.0021 55.9881 14.0453C55.5478 14.5288 55.4241 15.1813 55.4563 15.8163C55.4901 16.4814 55.6484 17.1041 56.1595 17.5643C56.217 17.6161 56.2759 17.6662 56.3362 17.7146Z" fill="white"/>
  <path d="M11.1435 6.56195L11.1988 6.56113C11.3745 6.78227 11.1512 14.608 11.3337 15.7153C11.4169 16.2202 11.5885 16.7397 11.8907 17.1566C12.2539 17.6576 12.8274 17.9322 13.4284 18.0263C14.8698 18.2522 16.1388 17.3693 17.2398 16.568C17.1667 14.2778 17.2351 11.9716 17.2272 9.67932C17.2254 9.14902 17.2995 7.87569 17.2197 7.41734C17.1195 6.8416 16.0208 7.16044 15.631 6.88394C15.5785 6.77738 15.5859 6.76298 15.6139 6.64787C15.8288 6.51157 18.2931 6.58856 18.791 6.5462L18.7909 15.5063C18.7904 16.1435 18.7386 16.8314 18.7981 17.4639C18.8076 17.5654 18.8313 17.6577 18.8924 17.7411C19.1545 18.0987 19.9431 17.8946 20.3308 17.9537C20.4594 17.9733 20.5004 18.0112 20.5721 18.1102C20.5732 18.2106 20.5902 18.2419 20.5212 18.3184C20.0573 18.5235 19.0728 18.5362 18.5523 18.5325C18.228 18.5302 17.7521 18.4568 17.5178 18.2076C17.2242 17.8954 17.2156 17.4576 17.2247 17.056C16.1954 17.7283 15.0284 18.3084 13.7924 18.4512C12.8161 18.5639 11.4566 18.3659 10.6755 17.7415C10.2233 17.3801 9.98694 16.9362 9.84264 16.3846C9.63492 15.5908 9.69221 14.7395 9.69206 13.9265L9.69183 9.18841C9.68899 8.6307 9.76065 8.01934 9.69693 7.46993C9.61942 6.80233 8.49615 7.18945 8.10737 6.88095C8.06491 6.77391 8.06589 6.75448 8.09247 6.64323C8.44418 6.49754 10.5935 6.58233 11.1435 6.56195Z" fill="white"/>
  <path d="M4.77132 0.65641C5.27528 0.583388 5.87367 0.627363 6.37029 0.735453C6.50443 0.764652 6.73271 0.812585 6.81157 0.934775L6.78738 1.00254C6.54158 1.08588 6.16189 0.99445 5.89868 0.991931C5.20556 0.985302 4.51459 1.17764 4.01221 1.67599C2.98258 2.69735 3.23812 5.1807 3.2389 6.56632C3.74015 6.55097 5.73853 6.49538 6.07332 6.61291C6.0974 6.73081 6.09843 6.83088 6.08731 6.95047C5.91826 7.07597 3.61246 7.00577 3.23842 7.00624C3.29797 10.6412 3.24188 14.2862 3.2397 17.9224C3.73279 17.9899 4.24529 17.9996 4.74245 18.0333C4.84473 18.0244 5.12145 18.0193 5.20574 18.0681C5.2709 18.1058 5.26544 18.1613 5.28083 18.23C5.24589 18.3015 5.2358 18.3341 5.15947 18.3704C4.93777 18.4756 0.484092 18.4831 0.266445 18.402C0.242139 18.3053 0.247178 18.2877 0.289366 18.1973C0.586385 17.9534 1.26627 17.9603 1.6503 17.903C1.70477 17.4585 1.67907 16.9893 1.67872 16.5419L1.68056 7.00341C1.47082 7.00694 1.26055 7.01111 1.05081 7.00696C0.932197 7.00462 0.729309 7.00185 0.642793 6.91193C0.778745 6.71224 1.45257 6.64376 1.68564 6.59908C1.65473 5.65694 1.57638 3.69904 1.77867 2.83723C1.87081 2.44471 2.03901 2.07673 2.29918 1.76687C2.89276 1.05994 3.87576 0.734629 4.77132 0.65641Z" fill="white"/>
  <path d="M70.7073 6.47496C71.8081 6.41099 73.0056 6.69404 74.0127 7.12437L74.0118 9.84428L73.5577 10.014C73.5145 9.34865 73.4804 8.68274 73.4553 8.01642C72.952 7.5382 72.0785 6.98643 71.3816 6.92477C70.6588 6.86085 69.8601 7.03742 69.297 7.5123C68.7148 8.00323 68.4219 8.68933 68.3639 9.43791C68.334 9.82324 68.3756 10.192 68.6009 10.5161C69.3202 11.5501 71.7355 11.8416 72.8809 12.4005C73.3136 12.609 73.6984 12.905 74.0111 13.2698C74.5196 13.8712 74.7157 14.63 74.6491 15.4079C74.5795 16.218 74.2058 17.0033 73.5758 17.5264C72.4985 18.4212 70.8644 18.608 69.5182 18.486C68.4914 18.4536 67.4306 18.0793 66.5851 17.506C66.531 16.9526 66.4733 15.2738 66.6156 14.7927C66.7106 14.6801 66.8745 14.6455 67.0099 14.6L67.1216 16.643C67.2564 16.848 67.4179 17.0341 67.6019 17.1964C68.3422 17.8526 69.3164 18.1811 70.3026 18.1072C71.1334 18.0532 71.9099 17.7709 72.4664 17.1291C72.9361 16.5876 73.1439 15.7675 73.091 15.0572C72.9567 13.251 70.3129 12.9949 68.9805 12.4986C68.5012 12.3201 68.0462 12.0864 67.6566 11.7504C67.1373 11.3026 66.8559 10.7306 66.8086 10.0466C66.7549 9.26995 66.9886 8.40149 67.5102 7.8098C68.3294 6.88061 69.5168 6.54821 70.7073 6.47496Z" fill="white"/>
  <path d="M80.6739 6.4751C81.7275 6.41488 83.0447 6.66415 83.9866 7.14449C84.0361 8.02533 84.0188 8.95149 83.9844 9.8332L83.5224 10.0259C83.4745 9.35487 83.4617 8.68237 83.4131 8.01128C82.9376 7.52528 82.0046 6.98035 81.3314 6.9242C80.6043 6.86352 79.8113 7.04209 79.249 7.52477C78.6402 8.04702 78.3834 8.7422 78.3235 9.52365C78.2111 10.9816 79.833 11.3977 80.9353 11.7316C81.5223 11.9094 82.1334 12.0773 82.6935 12.3291C83.1794 12.5477 83.6242 12.8509 83.9724 13.2586C84.4898 13.8654 84.68 14.6231 84.6119 15.4106C84.5393 16.2569 84.1851 16.9814 83.5299 17.5265C82.4598 18.4178 80.8507 18.6095 79.5096 18.4881C78.4612 18.4506 77.4256 18.0824 76.5533 17.5108C76.4964 16.6033 76.5353 15.6788 76.5503 14.7701L76.9606 14.6044C77.0542 15.2852 77.0333 15.9836 77.1037 16.6689C77.2422 16.8596 77.3882 17.0381 77.5657 17.1935C78.3055 17.8491 79.2774 18.1793 80.2628 18.1093C81.0573 18.0562 81.8825 17.7743 82.4172 17.1572C82.8964 16.6039 83.1165 15.7681 83.0589 15.0455C82.8859 12.8796 79.1584 13.0814 77.6188 11.7498C77.0812 11.2852 76.8251 10.7 76.7794 9.99629C76.7263 9.18204 76.9591 8.41333 77.5013 7.79771C78.3175 6.86966 79.4878 6.54957 80.6739 6.4751Z" fill="white"/>
  <path d="M30.1764 0.694358C30.3953 0.6495 30.6802 0.650251 30.9044 0.656922C31.1802 0.665128 31.4854 0.749919 31.6779 0.958233C31.8749 1.1713 31.8985 1.46323 31.9189 1.74068C31.9731 2.479 31.9321 3.2485 31.9322 3.98953L31.9325 14.4976C31.9324 15.6373 31.9603 16.7837 31.9195 17.9221C32.2441 17.9693 33.5081 17.9545 33.6947 18.1034C33.705 18.1978 33.6947 18.2723 33.6734 18.3646C33.2183 18.5251 31.6004 18.4389 31.0292 18.439C30.4632 18.4467 29.8619 18.4915 29.2996 18.4443C29.1418 18.431 29.0242 18.4082 28.9201 18.2846L28.9473 18.1802C29.1815 17.9708 30.0076 17.9585 30.3424 17.898C30.4136 17.3009 30.3658 16.6456 30.3656 16.0434L30.356 1.26187C30.0388 1.22522 29.0308 1.30742 28.8221 1.14902C28.8037 1.04083 28.8013 1.02602 28.8534 0.928843C29.1641 0.713375 29.7983 0.729674 30.1764 0.694358Z" fill="white"/>
  <path d="M24.6814 0.654929C24.9487 0.676072 25.2036 0.785592 25.382 0.989216C25.5325 1.16098 25.5852 1.35021 25.6028 1.57367C25.6688 2.41057 25.6194 3.28202 25.6196 4.12322L25.6212 14.858C25.6212 15.8769 25.6667 16.9142 25.6066 17.93C26.1792 17.9903 26.7751 17.9741 27.3409 18.0703C27.4002 18.1633 27.3713 18.2298 27.3574 18.3349C27.1295 18.5156 24.3014 18.4407 23.8269 18.4414C23.5494 18.4449 22.8671 18.5332 22.657 18.3694C22.6095 18.3324 22.6171 18.3078 22.6112 18.2506C22.8544 17.876 23.6157 18.1051 24.0046 17.8419C24.1361 17.5308 24.0867 2.87444 24.0518 1.26612C23.6431 1.22117 23.2362 1.25836 22.8283 1.22577C22.7134 1.21659 22.5712 1.20803 22.496 1.11901C22.5058 1.05486 22.5044 1.01325 22.5502 0.962638C22.8135 0.671031 24.2512 0.669225 24.6814 0.654929Z" fill="white"/>
  <path d="M48.8262 0.694029C49.022 0.647463 49.29 0.653906 49.4929 0.652483C49.7883 0.650412 50.0738 0.737102 50.2868 0.948219C50.4222 1.08252 50.5093 1.22212 50.5324 1.41237C50.6111 2.06164 50.5732 2.74053 50.5733 3.39439L50.5683 17.9215C51.0411 18.008 51.5389 17.9762 52.0172 18.0273C52.1276 18.0391 52.273 18.0416 52.3438 18.1287C52.3481 18.2181 52.3669 18.3145 52.3063 18.3883C51.4395 18.4973 50.4987 18.4379 49.6226 18.4389C48.9882 18.4437 48.2329 18.526 47.6141 18.4023C47.555 18.3388 47.5712 18.3054 47.5718 18.2208C47.8465 17.8867 48.5809 18.106 48.9612 17.8422C49.0872 17.5619 49.0436 2.84632 49.0037 1.2702C48.7151 1.22752 47.6224 1.29108 47.4579 1.14739C47.4537 1.05544 47.4484 1.0105 47.5108 0.935482C47.6914 0.718538 48.5365 0.719303 48.8262 0.694029Z" fill="white"/>
  <path d="M29.5671 20.9044C30.227 20.8726 30.8527 21.1989 31.2048 21.7581C31.5569 22.3174 31.5807 23.023 31.2672 23.6047C30.9536 24.1865 30.3513 24.5542 29.6908 24.5671C28.6896 24.5866 27.8584 23.7981 27.8246 22.7968C27.7907 21.7955 28.567 20.9525 29.5671 20.9044ZM29.7572 24.0872C30.144 23.9963 30.4549 23.8169 30.6706 23.4733C30.8693 23.1572 30.9338 22.7747 30.8498 22.4108C30.7715 22.0733 30.5766 21.7644 30.2771 21.5821C30.0661 21.4536 29.8246 21.3846 29.5772 21.3955C29.1997 21.4632 28.8917 21.6133 28.6659 21.9341C28.4504 22.2402 28.3752 22.6393 28.4428 23.0054C28.5072 23.3545 28.7022 23.6684 28.998 23.8672C29.2396 24.0295 29.4725 24.0652 29.7572 24.0872Z" fill="white"/>
  <path d="M0.32876 20.9132L0.867089 20.9308C1.13944 21.7945 1.32676 22.6937 1.55528 23.5709C1.64803 23.0881 1.78672 22.6061 1.90374 22.1281C1.98402 21.8002 2.04373 21.4372 2.15882 21.1218C2.18425 21.052 2.20412 20.9711 2.27771 20.9412C2.38695 20.8969 2.58032 20.9413 2.68309 20.9835C2.95131 21.3996 3.24246 22.9863 3.38642 23.5669C3.60326 22.686 3.825 21.8064 4.05164 20.928L4.62751 20.9243L4.4569 21.6116C4.19645 22.5886 3.94746 23.5686 3.70997 24.5515L3.07383 24.5526C2.87762 23.7647 2.67675 22.978 2.47124 22.1925C2.21555 22.9495 2.06125 23.7727 1.85754 24.5487L1.24076 24.5501C0.915117 23.3494 0.581293 22.131 0.32876 20.9132Z" fill="white"/>
  <path d="M9.90899 20.905C10.0931 20.9253 10.2821 20.9292 10.4672 20.9409C10.9081 21.4193 11.8043 22.9835 12.1576 23.6094C12.1481 22.7149 12.1141 21.8083 12.1676 20.9155L12.7034 20.9307C12.7567 22.1266 12.7141 23.3407 12.7132 24.5383C12.5327 24.577 12.2991 24.5503 12.1123 24.5502C11.5201 23.6998 10.9951 22.7837 10.4442 21.9049C10.5035 22.7698 10.471 23.6823 10.452 24.5495L9.91535 24.543C9.8556 23.3402 9.89191 22.1099 9.90899 20.905Z" fill="white"/>
  <path d="M15.083 20.9252L17.3199 20.9222L17.3244 21.472C16.7482 21.4685 16.172 21.4692 15.5958 21.4741L15.6023 22.3247C16.068 22.3292 16.5337 22.3273 16.9992 22.3188L16.9891 22.8913C16.6537 22.8826 15.8963 22.7686 15.6131 22.9239L15.6001 23.022L15.5967 24.0011C16.1708 24.0088 16.7449 24.0077 17.3189 23.9979L17.3261 24.5505L15.0763 24.552C15.0011 23.4105 15.0008 22.0629 15.083 20.9252Z" fill="white"/>
  <path d="M24.2938 20.8576C24.3107 20.8549 24.3101 20.8545 24.3305 20.8543C24.9198 20.8492 25.3714 21.1805 25.7478 21.5991L25.2761 21.8639C25.0604 21.6721 24.8575 21.5016 24.5726 21.4279C24.2708 21.3497 23.9531 21.4255 23.6899 21.5845C23.3974 21.7612 23.2007 22.0459 23.122 22.3769C23.0287 22.7574 23.0921 23.1595 23.2978 23.4928C23.4684 23.7653 23.7426 23.9788 24.0594 24.0473C24.4448 24.1305 24.7426 24.0056 25.0601 23.7981C25.1214 23.7361 25.172 23.6908 25.251 23.6526C25.4246 23.6418 25.6019 23.7893 25.7434 23.881C25.4161 24.2631 24.9786 24.5599 24.4685 24.6123C24.0199 24.6567 23.5724 24.5178 23.2277 24.2272C22.8308 23.8987 22.5857 23.4061 22.5384 22.895C22.4921 22.3949 22.6431 21.8644 22.9694 21.479C23.3105 21.076 23.779 20.8982 24.2938 20.8576Z" fill="white"/>
  <path d="M6.92179 20.9182L7.46632 20.9275C7.50084 22.1264 7.47269 23.3345 7.47314 24.5343C7.31858 24.579 7.08256 24.546 6.9185 24.5436C6.87799 23.3471 6.86638 22.114 6.92179 20.9182Z" fill="white"/>
  <path d="M33.4275 24.0706C33.5109 24.0242 33.613 24.0276 33.6932 24.0793C33.7734 24.131 33.8187 24.2228 33.8109 24.3179C33.8031 24.4131 33.7436 24.4962 33.656 24.5342C33.5295 24.5892 33.3821 24.535 33.3211 24.4112C33.2601 24.2875 33.3069 24.1376 33.4275 24.0706Z" fill="white"/>
</svg>