<svg width="175" height="17" xmlns="http://www.w3.org/2000/svg" viewBox="0 0 175 17" fill="white">
  <path d="M108.925 16.4673V1.05792H110.649V15.7014H116.752V16.4675L108.925 16.4673ZM143.426 8.10153H139.054V15.7012H143.426C144.764 15.7012 145.789 15.3171 146.501 14.5494C147.211 13.7818 147.567 13.2373 147.567 12.0193C147.567 10.8014 147.211 10.0304 146.501 9.25881C145.789 8.48742 144.764 8.10153 143.426 8.10153ZM142.801 1.82401H139.054V7.33563H142.801C143.868 7.33563 144.655 7.05181 145.162 6.48436C145.668 5.9169 145.922 5.39243 145.922 4.46166C145.922 3.53148 145.669 3.23293 145.162 2.6696C144.655 2.10587 143.868 1.82401 142.801 1.82401ZM137.329 1.05772H142.62C143.301 1.05772 143.926 1.11994 144.498 1.24478C145.069 1.36962 145.583 1.56119 146.041 1.81832C146.498 2.07545 146.856 2.42307 147.113 2.86195C147.37 3.30104 147.499 3.80784 147.499 4.38256C147.499 5.22226 147.239 5.91258 146.716 6.45334C146.194 6.9943 145.495 7.38235 144.617 7.61632C145.509 7.72231 146.311 7.9553 147.023 8.3143C147.734 8.67409 148.311 9.1748 148.753 9.81802C149.196 10.4608 149.417 11.1949 149.417 12.0191C149.417 12.7156 149.259 13.349 148.94 13.9199C148.629 14.4831 148.19 14.9651 147.658 15.3267C147.12 15.6941 146.506 15.9756 145.814 16.1723C145.122 16.369 144.394 16.4673 143.63 16.4673H137.329V1.05772ZM160.914 1.82381H154.162V7.32425H159.814V8.09034H154.162V15.7012H160.914V16.4673H152.438V1.05772H160.914V1.82381ZM172.48 1.47757V2.61797C172.434 2.58755 172.376 2.55026 172.304 2.50452C172.232 2.45938 172.072 2.37988 171.825 2.26624C171.577 2.1529 171.325 2.05067 171.068 1.95984C170.811 1.86935 170.489 1.78789 170.102 1.71586C169.724 1.64506 169.339 1.60905 168.954 1.6083C167.936 1.6083 167.049 1.78632 166.394 2.28567C164.54 3.69812 165.796 4.87248 165.874 4.98142C165.951 5.09075 166.097 5.22795 166.311 5.39361C166.478 5.52255 166.645 5.65236 166.811 5.78304C166.929 5.87686 167.155 6.02309 167.49 6.22173L168.229 6.66022C168.387 6.75366 168.68 6.92678 169.106 7.17959L170.038 7.73232C170.233 7.84774 170.522 8.01929 170.904 8.2456C171.286 8.4727 171.567 8.6525 171.745 8.78577C171.924 8.91885 172.161 9.09845 172.455 9.32319C172.75 9.54755 172.966 9.7401 173.105 9.90027C173.243 10.0604 173.408 10.2565 173.6 10.4887C173.792 10.7213 173.931 10.9404 174.016 11.1463C174.101 11.352 174.174 11.5808 174.237 11.8321C174.299 12.0835 174.331 12.3424 174.331 12.609C174.331 13.1845 174.204 13.7042 173.952 14.1694C173.7 14.6346 173.373 15.0187 172.973 15.3214C172.572 15.6243 172.103 15.8773 171.568 16.0814C171.046 16.2819 170.505 16.4283 169.954 16.5183C169.408 16.6057 168.857 16.6494 168.305 16.6491C167.747 16.6491 167.193 16.6018 166.644 16.5071C166.094 16.4125 165.628 16.2971 165.246 16.1609C164.863 16.0247 164.523 15.8889 164.226 15.7522C163.928 15.616 163.708 15.4988 163.564 15.4009L163.334 15.2647V14.0556C163.388 14.109 163.467 14.1753 163.57 14.2546C163.674 14.3337 163.897 14.4795 164.239 14.6913C164.581 14.9025 164.937 15.0883 165.306 15.2472C165.676 15.4062 166.139 15.552 166.698 15.6845C167.251 15.8161 167.818 15.8827 168.386 15.8828C169.62 15.8828 170.615 15.6068 171.372 15.0543C173.057 13.7992 172.34 12.0505 171.649 11.331C171.078 10.7221 170.089 9.99782 168.686 9.15753C168.151 8.82346 167.756 8.5781 167.503 8.4201L166.479 7.7808C166.049 7.51268 165.732 7.2952 165.529 7.12856C165.327 6.96211 165.09 6.75012 164.82 6.49299C164.55 6.23606 164.354 6.00346 164.232 5.79501C164.103 5.56989 163.997 5.33237 163.915 5.08604C163.826 4.82679 163.78 4.55461 163.78 4.28049C163.78 3.72108 163.933 3.21566 164.239 2.76519C164.545 2.31511 164.951 1.95454 165.455 1.68171C165.959 1.40985 166.516 1.2016 167.123 1.05772C167.741 0.912913 168.373 0.84065 169.008 0.842399C169.575 0.842399 170.149 0.895003 170.73 1.0006C171.311 1.10718 171.75 1.21279 172.047 1.31858L172.48 1.47757ZM104.36 8.60362V8.59773H100.1V9.27471H103.387V15.2107C102.252 15.884 100.849 15.996 99.1769 15.996C98.3074 15.996 97.4885 15.8072 96.7204 15.4288C95.9528 15.0509 95.2911 14.5269 94.7352 13.8573C94.179 13.188 93.7381 12.5988 93.4129 11.6417C93.0872 10.6854 92.9245 9.87436 92.9245 8.76281C92.9245 6.53107 93.5246 4.91704 94.7235 3.472C95.9228 2.02736 97.4067 1.30465 99.1771 1.30465C100.146 1.30465 101.076 1.45775 101.969 1.76414C102.861 2.07074 103.621 2.50354 104.249 3.06354V2.03344C102.797 1.18609 101.106 0.762512 99.1771 0.762512C98.0654 0.762512 97.0062 0.968609 95.9999 1.3812C94.9941 1.79378 94.126 2.35319 93.3958 3.0604C92.6662 3.7678 92.0874 4.61692 91.6599 5.60756C91.232 6.59898 91.0184 7.65028 91.0184 8.76261C91.0184 10.2449 91.3817 11.6009 92.1078 12.8302C92.8344 14.0595 93.8217 15.0221 95.0697 15.7179C96.3179 16.4141 97.6869 16.7621 99.1771 16.7621C101.553 16.7621 103.527 16.1986 105.101 15.0713V8.60362H104.36ZM121.748 13.8632C122.899 15.2855 124.404 15.996 126.265 15.996C128.126 15.996 129.631 15.2855 130.781 13.8632C131.931 12.4411 132.506 11.0395 132.506 8.76281C132.506 6.50104 131.931 5.10311 130.781 3.67339C129.631 2.24347 128.126 1.529 126.265 1.529C124.404 1.529 122.899 2.24347 121.748 3.67339C120.598 5.10311 120.024 6.50104 120.024 8.76281C120.024 11.0397 120.598 12.4411 121.748 13.8632ZM134.401 8.76281C134.401 9.89732 134.187 10.9637 133.76 11.9626C133.332 12.9611 132.756 13.8085 132.029 14.5045C131.303 15.2003 130.439 15.7505 129.436 16.1552C128.434 16.5598 127.377 16.7623 126.265 16.7623C125.153 16.7623 124.096 16.5598 123.093 16.1552C122.091 15.7505 121.225 15.2003 120.495 14.5045C119.765 13.8085 119.186 12.9611 118.758 11.9626C118.331 10.9637 118.117 9.89713 118.117 8.76281C118.117 7.28735 118.481 5.93535 119.207 4.70623C119.933 3.47652 120.921 2.51218 122.168 1.81263C123.417 1.11268 124.782 0.762708 126.265 0.762708C127.377 0.762708 128.434 0.969198 129.437 1.381C130.439 1.79378 131.303 2.35319 132.029 3.0604C132.756 3.7678 133.332 4.61692 133.76 5.60815C134.187 6.59938 134.401 7.65067 134.401 8.76281ZM36.1754 16.4673V1.05792H37.9001V15.7014H43.8465V16.4675L36.1754 16.4673ZM48.4994 1.82381V15.701H50.7007C51.586 15.701 52.4235 15.5255 53.2139 15.1736C53.9961 14.828 54.7005 14.3283 55.2851 13.7042C55.8752 13.0761 56.3439 12.5195 56.6925 11.5848C57.0399 10.6509 57.2142 9.85924 57.2142 8.76261C57.2142 7.66578 57.0399 6.87417 56.6925 5.93947C56.3439 5.00576 55.8752 4.4489 55.2851 3.8208C54.7005 3.1968 53.9961 2.69706 53.2139 2.35142C52.4235 1.99949 51.586 1.82381 50.7007 1.82381H48.4994ZM50.7459 16.4673H46.7747V1.05792H50.7459C52.2592 1.05792 53.6473 1.38316 54.9108 2.03344C56.1735 2.68412 57.1804 3.60155 57.9289 4.78533C58.6777 5.96911 59.0522 7.295 59.0522 8.76261C59.0522 10.2302 58.6777 11.5561 57.9289 12.7399C57.1804 13.9241 56.1735 14.8409 54.9108 15.4912C53.6473 16.1425 52.259 16.4673 50.7459 16.4673ZM70.36 1.82381H63.6085V7.77217H69.2599V8.53845H63.6085V15.7012H70.3602V16.4673H61.8836V1.05792H70.3602V1.82401M73.1119 16.4675H73.8778V4.42731L83.7762 16.7284V1.05792H83.0101V13.5464L73.1119 0.796862V16.4675ZM20.8779 13.8632C22.0281 15.2855 23.5336 15.996 25.3942 15.996C27.2553 15.996 28.7602 15.2855 29.9105 13.8632C31.0601 12.4411 31.6354 11.0399 31.6354 8.76281C31.6354 6.50104 31.0601 5.10311 29.9105 3.67339C28.7602 2.24347 27.2553 1.529 25.394 1.529C23.5336 1.529 22.0281 2.24347 20.8779 3.67339C19.7277 5.10311 19.1534 6.50104 19.1534 8.76281C19.1534 11.0397 19.7277 12.4411 20.8779 13.8632ZM33.5301 8.76281C33.5301 9.89732 33.3165 10.9637 32.8888 11.9626C32.4615 12.9611 31.8851 13.8085 31.1588 14.5045C30.4322 15.2003 29.5681 15.7505 28.5657 16.1552C27.5633 16.5598 26.5065 16.7623 25.3942 16.7623C24.2822 16.7623 23.2249 16.5598 22.2224 16.1552C21.2202 15.7505 20.3542 15.2003 19.6242 14.5045C18.8941 13.8085 18.3156 12.9611 17.8877 11.9626C17.4604 10.9637 17.2471 9.89713 17.2471 8.76281C17.2471 7.28735 17.6102 5.93535 18.3362 4.70584C19.0625 3.47652 20.0496 2.51218 21.2981 1.81263C22.5461 1.11268 23.9119 0.762708 25.3942 0.762708C26.5065 0.762708 27.5633 0.969198 28.5657 1.381C29.5681 1.79378 30.4324 2.35319 31.1586 3.0604C31.8849 3.7678 32.4615 4.61692 32.8888 5.60815C33.3165 6.59938 33.5301 7.65067 33.5301 8.76281ZM13.8058 8.60382V8.59793H9.5463V9.27471H12.8334V15.2109C11.6979 15.8841 10.2951 15.996 8.62318 15.996C7.75325 15.996 6.93456 15.8074 6.16631 15.429C5.39864 15.0507 4.73697 14.527 4.1811 13.8573C3.62483 13.188 3.18398 12.5988 2.85874 11.6419C2.53331 10.6856 2.37078 9.87436 2.37078 8.76281C2.37078 6.53107 2.97043 4.91704 4.16932 3.4722C5.36861 2.02756 6.85251 1.30465 8.62298 1.30465C9.59144 1.30465 10.5216 1.45775 11.4145 1.76434C12.3072 2.07093 13.0672 2.50354 13.6953 3.06373V2.03344C12.2428 1.18648 10.5522 0.762905 8.62298 0.762905C7.51124 0.762905 6.45209 0.969002 5.44575 1.38159C4.44019 1.79398 3.57203 2.35358 2.84167 3.06059C2.11208 3.76819 1.53324 4.61672 1.10574 5.60795C0.677646 6.59898 0.464287 7.65047 0.464287 8.76281C0.464287 10.2453 0.82741 11.6011 1.55346 12.8306C2.28049 14.0599 3.2674 15.0223 4.51537 15.7183C5.76373 16.4145 7.13261 16.7625 8.62279 16.7625C10.9984 16.7625 12.9724 16.1988 14.5462 15.0717V8.60382H13.8058Z" fill="white"/>
</svg>