<svg width="82" height="26" xmlns="http://www.w3.org/2000/svg" viewBox="0 0 82 26" fill="white">
  <g clip-path="url(#clip0_1_106)">
    <path fill-rule="evenodd" clip-rule="evenodd" d="M21.4704 0V3.33623L4.05652 3.32862L3.857 3.5021L3.83623 14.8779L4.0021 15.0439H21.4704V18.38H4.04337C4.04337 18.38 2.24067 18.2143 1.37033 17.1366C0.5 16.0591 0.5 14.9404 0.5 14.9404V3.37763C0.5 3.37763 0.525021 1.9478 1.55657 1.03607C2.66551 0.0571365 3.44273 0.0571366 3.44273 0.0571366L21.4704 0Z" fill="white"/>
    <path fill-rule="evenodd" clip-rule="evenodd" d="M8.63372 7.62576V10.9618H21.7193L21.8957 11.1274L21.9062 22.5141L21.7818 22.6488H8.75805L8.73741 18.7844L5.40118 18.7741V22.7004C5.40118 22.7004 5.48398 23.9541 6.13712 24.804C6.78897 25.6534 7.95001 25.9855 8.2918 25.9956C8.63372 26.0055 25.2318 25.9956 25.2318 25.9956V10.7445C25.2318 10.7445 25.2421 9.85331 24.2991 8.7654C23.3568 7.67774 22.2581 7.65672 22.1235 7.62576C21.9886 7.59481 8.63372 7.62576 8.63372 7.62576Z" fill="white"/>
    <path fill-rule="evenodd" clip-rule="evenodd" d="M32.7556 7.90763C32.7556 6.00446 31.6118 4.83025 30.1742 4.83025C29.1821 4.83025 28.018 5.35661 28.018 7.4824C28.018 9.25389 29.0303 10.6511 30.7107 10.6511C31.3383 10.6511 32.7556 10.3574 32.7556 7.90763ZM26.7019 7.74564C26.7019 6.27776 27.7345 4.37445 30.4374 4.37445C32.6848 4.37445 34.0817 5.61985 34.0817 7.59383C34.0817 9.56795 32.6443 11.1168 30.3464 11.1168C27.7547 11.1168 26.7019 9.2744 26.7019 7.74564Z" fill="white"/>
    <path fill-rule="evenodd" clip-rule="evenodd" d="M36.3495 9.83103C36.3696 10.4991 36.4812 10.7016 36.6531 10.7624C36.8049 10.8129 36.9771 10.823 37.1188 10.823C37.2201 10.823 37.2708 10.8636 37.2708 10.9142C37.2708 10.985 37.1898 11.0052 37.0683 11.0052C36.4911 11.0052 36.0761 10.9749 35.9142 10.9749C35.8332 10.9749 35.408 11.0052 34.9523 11.0052C34.831 11.0052 34.75 10.9952 34.75 10.9142C34.75 10.8636 34.8107 10.823 34.8918 10.823C35.0132 10.823 35.175 10.8129 35.2967 10.7828C35.5295 10.7219 35.5599 10.4891 35.57 9.73997L35.6508 4.63779C35.6508 4.46561 35.7117 4.34424 35.8028 4.34424C35.9142 4.34424 36.0357 4.4758 36.1876 4.6276C36.2987 4.73904 37.635 6.10554 38.9308 7.37106C39.5383 7.96835 40.7227 9.18331 40.8542 9.30455H40.8947L40.8038 5.47807C40.7936 4.95172 40.7126 4.79979 40.5001 4.71866C40.3683 4.6681 40.1558 4.6681 40.0342 4.6681C39.923 4.6681 39.8926 4.6276 39.8926 4.57704C39.8926 4.50624 39.9837 4.49618 40.1152 4.49618C40.5811 4.49618 41.0566 4.5163 41.249 4.5163C41.3504 4.5163 41.6843 4.49618 42.1196 4.49618C42.241 4.49618 42.3224 4.50624 42.3224 4.57704C42.3224 4.6276 42.2716 4.6681 42.1703 4.6681C42.079 4.6681 42.0083 4.6681 41.8971 4.69841C41.654 4.76935 41.5832 4.92128 41.573 5.40714L41.4718 10.8333C41.4718 11.0256 41.4011 11.1066 41.33 11.1066C41.1782 11.1066 41.0566 11.0154 40.9656 10.9245C40.4088 10.4081 39.2953 9.34505 38.364 8.44414C37.392 7.51281 36.4507 6.47003 36.2785 6.31823H36.2481L36.3495 9.83103Z" fill="white"/>
    <path fill-rule="evenodd" clip-rule="evenodd" d="M45.5413 5.02254L44.2152 5.05285C43.699 5.06291 43.4865 5.12379 43.3548 5.31596C43.2637 5.43759 43.223 5.5489 43.2028 5.60964C43.1827 5.68071 43.1625 5.72095 43.1017 5.72095C43.0408 5.72095 43.0206 5.67039 43.0206 5.57921C43.0206 5.43759 43.1927 4.6075 43.213 4.53656C43.2332 4.42512 43.2637 4.37457 43.314 4.37457C43.3851 4.37457 43.4761 4.44537 43.699 4.47581C43.9621 4.50625 44.2962 4.51631 44.5899 4.51631H48.2039C48.4873 4.51631 48.6793 4.49619 48.8114 4.47581C48.9526 4.45556 49.0237 4.43531 49.0541 4.43531C49.1147 4.43531 49.1248 4.48587 49.1248 4.61756C49.1248 4.7998 49.1047 5.43759 49.1047 5.6602C49.0945 5.75139 49.0744 5.80208 49.0237 5.80208C48.9526 5.80208 48.9325 5.76145 48.9224 5.62989L48.9124 5.53871C48.892 5.31596 48.6592 5.05285 47.8595 5.04279L46.7358 5.02254V8.50491C46.7358 9.2945 46.746 9.97279 46.7863 10.3473C46.8169 10.5903 46.8674 10.7523 47.1307 10.7928C47.2523 10.813 47.4547 10.8231 47.5861 10.8231C47.6874 10.8231 47.728 10.8737 47.728 10.9143C47.728 10.9749 47.657 11.0054 47.5558 11.0054C46.9687 11.0054 46.3715 10.9749 46.1184 10.9749C45.9159 10.9749 45.3084 11.0054 44.9541 11.0054C44.8429 11.0054 44.7819 10.9749 44.7819 10.9143C44.7819 10.8737 44.8126 10.8231 44.9236 10.8231C45.0552 10.8231 45.1668 10.813 45.2377 10.7928C45.4198 10.7523 45.4704 10.5903 45.5008 10.3371C45.5413 9.97279 45.5413 9.2945 45.5413 8.50491V5.02254Z" fill="white"/>
    <path fill-rule="evenodd" clip-rule="evenodd" d="M52.4961 8.36317C52.5363 8.36317 52.5467 8.34292 52.5363 8.31249L51.6962 6.12595C51.6863 6.09551 51.6763 6.04482 51.6558 6.04482C51.6254 6.04482 51.6153 6.09551 51.6053 6.12595L50.7447 8.3023C50.7245 8.34292 50.7447 8.36317 50.775 8.36317H52.4961ZM50.5928 8.83884C50.5424 8.83884 50.5319 8.84916 50.5118 8.89971L50.036 10.0537C49.9449 10.2664 49.9044 10.4789 49.9044 10.5799C49.9044 10.732 49.9856 10.823 50.2589 10.823H50.3906C50.5016 10.823 50.522 10.8637 50.522 10.9142C50.522 10.985 50.4716 11.0053 50.3804 11.0053C50.0867 11.0053 49.6716 10.975 49.3883 10.975C49.2971 10.975 48.8214 11.0053 48.3557 11.0053C48.2443 11.0053 48.1938 10.985 48.1938 10.9142C48.1938 10.8637 48.224 10.823 48.2951 10.823C48.3759 10.823 48.4771 10.813 48.5581 10.813C48.963 10.7522 49.115 10.489 49.2971 10.0537L51.6254 4.63782C51.7269 4.3947 51.7977 4.29358 51.8885 4.29358C52.0202 4.29358 52.0611 4.37445 52.1517 4.56688C52.3644 5.0428 53.8525 8.56554 54.4195 9.87142C54.7636 10.651 55.0168 10.7624 55.1787 10.7929C55.3102 10.813 55.4115 10.823 55.513 10.823C55.594 10.823 55.6342 10.8535 55.6342 10.9142C55.6342 10.985 55.5837 11.0053 55.2496 11.0053C54.9358 11.0053 54.288 11.0053 53.5387 10.985C53.3767 10.975 53.2755 10.975 53.2755 10.9142C53.2755 10.8637 53.2956 10.8332 53.3868 10.823C53.4477 10.813 53.5083 10.732 53.4678 10.6307L52.7795 8.89971C52.7593 8.84916 52.729 8.83884 52.6884 8.83884H50.5928Z" fill="white"/>
    <path fill-rule="evenodd" clip-rule="evenodd" d="M56.6567 6.98637C56.6567 5.68061 56.6567 5.43749 56.6464 5.16419C56.6263 4.87076 56.5351 4.76939 56.3429 4.70864C56.2418 4.6782 56.1304 4.66801 56.0191 4.66801C55.9279 4.66801 55.8772 4.64789 55.8772 4.5669C55.8772 4.51634 55.948 4.49609 56.0897 4.49609C56.4238 4.49609 57.0313 4.51634 57.2843 4.51634C57.5072 4.51634 58.084 4.49609 58.4283 4.49609C58.5398 4.49609 58.6105 4.51634 58.6105 4.5669C58.6105 4.64789 58.5599 4.66801 58.4687 4.66801C58.3778 4.66801 58.3067 4.6782 58.2056 4.69845C57.9626 4.73895 57.8918 4.86058 57.8714 5.16419C57.8513 5.43749 57.8513 5.68061 57.8513 6.98637V8.5048C57.8513 9.33503 57.8513 10.0234 57.8918 10.3878C57.9221 10.6207 57.9827 10.7522 58.2458 10.7929C58.3672 10.813 58.57 10.8231 58.7016 10.8231C58.8029 10.8231 58.8431 10.8737 58.8431 10.9142C58.8431 10.975 58.7724 11.0053 58.6712 11.0053C58.084 11.0053 57.4765 10.975 57.2338 10.975C57.0313 10.975 56.4238 11.0053 56.0695 11.0053C55.9582 11.0053 55.8974 10.975 55.8974 10.9142C55.8974 10.8737 55.9279 10.8231 56.0393 10.8231C56.1707 10.8231 56.2722 10.813 56.353 10.7929C56.5351 10.7522 56.5859 10.6308 56.6162 10.3777C56.6567 10.0234 56.6567 9.33503 56.6567 8.5048V6.98637Z" fill="white"/>
    <path fill-rule="evenodd" clip-rule="evenodd" d="M61.3844 9.83103C61.4045 10.4991 61.5159 10.7016 61.6879 10.7624C61.8398 10.8129 62.012 10.823 62.1536 10.823C62.255 10.823 62.3057 10.8636 62.3057 10.9142C62.3057 10.985 62.2245 11.0052 62.1029 11.0052C61.5263 11.0052 61.1108 10.9749 60.9491 10.9749C60.8681 10.9749 60.4427 11.0052 59.9872 11.0052C59.8659 11.0052 59.785 10.9952 59.785 10.9142C59.785 10.8636 59.8453 10.823 59.9264 10.823C60.0479 10.823 60.2101 10.8129 60.3316 10.7828C60.5644 10.7219 60.5945 10.4891 60.605 9.73997L60.6857 4.63779C60.6857 4.46561 60.7465 4.34424 60.8377 4.34424C60.9491 4.34424 61.0703 4.4758 61.2224 4.6276C61.3336 4.73904 62.6699 6.10554 63.966 7.37106C64.5731 7.96835 65.7575 9.18331 65.889 9.30455H65.9296L65.8385 5.47807C65.8283 4.95172 65.7474 4.79979 65.5347 4.71866C65.403 4.6681 65.1906 4.6681 65.0689 4.6681C64.9578 4.6681 64.9274 4.6276 64.9274 4.57704C64.9274 4.50624 65.0184 4.49618 65.1501 4.49618C65.6157 4.49618 66.0916 4.5163 66.2839 4.5163C66.3851 4.5163 66.7192 4.49618 67.1543 4.49618C67.276 4.49618 67.357 4.50624 67.357 4.57704C67.357 4.6276 67.3063 4.6681 67.2052 4.6681C67.114 4.6681 67.0432 4.6681 66.9319 4.69841C66.6889 4.76935 66.6179 4.92128 66.6079 5.40714L66.5067 10.8333C66.5067 11.0256 66.4358 11.1066 66.3648 11.1066C66.213 11.1066 66.0916 11.0154 66.0005 10.9245C65.4437 10.4081 64.3302 9.34505 63.3987 8.44414C62.4269 7.51281 61.4855 6.47003 61.3133 6.31823H61.2829L61.3844 9.83103Z" fill="white"/>
    <path fill-rule="evenodd" clip-rule="evenodd" d="M69.3917 6.98639C69.3917 5.68063 69.3917 5.43751 69.3816 5.16421C69.3613 4.87078 69.2804 4.77947 68.9968 4.69847C68.9259 4.67822 68.7742 4.66803 68.6425 4.66803C68.5515 4.66803 68.491 4.63785 68.491 4.57698C68.491 4.51636 68.5615 4.49611 68.6933 4.49611C69.1587 4.49611 69.7258 4.51636 69.9788 4.51636C70.2621 4.51636 72.2364 4.52642 72.4085 4.51636C72.5704 4.5063 72.7121 4.47573 72.7832 4.46567C72.8336 4.45561 72.8843 4.42517 72.9247 4.42517C72.9754 4.42517 72.9854 4.46567 72.9854 4.5063C72.9854 4.56692 72.9349 4.66803 72.9145 5.06296C72.9044 5.15415 72.8843 5.52856 72.8639 5.62981C72.8537 5.67044 72.8336 5.77156 72.7627 5.77156C72.7022 5.77156 72.6919 5.73119 72.6919 5.66025C72.6919 5.5995 72.6819 5.44757 72.6311 5.34645C72.5602 5.19452 72.4895 5.07302 72.044 5.03265C71.8921 5.01227 70.8293 4.99202 70.6471 4.99202C70.6063 4.99202 70.5863 5.02246 70.5863 5.07302V7.19894C70.5863 7.24963 70.5964 7.29 70.6471 7.29C70.8496 7.29 72.0037 7.29 72.2058 7.26988C72.4186 7.24963 72.5501 7.22938 72.6311 7.13832C72.7022 7.07757 72.7322 7.02676 72.7729 7.02676C72.8135 7.02676 72.8438 7.06738 72.8438 7.11807C72.8438 7.16863 72.8234 7.3105 72.7729 7.74567C72.7527 7.91772 72.7322 8.26209 72.7322 8.32258C72.7322 8.39352 72.7223 8.51501 72.6413 8.51501C72.5806 8.51501 72.5602 8.4847 72.5602 8.44421C72.5501 8.35302 72.5501 8.24158 72.53 8.13041C72.4792 7.95822 72.368 7.82667 72.0337 7.79623C71.872 7.77598 70.8594 7.75573 70.6369 7.75573C70.5964 7.75573 70.5863 7.79623 70.5863 7.84692V8.53526C70.5863 8.82881 70.5761 9.55766 70.5863 9.81071C70.6063 10.398 70.8799 10.5296 71.791 10.5296C72.0239 10.5296 72.3983 10.5194 72.6311 10.4182C72.8537 10.317 72.9552 10.1347 73.0162 9.7804C73.0364 9.68934 73.0564 9.64885 73.117 9.64885C73.1879 9.64885 73.198 9.76028 73.198 9.85121C73.198 10.0437 73.127 10.6308 73.0766 10.8029C73.0162 11.0256 72.9349 11.0256 72.6007 11.0256C71.9326 11.0256 71.3963 11.0154 70.9609 10.9952C70.5256 10.9851 70.1914 10.975 69.9284 10.975C69.8268 10.975 69.6347 10.9851 69.4218 10.9851C69.2096 10.9952 68.9868 11.0053 68.8045 11.0053C68.6933 11.0053 68.6325 10.975 68.6325 10.9142C68.6325 10.8737 68.663 10.8231 68.7742 10.8231C68.9055 10.8231 69.0071 10.813 69.088 10.7929C69.2705 10.7522 69.3207 10.5903 69.3514 10.3371C69.3917 9.97271 69.3917 9.29455 69.3917 8.50482V6.98639Z" fill="white"/>
    <path fill-rule="evenodd" clip-rule="evenodd" d="M76.2047 7.65459C76.2047 7.74565 76.2251 7.77596 76.2857 7.8064C76.4783 7.86714 76.7412 7.88752 76.9639 7.88752C77.3185 7.88752 77.4398 7.85708 77.5916 7.74565C77.8648 7.55334 78.1686 7.17867 78.1686 6.47007C78.1686 5.25524 77.3387 4.94144 76.8122 4.94144C76.5893 4.94144 76.3768 4.95176 76.2857 4.97188C76.2251 4.992 76.2047 5.02257 76.2047 5.09338V7.65459ZM75.071 6.98636C75.071 5.68061 75.071 5.43761 75.0608 5.16418C75.0404 4.87076 74.9598 4.77945 74.6761 4.69845C74.6053 4.67833 74.4533 4.66814 74.3218 4.66814C74.2305 4.66814 74.17 4.63783 74.17 4.57708C74.17 4.51634 74.2408 4.49622 74.3725 4.49622C74.8381 4.49622 75.4051 4.51634 75.5873 4.51634C75.8909 4.51634 76.7008 4.49622 76.9738 4.49622C77.5409 4.49622 78.1889 4.54665 78.6644 4.86057C78.9177 5.03263 79.2921 5.46792 79.2921 6.04497C79.2921 6.68275 78.9279 7.2496 78.0572 7.94801C78.8469 8.91998 79.4746 9.69938 80.0112 10.2359C80.5072 10.7319 80.8206 10.7726 80.9626 10.8029C81.0537 10.823 81.1043 10.823 81.1753 10.823C81.246 10.823 81.2866 10.8737 81.2866 10.9142C81.2866 10.985 81.2259 11.0052 81.1144 11.0052H80.2644C79.7682 11.0052 79.5252 10.9547 79.2921 10.8333C78.9075 10.6408 78.5736 10.2359 78.0776 9.56796C77.723 9.10222 77.3486 8.52518 77.2373 8.3935C77.1866 8.34294 77.136 8.33275 77.0753 8.33275L76.2756 8.31263C76.235 8.31263 76.2047 8.33275 76.2047 8.38344V8.50493C76.2047 9.30459 76.2148 9.97281 76.2553 10.3372C76.2857 10.5903 76.3262 10.7523 76.5996 10.7928C76.7312 10.8129 76.9235 10.823 77.0348 10.823C77.1056 10.823 77.1464 10.8737 77.1464 10.9142C77.1464 10.9749 77.0753 11.0052 76.9639 11.0052C76.4478 11.0052 75.7088 10.9749 75.5771 10.9749C75.4051 10.9749 74.8381 11.0052 74.4838 11.0052C74.3725 11.0052 74.3116 10.9749 74.3116 10.9142C74.3116 10.8737 74.342 10.823 74.4533 10.823C74.585 10.823 74.6864 10.8129 74.7671 10.7928C74.9495 10.7523 75.0001 10.5903 75.0305 10.3372C75.071 9.97281 75.071 9.29453 75.071 8.50493V6.98636Z" fill="white"/>
    <path fill-rule="evenodd" clip-rule="evenodd" d="M29.7799 17.6715C29.7799 18.7749 29.7799 19.3215 29.9722 19.4835C30.124 19.6151 30.4682 19.6656 31.1566 19.6656C31.6324 19.6656 31.9766 19.6557 32.1993 19.4228C32.3106 19.3113 32.4017 19.0685 32.4219 18.9064C32.4321 18.8257 32.4524 18.7749 32.5232 18.7749C32.5841 18.7749 32.6042 18.8661 32.6042 18.9674C32.6042 19.0685 32.5434 19.7063 32.4728 19.9593C32.412 20.1516 32.3714 20.1923 31.9057 20.1923C31.268 20.1923 30.7517 20.1819 30.3063 20.1618C29.8607 20.1516 29.4863 20.1416 29.1217 20.1416C29.0206 20.1416 28.8283 20.1516 28.6157 20.1516C28.403 20.1618 28.1804 20.172 27.9982 20.172C27.8869 20.172 27.8261 20.1416 27.8261 20.0808C27.8261 20.0403 27.8564 19.9899 27.9677 19.9899C28.0994 19.9899 28.2007 19.9797 28.2815 19.9593C28.4638 19.9188 28.5145 19.7568 28.5448 19.5036C28.5854 19.1393 28.5854 18.461 28.5854 17.6715V16.1531C28.5854 14.8471 28.5854 14.6042 28.5751 14.3309C28.5548 14.0372 28.474 13.9461 28.1904 13.8652C28.1196 13.8448 28.0084 13.8347 27.8969 13.8347C27.7957 13.8347 27.7451 13.8044 27.7451 13.7438C27.7451 13.6829 27.8058 13.6627 27.9373 13.6627C28.3525 13.6627 28.9195 13.6829 29.1623 13.6829C29.3749 13.6829 30.1037 13.6627 30.448 13.6627C30.5796 13.6627 30.6404 13.6829 30.6404 13.7438C30.6404 13.8044 30.5897 13.8347 30.4784 13.8347C30.377 13.8347 30.2354 13.8448 30.1343 13.8652C29.8912 13.9058 29.8204 14.0272 29.8002 14.3309C29.7799 14.6042 29.7799 14.8471 29.7799 16.1531V17.6715Z" fill="white"/>
    <path fill-rule="evenodd" clip-rule="evenodd" d="M35.3679 17.6715C35.3679 18.7749 35.3679 19.3215 35.5602 19.4835C35.712 19.6151 36.0561 19.6656 36.7446 19.6656C37.2203 19.6656 37.5646 19.6557 37.7872 19.4228C37.8986 19.3113 37.9898 19.0685 38.0099 18.9064C38.0201 18.8257 38.0404 18.7749 38.1112 18.7749C38.1719 18.7749 38.1921 18.8661 38.1921 18.9674C38.1921 19.0685 38.1314 19.7063 38.0606 19.9593C37.9999 20.1516 37.9594 20.1923 37.4936 20.1923C36.856 20.1923 36.3397 20.1819 35.8942 20.1618C35.4487 20.1516 35.0743 20.1416 34.7098 20.1416C34.6086 20.1416 34.4161 20.1516 34.2037 20.1516C33.991 20.1618 33.7684 20.172 33.5862 20.172C33.4747 20.172 33.4141 20.1416 33.4141 20.0808C33.4141 20.0403 33.4443 19.9899 33.5557 19.9899C33.6874 19.9899 33.7885 19.9797 33.8695 19.9593C34.0518 19.9188 34.1023 19.7568 34.1328 19.5036C34.1733 19.1393 34.1733 18.461 34.1733 17.6715V16.1531C34.1733 14.8471 34.1733 14.6042 34.1631 14.3309C34.1428 14.0372 34.062 13.9461 33.7784 13.8652C33.7077 13.8448 33.5962 13.8347 33.4849 13.8347C33.3837 13.8347 33.333 13.8044 33.333 13.7438C33.333 13.6829 33.3937 13.6627 33.5253 13.6627C33.9405 13.6627 34.5072 13.6829 34.7503 13.6829C34.9629 13.6829 35.6917 13.6627 36.036 13.6627C36.1675 13.6627 36.2283 13.6829 36.2283 13.7438C36.2283 13.8044 36.1776 13.8347 36.0663 13.8347C35.965 13.8347 35.8233 13.8448 35.722 13.8652C35.4792 13.9058 35.4084 14.0272 35.3881 14.3309C35.3679 14.6042 35.3679 14.8471 35.3679 16.1531V17.6715Z" fill="white"/>
    <path fill-rule="evenodd" clip-rule="evenodd" d="M39.7612 16.153C39.7612 14.847 39.7612 14.6042 39.751 14.3309C39.7309 14.0373 39.6397 13.9361 39.4473 13.8753C39.3463 13.8449 39.2347 13.8347 39.1235 13.8347C39.0323 13.8347 38.9818 13.8144 38.9818 13.7336C38.9818 13.683 39.0526 13.6626 39.1943 13.6626C39.5284 13.6626 40.1359 13.683 40.3889 13.683C40.6117 13.683 41.1886 13.6626 41.5327 13.6626C41.6441 13.6626 41.715 13.683 41.715 13.7336C41.715 13.8144 41.6645 13.8347 41.5733 13.8347C41.4822 13.8347 41.4113 13.8449 41.3102 13.8653C41.0672 13.9057 40.9964 14.0272 40.976 14.3309C40.9558 14.6042 40.9558 14.847 40.9558 16.153V17.6715C40.9558 18.5017 40.9558 19.1902 40.9964 19.5544C41.0266 19.7873 41.0873 19.9188 41.3506 19.9594C41.4722 19.9796 41.6744 19.9898 41.806 19.9898C41.9075 19.9898 41.9479 20.0404 41.9479 20.0808C41.9479 20.1416 41.877 20.1719 41.7758 20.1719C41.1886 20.1719 40.5812 20.1416 40.3384 20.1416C40.1359 20.1416 39.5284 20.1719 39.1741 20.1719C39.0626 20.1719 39.002 20.1416 39.002 20.0808C39.002 20.0404 39.0323 19.9898 39.1438 19.9898C39.2752 19.9898 39.3767 19.9796 39.4574 19.9594C39.6397 19.9188 39.6902 19.7975 39.7208 19.5445C39.7612 19.1902 39.7612 18.5017 39.7612 17.6715V16.153Z" fill="white"/>
    <path fill-rule="evenodd" clip-rule="evenodd" d="M46.1693 17.5298C46.2097 17.5298 46.2199 17.5096 46.2097 17.479L45.3695 15.2925C45.3594 15.2622 45.3494 15.2116 45.3289 15.2116C45.2987 15.2116 45.2885 15.2622 45.2784 15.2925L44.418 17.469C44.3978 17.5096 44.418 17.5298 44.4483 17.5298H46.1693ZM44.2661 18.0055C44.2157 18.0055 44.2053 18.0157 44.1851 18.0663L43.7096 19.2203C43.6183 19.4328 43.5777 19.6454 43.5777 19.7468C43.5777 19.8985 43.6589 19.9898 43.932 19.9898H44.0637C44.175 19.9898 44.1951 20.0303 44.1951 20.0807C44.1951 20.1517 44.1448 20.1719 44.0535 20.1719C43.7598 20.1719 43.3447 20.1416 43.0614 20.1416C42.9705 20.1416 42.4945 20.1719 42.0287 20.1719C41.9174 20.1719 41.8668 20.1517 41.8668 20.0807C41.8668 20.0303 41.8974 19.9898 41.9682 19.9898C42.0489 19.9898 42.1504 19.9796 42.2314 19.9796C42.6363 19.9187 42.7879 19.6556 42.9704 19.2203L45.2986 13.8044C45.4 13.5615 45.471 13.4603 45.5618 13.4603C45.6935 13.4603 45.7342 13.5411 45.8251 13.7336C46.0376 14.2093 47.5258 17.7322 48.0928 19.0381C48.437 19.8175 48.6902 19.9292 48.8519 19.9594C48.9835 19.9796 49.0847 19.9898 49.1861 19.9898C49.2671 19.9898 49.3073 20.02 49.3073 20.0807C49.3073 20.1517 49.257 20.1719 48.923 20.1719C48.609 20.1719 47.9611 20.1719 47.2118 20.1517C47.05 20.1416 46.9487 20.1416 46.9487 20.0807C46.9487 20.0303 46.969 19.9997 47.0602 19.9898C47.1208 19.9796 47.1817 19.8985 47.1412 19.7975L46.4527 18.0663C46.4324 18.0157 46.4023 18.0055 46.3615 18.0055H44.2661Z" fill="white"/>
    <path fill-rule="evenodd" clip-rule="evenodd" d="M50.836 18.9976C50.8561 19.6657 50.9677 19.8683 51.1396 19.9292C51.2916 19.9796 51.4638 19.9898 51.6054 19.9898C51.7067 19.9898 51.7573 20.0303 51.7573 20.0807C51.7573 20.1517 51.6763 20.1719 51.5549 20.1719C50.9779 20.1719 50.5629 20.1416 50.4007 20.1416C50.3197 20.1416 49.8946 20.1719 49.4392 20.1719C49.3176 20.1719 49.2366 20.1617 49.2366 20.0807C49.2366 20.0303 49.2973 19.9898 49.3783 19.9898C49.4997 19.9898 49.6617 19.9796 49.7833 19.9493C50.016 19.8885 50.0464 19.6557 50.0565 18.9064L50.1376 13.8043C50.1376 13.6324 50.1985 13.5109 50.2894 13.5109C50.4007 13.5109 50.5221 13.6423 50.674 13.7943C50.7853 13.9057 52.1218 15.2722 53.4174 16.5377C54.025 17.135 55.2091 18.3499 55.341 18.4712H55.3813L55.2902 14.6447C55.2802 14.1181 55.1992 13.9663 54.9867 13.8855C54.8549 13.8348 54.6425 13.8348 54.5209 13.8348C54.4094 13.8348 54.3791 13.7943 54.3791 13.7438C54.3791 13.6728 54.4705 13.6627 54.6019 13.6627C55.0679 13.6627 55.5433 13.683 55.7357 13.683C55.837 13.683 56.171 13.6627 56.6063 13.6627C56.7277 13.6627 56.8087 13.6728 56.8087 13.7438C56.8087 13.7943 56.7581 13.8348 56.657 13.8348C56.5657 13.8348 56.495 13.8348 56.3836 13.8652C56.1408 13.936 56.0695 14.088 56.0596 14.5738L55.9585 19.9998C55.9585 20.1923 55.8875 20.2733 55.8167 20.2733C55.6648 20.2733 55.5433 20.182 55.4523 20.091C54.8956 19.5747 53.7818 18.5117 52.8505 17.6107C51.8788 16.6795 50.9371 15.6367 50.7651 15.4849H50.7348L50.836 18.9976Z" fill="white"/>
    <path fill-rule="evenodd" clip-rule="evenodd" d="M58.8333 19.352C57.9528 18.6131 57.7199 17.641 57.7199 16.811C57.7199 16.2238 57.9122 15.2116 58.7625 14.4523C59.4104 13.8855 60.2608 13.5411 61.587 13.5411C62.1436 13.5411 62.4778 13.5817 62.8827 13.6324C63.2168 13.683 63.5104 13.7439 63.7735 13.774C63.875 13.7842 63.9051 13.8247 63.9051 13.8753C63.9051 13.9461 63.8849 14.0473 63.8648 14.3512C63.8443 14.6346 63.8443 15.1104 63.8343 15.2824C63.8241 15.4039 63.7939 15.4951 63.713 15.4951C63.6421 15.4951 63.6216 15.4242 63.6216 15.3129C63.6115 15.0394 63.5003 14.7358 63.2773 14.5129C62.9739 14.2194 62.3767 14.007 61.5567 14.007C60.7771 14.007 60.2811 14.1486 59.8764 14.4927C59.2182 15.0597 59.0561 15.8899 59.0561 16.73C59.0561 18.7748 60.6354 19.7469 61.8298 19.7469C62.6196 19.7469 63.0549 19.6861 63.4092 19.2913C63.561 19.1192 63.6823 18.8763 63.713 18.7141C63.7331 18.5825 63.7533 18.5422 63.8241 18.5422C63.8849 18.5422 63.9254 18.6232 63.9254 18.6938C63.9254 18.7954 63.8241 19.5444 63.7331 19.8379C63.6925 19.9898 63.6521 20.0303 63.5003 20.0909C63.146 20.2325 62.4678 20.2834 61.8905 20.2834C60.6756 20.2834 59.643 20.0303 58.8333 19.352Z" fill="white"/>
    <path fill-rule="evenodd" clip-rule="evenodd" d="M65.8285 16.153C65.8285 14.847 65.8285 14.6042 65.8183 14.3309C65.7981 14.0373 65.7174 13.9461 65.4337 13.8653C65.3631 13.8449 65.2111 13.8347 65.0794 13.8347C64.9882 13.8347 64.9275 13.8044 64.9275 13.7438C64.9275 13.683 64.9984 13.6626 65.1301 13.6626C65.5957 13.6626 66.1627 13.683 66.4158 13.683C66.699 13.683 68.6732 13.6931 68.8453 13.683C69.0073 13.6728 69.1492 13.6424 69.2198 13.6324C69.2705 13.6223 69.321 13.5918 69.3617 13.5918C69.4121 13.5918 69.4222 13.6324 69.4222 13.6728C69.4222 13.7336 69.3716 13.8347 69.3514 14.2296C69.3413 14.3207 69.321 14.6952 69.3007 14.7965C69.2906 14.8371 69.2705 14.9382 69.1997 14.9382C69.1386 14.9382 69.1289 14.8977 69.1289 14.8269C69.1289 14.766 69.1185 14.6142 69.0679 14.513C68.9971 14.3612 68.9262 14.2398 68.4807 14.1993C68.3291 14.1789 67.2661 14.1588 67.0839 14.1588C67.0432 14.1588 67.0231 14.1891 67.0231 14.2398V16.3656C67.0231 16.4163 67.033 16.4566 67.0839 16.4566C67.2862 16.4566 68.4404 16.4566 68.6427 16.4364C68.8553 16.4163 68.9872 16.396 69.0679 16.3048C69.1386 16.244 69.1691 16.1934 69.2098 16.1934C69.2503 16.1934 69.2805 16.234 69.2805 16.2846C69.2805 16.3353 69.2605 16.477 69.2098 16.9123C69.1895 17.0844 69.1691 17.4286 69.1691 17.4892C69.1691 17.56 69.159 17.6817 69.0781 17.6817C69.0173 17.6817 68.9971 17.6512 68.9971 17.6107C68.9872 17.5198 68.9872 17.4082 68.967 17.2969C68.9161 17.1249 68.8047 16.9932 68.4706 16.9629C68.3089 16.9426 67.2964 16.9225 67.0737 16.9225C67.033 16.9225 67.0231 16.9629 67.0231 17.0134V17.7019C67.0231 17.9953 67.0129 18.7244 67.0231 18.9774C67.0432 19.5645 67.3167 19.6963 68.228 19.6963C68.4606 19.6963 68.8352 19.6861 69.0679 19.5846C69.2906 19.4835 69.3918 19.3013 69.4526 18.9471C69.4729 18.8559 69.4933 18.8155 69.554 18.8155C69.6247 18.8155 69.635 18.9267 69.635 19.018C69.635 19.2102 69.5639 19.7975 69.5134 19.9694C69.4526 20.1922 69.3716 20.1922 69.0376 20.1922C68.3694 20.1922 67.833 20.1819 67.3977 20.1618C66.9622 20.1517 66.6282 20.1416 66.3649 20.1416C66.2638 20.1416 66.0715 20.1517 65.8588 20.1517C65.6464 20.1617 65.4235 20.1719 65.2412 20.1719C65.1301 20.1719 65.0692 20.1416 65.0692 20.0808C65.0692 20.0404 65.0997 19.9898 65.2111 19.9898C65.3428 19.9898 65.4438 19.9796 65.5248 19.9594C65.7073 19.9188 65.7576 19.7568 65.7883 19.5037C65.8285 19.1392 65.8285 18.4611 65.8285 17.6715V16.153Z" fill="white"/>
  </g>
  <defs>
    <clipPath id="clip0_1_106">
      <rect width="81" height="26" fill="white" transform="translate(0.5)"/>
    </clipPath>
  </defs>
</svg>