<svg width="123" height="36" xmlns="http://www.w3.org/2000/svg" viewBox="0 0 123 36" fill="white">
  <path d="M30.3945 18.2644C30.5189 18.2956 30.6122 18.3267 30.7056 18.3578V16.7478C30.6122 16.7167 30.5189 16.6544 30.3945 16.6233V18.2644Z" fill="white"/>
  <path d="M27.7811 16.6856L28.0922 14.9122L25.93 13.9089L26.4667 14.7333C25.1756 14.0411 23.5422 14.1344 22.3833 14.7644C21.4267 15.2856 20.3611 15.8378 20.0033 16.0244C21.7922 16.6078 23.4178 17.2456 24.3045 17.7044C24.3045 17.7044 21.6678 16.6 19.3733 16.6C17.8022 16.6 16.7056 17.1367 16.0133 17.5178C16.2933 19.3767 16.83 21.0178 17.4911 22.4411C18.0589 23.6389 18.72 24.6811 19.4667 25.5989V24.7744L20.5322 21.9044L21.5356 24.7744V25.56C21.7533 25.4356 22.01 25.3422 22.2278 25.21V19.9056H22.8578V19.12H25.8756V19.9056H26.5989V23.4444C26.8167 23.3511 27.1045 23.2889 27.3533 23.1956V19.4389C27.3533 19.0889 27.5089 18.7778 27.89 18.5833V16.8489L27.7967 16.7244V16.6856H27.7811Z" fill="white"/>
  <path d="M24.8022 21.6478C24.6778 21.6478 24.5845 21.7722 24.5845 21.8967V27.8622L25.0278 27.7378V21.8967C25.0278 21.7411 24.9345 21.6478 24.81 21.6478H24.8022Z" fill="white"/>
  <path d="M29.7956 18.1711C29.92 18.1711 30.0133 18.2022 30.1067 18.2022V16.5611C30.0133 16.53 29.92 16.4989 29.7956 16.4989V18.1711Z" fill="white"/>
  <path d="M28.0378 18.3656C28.1 18.3344 28.2245 18.3033 28.3489 18.2722V16.6311C28.2245 16.6622 28.1311 16.6933 28.0378 16.7556V18.3656Z" fill="white"/>
  <path d="M28.6289 18.2022C28.7222 18.2022 28.8156 18.1711 28.94 18.1711V16.4989C28.8467 16.53 28.7222 16.53 28.6289 16.5611V18.2022Z" fill="white"/>
  <path d="M29.1967 16.4678V18.14H29.57V16.4678H29.1967Z" fill="white"/>
  <path d="M24.5145 7.85L23.2311 9.14889H24.1411L24.5145 7.85Z" fill="white"/>
  <path d="M19.6767 10.0278C19.8011 10.0278 19.9256 9.99667 20.05 9.90333C20.1433 9.84111 20.2367 9.74778 20.2678 9.61556C20.2989 9.52222 20.2989 9.46 20.2678 9.36667C20.2056 9.24222 20.0811 9.07889 19.8556 8.86111C19.7311 8.95444 19.6067 9.04778 19.5445 9.14889C19.4511 9.24222 19.3889 9.36667 19.3578 9.49889C19.2956 9.65444 19.3267 9.78667 19.3889 9.88C19.4511 9.97333 19.5445 10.0356 19.6689 10.0356L19.6767 10.0278Z" fill="white"/>
  <path d="M15.78 14.7956C15.78 15.55 15.8111 16.25 15.9045 16.9422L18.2611 15.4878C18.6111 15.5889 18.9611 15.69 19.3033 15.7989L25.0433 12.6722L28.2011 14.2433L29.4378 7.24333L31.0945 16.6078C31.0945 16.6078 31.1022 16.6078 31.11 16.6156V16.6778L31.0167 16.7711V18.5056C31.2656 18.7544 31.4289 19.1044 31.4289 19.4544V22.1689C31.8722 22.0756 32.3078 22.0133 32.7822 21.9511C33.3811 20.59 33.8167 19.0811 34.0733 17.37L31.4367 16.2344L31.3433 15.76L34.1045 17.0822C34.1978 16.3589 34.26 15.5656 34.26 14.7489L34.3222 6.76111C28.1622 5.15111 21.9478 5.12 15.7878 6.69889V14.78L15.78 14.7956ZM24.9267 7.47667L24.4211 9.14889H24.7945L24.7011 9.43667H24.3589L24.1722 10.1289H23.8611L24.0478 9.43667H22.9511L23.0133 9.18778L24.7089 7.48444H24.9267V7.47667ZM21.1233 9.05556C21.1856 8.83778 21.31 8.61222 21.4656 8.39444C21.6211 8.17667 21.8078 8.01333 22.0333 7.82667C22.2511 7.67111 22.4456 7.53889 22.6322 7.50778C22.8189 7.44556 22.9433 7.41444 23.1067 7.41444H23.2311V7.47667L23.2 7.53889C23.0445 7.57 22.8889 7.60111 22.7567 7.63222C22.6322 7.69444 22.5078 7.75667 22.3833 7.85C22.2589 7.94333 22.1345 8.06778 22.0411 8.2C21.9478 8.32444 21.8233 8.48778 21.73 8.64333C21.9478 8.51889 22.1422 8.45667 22.3289 8.45667C22.5156 8.45667 22.64 8.51889 22.7022 8.67444C22.7956 8.79889 22.7956 8.99333 22.7333 9.21111C22.6711 9.42889 22.5467 9.62333 22.36 9.81C22.1422 10.0278 21.8856 10.1289 21.6367 10.1289C21.45 10.1289 21.3256 10.0667 21.2245 9.94222C21.0378 9.72444 21.0067 9.40556 21.1311 9.05556H21.1233ZM19.5211 8.38667C19.49 8.29333 19.49 8.16889 19.5211 8.06778C19.5833 7.91222 19.6767 7.74889 19.8322 7.62444C19.9878 7.5 20.1745 7.43778 20.4 7.43778C20.6256 7.43778 20.7422 7.5 20.8433 7.59333C20.9367 7.71778 20.9678 7.84222 20.9056 7.97444C20.8745 8.06778 20.8122 8.16111 20.7189 8.26222C20.6256 8.35556 20.4389 8.48 20.1822 8.61222C20.3378 8.76778 20.4622 8.93111 20.4933 9.02444C20.5556 9.14889 20.5556 9.27333 20.5245 9.43667C20.4622 9.62333 20.3689 9.78667 20.1822 9.91111C19.9956 10.0356 19.8089 10.0978 19.5833 10.0978C19.3345 10.0978 19.1711 10.0356 19.0778 9.88C19.0156 9.75556 18.9845 9.63111 19.0467 9.46778C19.0778 9.34333 19.14 9.25 19.2645 9.11778C19.42 9.05556 19.5756 8.93111 19.8011 8.79889C19.6456 8.64333 19.5522 8.48 19.5211 8.38667ZM17.8178 10.0278C17.9422 10.0278 18.0045 10.0278 18.0667 9.99667C18.0978 9.96556 18.1289 9.96556 18.16 9.93444C18.1911 9.90333 18.2222 9.81 18.2533 9.64667L18.6656 8.25444C18.7278 8.06778 18.7589 7.93556 18.7589 7.90444C18.7589 7.87333 18.7589 7.84222 18.7278 7.81111C18.6967 7.78 18.6967 7.78 18.6656 7.78C18.6345 7.78 18.5411 7.81111 18.4478 7.84222L18.4167 7.74889L19.14 7.43H19.2022L18.5722 9.60778C18.5411 9.76333 18.51 9.82556 18.51 9.89556C18.51 9.92667 18.5411 9.95778 18.5722 9.98889C18.6033 10.02 18.6656 10.02 18.79 10.02L18.7589 10.0822H17.7867L17.8178 10.02V10.0278Z" fill="white"/>
  <path d="M35.0689 5.29111C31.7089 4.43556 28.2556 4 24.8878 4C21.52 4 18.23 4.41222 14.9322 5.22889L14.0533 5.44667V14.6944C14.0845 17.7278 14.7145 20.5667 15.9356 23.0944C17.6311 26.5633 20.4622 29.4722 24.4211 31.6811L24.9889 32L25.5567 31.6811C29.4845 29.4722 32.3389 26.5711 34.0422 23.0944C35.2711 20.5356 35.8933 17.7278 35.9245 14.6944V5.51667L35.0767 5.29889L35.0689 5.29111ZM34.7889 14.7022C34.7578 17.86 34.0345 20.4811 33 22.6278C31.0245 26.7344 27.6878 29.1922 24.9889 30.7089C22.3211 29.1922 18.9922 26.7344 17.0089 22.6589C15.9745 20.5122 15.2511 17.8911 15.22 14.7333V6.36444C21.7222 4.72333 28.2867 4.75444 34.7889 6.39556V14.7022Z" fill="white"/>
  <path d="M23.76 21.6478C23.6356 21.6478 23.5422 21.7722 23.5422 21.8967V28.15L23.9856 28.0256V21.9044C23.9856 21.7489 23.8922 21.6556 23.7678 21.6556L23.76 21.6478Z" fill="white"/>
  <path d="M21.7533 10.0667C21.8467 10.0667 21.9711 10.0044 22.0956 9.91111C22.22 9.81778 22.2822 9.66222 22.3445 9.46778C22.4067 9.25 22.4067 9.05556 22.3756 8.9C22.3445 8.74444 22.2511 8.65111 22.0956 8.65111C22.0333 8.65111 22.0022 8.65111 21.94 8.68222C21.8778 8.68222 21.7845 8.74444 21.66 8.80667C21.5978 8.96222 21.5356 9.12556 21.5045 9.21889C21.4733 9.34333 21.4422 9.46778 21.4422 9.63111C21.4422 9.75556 21.4733 9.88 21.5356 9.98111C21.5667 10.0433 21.66 10.0744 21.7533 10.0744V10.0667Z" fill="white"/>
  <path d="M20.1822 8.57333C20.3689 8.44889 20.4933 8.32444 20.5556 8.25444C20.6178 8.16111 20.68 8.09889 20.68 7.96667C20.7111 7.84222 20.7111 7.71778 20.6489 7.64778C20.5867 7.58556 20.4933 7.52333 20.3689 7.52333C20.2445 7.52333 20.12 7.55444 20.0267 7.64778C19.9333 7.71 19.8711 7.80333 19.84 7.89667C19.8089 7.95889 19.8089 8.02111 19.84 8.08333C19.84 8.14556 19.8711 8.20778 19.9333 8.27L20.1822 8.55778V8.57333Z" fill="white"/>
  <path d="M43.4689 8.29333C43.4378 7.97444 43.3756 7.81889 43.0567 7.74889C42.9945 7.71778 42.8 7.71778 42.7378 7.71778C42.7067 7.71778 42.6756 7.68667 42.6756 7.65556C42.6756 7.59333 42.7378 7.59333 42.8389 7.59333C43.2822 7.59333 43.8578 7.62444 43.9589 7.62444C44.06 7.62444 44.6278 7.59333 44.9156 7.59333C45.0089 7.59333 45.0789 7.62444 45.0789 7.65556C45.0789 7.68667 45.0478 7.71778 45.0167 7.71778C44.9545 7.71778 44.8922 7.71778 44.76 7.74889C44.5033 7.78 44.41 7.97444 44.41 8.29333V11.77C44.41 13.17 44.7289 13.7767 45.1411 14.1578C45.6233 14.6011 46.0667 14.7022 46.6111 14.7022C47.2178 14.7022 47.7933 14.4144 48.1433 14.0022C48.5867 13.4578 48.7189 12.6333 48.7189 11.6144V10.4011C48.7189 8.86889 48.7189 8.61222 48.6878 8.29333C48.6567 7.97444 48.5945 7.81889 48.2756 7.74889C48.2133 7.71778 48.0189 7.71778 47.9567 7.71778C47.9256 7.71778 47.8945 7.68667 47.8945 7.65556C47.8945 7.59333 47.9567 7.59333 48.0578 7.59333C48.5011 7.59333 49.0456 7.62444 49.0767 7.62444C49.1389 7.62444 49.59 7.59333 49.9089 7.59333C50.0022 7.59333 50.0722 7.62444 50.0722 7.65556C50.0722 7.68667 50.0411 7.71778 50.01 7.71778C49.9478 7.71778 49.8856 7.71778 49.7533 7.74889C49.4967 7.81111 49.4033 7.97444 49.4033 8.29333C49.3722 8.61222 49.3722 8.86889 49.3722 10.4011V11.4511C49.3722 12.5011 49.2478 13.6522 48.4778 14.3522C47.7778 14.99 47.0389 15.0833 46.4633 15.0833C46.1445 15.0833 45.1567 15.0522 44.4489 14.3833C43.9667 13.94 43.5856 13.2322 43.5856 11.8322V10.4011C43.5856 10.4011 43.5233 8.61222 43.4922 8.29333H43.4689Z" fill="white"/>
  <path d="M51.0367 13.6133C51.0678 14.4067 51.1611 14.6633 51.4178 14.7256C51.6122 14.7878 51.83 14.7878 51.9 14.7878C51.97 14.7878 51.9622 14.8189 51.9622 14.85C51.9622 14.9122 51.9 14.9122 51.7989 14.9122C51.2545 14.9122 50.8422 14.8811 50.78 14.8811C50.6867 14.8811 50.2667 14.9122 49.8545 14.9122C49.7611 14.9122 49.6911 14.9122 49.6911 14.85C49.6911 14.8189 49.7222 14.7878 49.7533 14.7878C49.8467 14.7878 50.01 14.7878 50.1656 14.7256C50.4222 14.6633 50.4533 14.3756 50.4533 13.4811V7.90444C50.4533 7.52333 50.4845 7.43 50.5467 7.43C50.6089 7.43 50.8033 7.65556 50.8967 7.74889C51.06 7.90444 52.4911 9.46778 53.9922 11.0933C54.9489 12.1122 56.0067 13.2944 56.3256 13.6444L56.2322 8.70556C56.2322 8.06778 56.17 7.84222 55.8511 7.78C55.6878 7.74889 55.47 7.71778 55.3689 7.71778C55.3067 7.71778 55.2756 7.68667 55.2756 7.65556C55.2756 7.59333 55.3689 7.59333 55.47 7.59333C55.9133 7.59333 56.3645 7.62444 56.4889 7.62444C56.5822 7.62444 56.9011 7.59333 57.3211 7.59333C57.4145 7.59333 57.4845 7.59333 57.4845 7.65556C57.4845 7.68667 57.4533 7.71778 57.3911 7.71778C57.36 7.71778 57.2667 7.71778 57.1656 7.74889C56.8467 7.81111 56.8156 8.03667 56.8156 8.61222L56.7845 14.3211C56.7845 14.9589 56.7533 15.0211 56.6911 15.0211C56.6289 15.0211 56.4967 14.9278 55.9911 14.3833C55.8978 14.29 54.49 12.8511 53.44 11.7389C52.32 10.5256 51.2078 9.28111 50.8889 8.93111L51.0522 13.6211L51.0367 13.6133Z" fill="white"/>
  <path d="M59.53 12.0889C59.53 13.0144 59.53 13.7767 59.5611 14.1967C59.5922 14.4844 59.6545 14.6711 59.9422 14.7411C60.0667 14.7722 60.2922 14.7722 60.3856 14.7722C60.4478 14.7722 60.4478 14.8033 60.4478 14.8344C60.4478 14.8967 60.4167 14.8967 60.2845 14.8967C59.74 14.8967 59.1333 14.8656 59.0711 14.8656C59.04 14.8656 58.4022 14.8967 58.1145 14.8967C58.0211 14.8967 57.9511 14.8656 57.9511 14.8344C57.9511 14.8033 57.9822 14.7722 58.0133 14.7722C58.1067 14.7722 58.2078 14.7411 58.3011 14.7411C58.4956 14.71 58.5578 14.4844 58.5889 14.1967C58.6511 13.7844 58.6511 13.0144 58.6511 12.0889V10.37C58.6511 8.83778 58.6511 8.58111 58.62 8.26222C58.5889 7.94333 58.4956 7.74889 58.3011 7.71778C58.2078 7.68667 58.0756 7.68667 58.0133 7.68667C57.9822 7.68667 57.9511 7.65556 57.9511 7.62444C57.9511 7.56222 58.0133 7.56222 58.1145 7.56222C58.4333 7.56222 59.04 7.59333 59.1022 7.59333C59.1645 7.59333 59.7711 7.56222 60.0589 7.56222C60.1522 7.56222 60.2222 7.59333 60.2222 7.62444C60.2222 7.65556 60.1911 7.68667 60.16 7.68667C60.0978 7.68667 60.0356 7.68667 59.9033 7.71778C59.6467 7.78 59.5533 7.94333 59.5533 8.26222C59.5222 8.58111 59.5222 8.83778 59.5222 10.37V12.0889H59.53Z" fill="white"/>
  <path d="M64.64 13.7456C65.2156 12.4389 66.5222 9.05556 66.7167 8.35556C66.7478 8.2 66.81 8.06778 66.81 7.97444C66.81 7.91222 66.7789 7.78 66.6856 7.74889C66.5611 7.71778 66.4289 7.71778 66.3356 7.71778C66.2733 7.71778 66.2422 7.71778 66.2422 7.65556C66.2422 7.59333 66.3045 7.59333 66.4678 7.59333C66.8489 7.59333 67.3 7.62444 67.4245 7.62444C67.4867 7.62444 67.9067 7.59333 68.1867 7.59333C68.28 7.59333 68.35 7.62444 68.35 7.65556C68.35 7.71778 68.3189 7.71778 68.2256 7.71778C68.1633 7.71778 67.9378 7.71778 67.7433 7.84222C67.6189 7.93556 67.4867 8.09889 67.1989 8.76778C67.1056 9.05556 66.5922 10.1989 66.11 11.4122C65.5033 12.8433 65.0911 13.87 64.8656 14.3444C64.5778 14.92 64.5467 15.0756 64.4533 15.0756C64.3289 15.0756 64.29 14.9511 64.1033 14.4689L61.7078 8.50333C61.4822 7.95889 61.3578 7.86556 61.0078 7.77222C60.8445 7.74111 60.6889 7.74111 60.6267 7.74111C60.5645 7.74111 60.5645 7.71 60.5645 7.67889C60.5645 7.61667 60.6578 7.61667 60.8211 7.61667C61.3033 7.61667 61.84 7.64778 61.9722 7.64778C62.0656 7.64778 62.5167 7.61667 62.8667 7.61667C63.0611 7.61667 63.1233 7.64778 63.1233 7.67889C63.1233 7.74111 63.0922 7.74111 63.03 7.74111C62.9367 7.74111 62.7422 7.74111 62.6489 7.80333C62.5556 7.86556 62.5245 7.92778 62.5245 7.99778C62.5245 8.12222 62.6489 8.41 62.7811 8.79111L64.6633 13.73L64.64 13.7456Z" fill="white"/>
  <path d="M69.4622 8.29333C69.4311 7.97444 69.3689 7.81889 69.05 7.74889C68.9567 7.71778 68.7933 7.71778 68.7311 7.71778C68.7 7.71778 68.6689 7.68667 68.6689 7.65556C68.6689 7.59333 68.7311 7.59333 68.8322 7.59333C69.2756 7.59333 69.8822 7.62444 69.9522 7.62444H72.4722C72.6667 7.62444 72.8222 7.59333 72.8845 7.59333C72.9156 7.59333 72.9778 7.53111 73.0089 7.53111C73.04 7.53111 73.04 7.56222 73.04 7.62444C73.04 7.68667 73.0089 7.81889 72.9778 8.06778C72.9778 8.16111 72.9467 8.61222 72.9156 8.70556C72.9156 8.73667 72.8845 8.79889 72.8533 8.79889C72.7911 8.79889 72.7911 8.76778 72.7911 8.67444C72.7911 8.61222 72.7911 8.44889 72.7289 8.32444C72.6667 8.16889 72.5656 8.03667 72.0289 8.00556C71.8656 7.97444 70.4967 7.97444 70.4033 7.97444C70.3722 7.97444 70.3411 8.00556 70.3411 8.06778V10.7433C70.3411 10.8056 70.3411 10.8367 70.4033 10.8367C70.5278 10.8367 72.0289 10.8367 72.2545 10.8056C72.48 10.7744 72.6356 10.7744 72.6978 10.6811C72.76 10.6189 72.7911 10.5567 72.8611 10.5567C72.8922 10.5567 72.8922 10.5878 72.8922 10.6189C72.8922 10.6811 72.8611 10.8444 72.83 11.1633C72.7989 11.3578 72.7989 11.7078 72.7989 11.77C72.7989 11.8322 72.7989 11.9644 72.7367 11.9644C72.6745 11.9644 72.6745 11.9333 72.6745 11.8711C72.6745 11.7778 72.6745 11.6767 72.6433 11.5522C72.6122 11.4278 72.5189 11.2644 72.13 11.2022C71.8733 11.1711 70.5978 11.14 70.4345 11.14C70.4033 11.14 70.3722 11.1711 70.3722 11.2022V13.7222C70.4033 14.3911 70.8545 14.5156 71.8111 14.5156C72.0678 14.5156 72.48 14.5156 72.7367 14.4222C72.9933 14.3289 73.1178 14.1344 73.18 13.7222C73.2111 13.6289 73.2111 13.5667 73.2733 13.5667C73.3356 13.5667 73.3356 13.6289 73.3356 13.7222C73.3356 13.7844 73.2733 14.4533 73.2111 14.6789C73.1489 14.9356 73.0478 14.9356 72.6978 14.9356C71.2278 14.9356 70.2711 14.8733 69.9833 14.8733C69.9211 14.8733 69.3145 14.9044 69.0267 14.9044C68.9333 14.9044 68.8633 14.8733 68.8633 14.8422C68.8633 14.8111 68.8945 14.78 68.9256 14.78C69.0189 14.78 69.12 14.7489 69.2133 14.7489C69.4078 14.7178 69.47 14.4922 69.5011 14.2044C69.5633 13.7922 69.5633 13.0222 69.5633 12.0967V10.4089C69.5633 10.4089 69.5011 8.62 69.47 8.30111L69.4622 8.29333Z" fill="white"/>
  <path d="M74.3389 10.4011C74.3389 8.86889 74.3389 8.61222 74.3078 8.29333C74.2767 7.97444 74.2145 7.81889 73.8956 7.74889C73.8333 7.71778 73.6389 7.71778 73.5767 7.71778C73.5456 7.71778 73.5145 7.68667 73.5145 7.65556C73.5145 7.59333 73.5456 7.59333 73.6778 7.59333C74.1211 7.59333 74.7278 7.62444 74.7667 7.62444C74.86 7.62444 75.5989 7.59333 75.9178 7.59333C76.5245 7.59333 77.1933 7.65556 77.7067 8.00556C77.9633 8.2 78.3756 8.67444 78.3756 9.34333C78.3756 10.0744 78.0567 10.7744 77.1933 11.5756C77.9945 12.5944 78.6633 13.4578 79.2078 14.0644C79.7522 14.6089 80.1645 14.7333 80.39 14.7644C80.5845 14.7956 80.7089 14.7956 80.7711 14.7956C80.8333 14.7956 80.8645 14.8267 80.8645 14.8578C80.8645 14.92 80.8022 14.92 80.6389 14.92H79.9389C79.3945 14.92 79.1378 14.8578 78.8889 14.7256C78.4767 14.5 78.1189 14.0256 77.5822 13.2944C77.17 12.75 76.7189 12.1122 76.5322 11.8633C76.5011 11.8322 76.47 11.8011 76.4078 11.8011L75.1945 11.77C75.1322 11.77 75.1322 11.8011 75.1322 11.8322V12.0578C75.1322 12.9833 75.1322 13.7456 75.1945 14.1656C75.2256 14.4533 75.2878 14.64 75.5756 14.71C75.7 14.7411 75.9256 14.7411 76.0189 14.7411C76.0811 14.7411 76.1122 14.7722 76.1122 14.8033C76.1122 14.8656 76.05 14.8656 75.9489 14.8656C75.4045 14.8656 74.7978 14.8344 74.7356 14.8344C74.7356 14.8344 74.0978 14.8656 73.81 14.8656C73.7167 14.8656 73.6467 14.8344 73.6467 14.8033C73.6467 14.7722 73.6778 14.7411 73.7089 14.7411C73.8022 14.7411 73.9033 14.71 73.9967 14.71C74.1911 14.6789 74.2533 14.4533 74.2845 14.1656C74.3467 13.7533 74.3467 12.9833 74.3467 12.0578V10.4011H74.3389ZM75.2022 11.2256C75.2022 11.2878 75.2333 11.3189 75.2645 11.35C75.4278 11.4433 75.8711 11.5056 76.2833 11.5056C76.5089 11.5056 76.7967 11.4744 77.0145 11.3111C77.3645 11.0856 77.6211 10.5489 77.6211 9.81C77.6211 8.59667 76.9833 7.86556 75.9256 7.86556C75.6378 7.86556 75.35 7.89667 75.2878 7.92778C75.2567 7.95889 75.2256 7.99 75.2256 8.05222L75.1945 11.21L75.2022 11.2256Z" fill="white"/>
  <path d="M80.3978 14.7956C80.2733 14.7333 80.2345 14.7022 80.2345 14.4144C80.2345 13.94 80.2656 13.5511 80.2967 13.3956C80.2967 13.3022 80.3278 13.24 80.3589 13.24C80.4211 13.24 80.4211 13.2711 80.4211 13.3333C80.4211 13.4267 80.4211 13.5589 80.4522 13.6833C80.6156 14.3833 81.2533 14.6711 81.8911 14.6711C82.8167 14.6711 83.2989 14.0022 83.2989 13.3644C83.2989 12.6956 83.0111 12.3144 82.1789 11.6144L81.7356 11.2644C80.7167 10.4011 80.46 9.83333 80.46 9.15667C80.46 8.10667 81.2222 7.40667 82.4745 7.40667C82.8556 7.40667 83.1433 7.43778 83.3689 7.5C83.5633 7.53111 83.6256 7.53111 83.7189 7.53111C83.7811 7.53111 83.8122 7.56222 83.8122 7.59333C83.8122 7.65556 83.7811 7.97444 83.7811 8.61222C83.7811 8.76778 83.75 8.83778 83.7189 8.83778C83.6567 8.83778 83.6567 8.77556 83.6256 8.71333C83.6256 8.58889 83.5633 8.33222 83.5011 8.23889C83.4389 8.14556 83.1822 7.72556 82.2878 7.72556C81.6189 7.72556 81.1056 8.13778 81.1056 8.83778C81.1056 9.38222 81.3622 9.73222 82.2878 10.4633L82.5445 10.6889C83.6956 11.5833 83.9833 12.19 83.9833 12.9833C83.9833 13.3956 83.82 14.1344 83.1511 14.6089C82.7389 14.8967 82.1945 15.0211 81.6811 15.0211C81.2378 15.0522 80.7867 14.99 80.4056 14.7956H80.3978Z" fill="white"/>
  <path d="M85.8889 12.0889C85.8889 13.0144 85.8889 13.7767 85.9511 14.1967C85.9822 14.4844 86.0445 14.6711 86.3322 14.7411C86.4567 14.7722 86.6822 14.7722 86.7756 14.7722C86.8378 14.7722 86.8378 14.8033 86.8378 14.8344C86.8378 14.8967 86.7756 14.8967 86.6745 14.8967C86.13 14.8967 85.5233 14.8656 85.4611 14.8656C85.3989 14.8656 84.7922 14.8967 84.5045 14.8967C84.4111 14.8967 84.3411 14.8656 84.3411 14.8344C84.3411 14.8033 84.3722 14.7722 84.4033 14.7722C84.4967 14.7722 84.5978 14.7411 84.6911 14.7411C84.8856 14.71 84.9478 14.4844 84.9789 14.1967C85.0411 13.7844 85.0411 13.0144 85.0411 12.0889V10.37C85.0411 8.83778 85.0411 8.58111 85.01 8.26222C84.9789 7.94333 84.8856 7.74889 84.6911 7.71778C84.5978 7.68667 84.4656 7.68667 84.4033 7.68667C84.3722 7.68667 84.31 7.65556 84.31 7.62444C84.31 7.56222 84.3722 7.56222 84.4733 7.56222C84.7922 7.56222 85.3989 7.59333 85.4611 7.59333C85.5233 7.59333 86.13 7.56222 86.4178 7.56222C86.5111 7.56222 86.5811 7.59333 86.5811 7.62444C86.5811 7.65556 86.55 7.68667 86.5189 7.68667C86.4567 7.68667 86.3945 7.68667 86.2622 7.71778C86.0056 7.78 85.9122 7.94333 85.9122 8.26222C85.8811 8.58111 85.8811 8.83778 85.8811 10.37V12.0889H85.8889Z" fill="white"/>
  <path d="M90.4311 14.1889C90.4622 14.4767 90.5245 14.6633 90.8122 14.7333C90.9367 14.7644 91.1622 14.7644 91.2556 14.7644C91.3178 14.7644 91.3178 14.7956 91.3178 14.8267C91.3178 14.8889 91.2556 14.8889 91.1545 14.8889C90.61 14.8889 90.0033 14.8578 89.9411 14.8578C89.91 14.8578 89.2722 14.8889 88.9845 14.8889C88.8911 14.8889 88.8211 14.8578 88.8211 14.8267C88.8211 14.7956 88.8522 14.7644 88.8833 14.7644C88.9767 14.7644 89.1089 14.7333 89.1711 14.7333C89.3656 14.7022 89.4278 14.4767 89.4589 14.1889C89.5211 13.7767 89.5211 13.0067 89.5211 12.0811V7.96667L88.0822 7.99778C87.4756 7.99778 87.25 8.06 87.0945 8.31667C87.0011 8.47222 86.97 8.54222 86.9311 8.63556C86.9 8.72889 86.8689 8.72889 86.8378 8.72889C86.8067 8.72889 86.7756 8.69778 86.7756 8.63556C86.7756 8.54222 86.97 7.71 87.0011 7.61667C87.0322 7.55444 87.0633 7.42222 87.0945 7.42222C87.1567 7.42222 87.2578 7.51556 87.5067 7.54667C87.7945 7.57778 88.1445 7.60889 88.2689 7.60889H91.9089C92.5467 7.60889 92.8033 7.51556 92.8656 7.51556C92.9278 7.51556 92.9278 7.57778 92.9278 7.64C92.9278 7.92778 92.8967 8.59667 92.8967 8.72111C92.8967 8.81444 92.8656 8.84556 92.8345 8.84556C92.7722 8.84556 92.7722 8.81444 92.7722 8.69V8.59667C92.7411 8.30889 92.5156 8.08333 91.5589 8.05222L90.3456 8.02111V12.0733C90.3456 12.0733 90.3767 13.7611 90.4078 14.1811L90.4311 14.1889Z" fill="white"/>
  <path d="M96.5522 12.4078C96.5522 11.8944 96.4589 11.6767 96.3267 11.3889C96.2645 11.2333 94.9578 9.09444 94.6 8.58111C94.3433 8.23111 94.1178 7.97444 93.9311 7.85C93.7678 7.75667 93.6122 7.69444 93.5189 7.69444C93.4567 7.69444 93.4256 7.66333 93.4256 7.63222C93.4256 7.60111 93.4567 7.57 93.55 7.57C93.7445 7.57 94.4756 7.60111 94.5067 7.60111C94.5689 7.60111 94.95 7.57 95.3389 7.57C95.4633 7.57 95.4633 7.60111 95.4633 7.63222C95.4633 7.66333 95.4011 7.69444 95.3389 7.72556C95.2456 7.75667 95.2145 7.81889 95.2145 7.88111C95.2145 8.00556 95.2767 8.10667 95.3389 8.26222C95.5022 8.55 96.9645 11.07 97.1278 11.3267C97.3222 10.9144 98.5667 8.77556 98.7533 8.45667C98.8778 8.26222 98.9167 8.07556 98.9167 7.94333C98.9167 7.81111 98.8856 7.68667 98.7533 7.68667C98.66 7.65556 98.59 7.62444 98.59 7.59333C98.59 7.56222 98.6522 7.53111 98.7533 7.53111C99.01 7.53111 99.3289 7.56222 99.3911 7.56222C99.4533 7.56222 100.153 7.53111 100.348 7.53111C100.41 7.53111 100.472 7.56222 100.472 7.59333C100.472 7.62444 100.441 7.65556 100.348 7.65556C100.254 7.65556 100.06 7.68667 99.9045 7.78C99.71 7.90444 99.6167 8.00556 99.3911 8.29333C99.0722 8.67444 97.6956 10.9689 97.54 11.3889C97.3767 11.7389 97.3767 12.0267 97.3767 12.3456V13.1778C97.3767 13.3333 97.3767 13.7533 97.4078 14.1656C97.4078 14.4533 97.5011 14.64 97.7889 14.71C97.9133 14.7411 98.1389 14.7411 98.2322 14.7411C98.2945 14.7411 98.2945 14.7722 98.2945 14.8033C98.2945 14.8656 98.2633 14.8656 98.1311 14.8656C97.5867 14.8656 96.98 14.8344 96.9178 14.8344C96.8867 14.8344 96.2489 14.8656 95.9611 14.8656C95.8678 14.8656 95.7978 14.8344 95.7978 14.8033C95.7978 14.7722 95.8289 14.7411 95.86 14.7411C95.9533 14.7411 96.0545 14.71 96.1478 14.71C96.3422 14.6789 96.4356 14.4533 96.4356 14.1656C96.4667 13.7533 96.5289 12.4156 96.5289 12.4156L96.5522 12.4078Z" fill="white"/>
  <path d="M103.389 11.42C103.389 11.7389 103.296 12.0578 103.132 12.3767C102.969 12.6956 102.72 12.9211 102.432 13.1078C102.144 13.3022 101.826 13.3644 101.569 13.3644C101.281 13.3644 101.056 13.2711 100.869 13.0767C100.674 12.8822 100.581 12.6644 100.581 12.3456C100.581 12.0267 100.674 11.7078 100.838 11.42C101.032 11.1011 101.25 10.8444 101.538 10.6889C101.826 10.4944 102.113 10.4011 102.401 10.4011C102.689 10.4011 102.914 10.4944 103.101 10.6889C103.296 10.9144 103.389 11.1322 103.389 11.42ZM102.844 11.2256C102.844 11.0311 102.782 10.8756 102.681 10.7822C102.588 10.6889 102.456 10.6267 102.3 10.6267C101.981 10.6267 101.693 10.8522 101.437 11.2956C101.18 11.7389 101.056 12.19 101.056 12.6333C101.056 12.8278 101.118 12.9833 101.219 13.1078C101.312 13.2011 101.444 13.2633 101.6 13.2633C101.888 13.2633 102.176 13.0378 102.432 12.5944C102.72 12.12 102.844 11.6689 102.844 11.2256Z" fill="white"/>
  <path d="M105.302 10.7511H104.859L104.509 12.12C104.346 12.7267 104.19 13.2011 104.027 13.52C103.801 13.9944 103.583 14.3133 103.327 14.5078C103.132 14.6322 102.946 14.7333 102.751 14.7333C102.627 14.7333 102.526 14.7022 102.432 14.6089C102.37 14.5467 102.339 14.4844 102.339 14.3833C102.339 14.3211 102.37 14.2589 102.432 14.2278C102.494 14.1656 102.557 14.1656 102.627 14.1656C102.697 14.1656 102.72 14.1967 102.79 14.2278C102.821 14.2589 102.852 14.3211 102.852 14.3522C102.852 14.3833 102.821 14.4456 102.79 14.4767C102.759 14.5078 102.759 14.5389 102.759 14.5389C102.759 14.5389 102.769 14.5493 102.79 14.57C102.79 14.57 102.852 14.6011 102.883 14.6011C102.977 14.6011 103.078 14.57 103.171 14.5078C103.264 14.4456 103.366 14.3833 103.428 14.2511C103.521 14.1267 103.591 13.9633 103.653 13.7767C103.684 13.6833 103.747 13.3956 103.879 12.9133L104.423 10.7744H103.879L103.91 10.5489C104.104 10.5489 104.198 10.5489 104.291 10.5178C104.353 10.4867 104.416 10.4556 104.486 10.3933C104.548 10.3311 104.61 10.1989 104.711 10.0122C104.836 9.75556 104.968 9.56889 105.061 9.43667C105.224 9.24222 105.38 9.11778 105.574 9.02444C105.738 8.93111 105.893 8.9 106.057 8.9C106.22 8.9 106.344 8.93111 106.438 9.02444C106.531 9.11778 106.601 9.18 106.601 9.28111C106.601 9.34333 106.57 9.40556 106.539 9.47556C106.477 9.53778 106.414 9.53778 106.344 9.53778C106.274 9.53778 106.22 9.50667 106.181 9.47556C106.15 9.44444 106.119 9.41333 106.119 9.35111C106.119 9.32 106.119 9.28889 106.15 9.22667C106.181 9.19556 106.181 9.13333 106.181 9.13333C106.181 9.10222 106.181 9.07111 106.15 9.07111C106.119 9.04 106.088 9.04 106.026 9.04C105.901 9.04 105.769 9.07111 105.676 9.16444C105.551 9.25778 105.419 9.45222 105.294 9.67778C105.232 9.80222 105.131 10.1211 104.976 10.6033H105.388L105.326 10.7589L105.302 10.7511Z" fill="white"/>
  <path d="M43.4611 17.4089C43.43 16.8644 43.2978 16.6156 42.7611 16.4833C42.6367 16.4522 42.3489 16.4522 42.2167 16.4522C42.1545 16.4522 42.0922 16.4211 42.0922 16.3589C42.0922 16.2656 42.1856 16.2344 42.3489 16.2344C43.08 16.2344 44.0756 16.2656 44.1689 16.2656C44.3633 16.2656 45.3822 16.2344 46.3389 16.2344C47.9333 16.2344 50.8733 16.0789 52.7867 18.0856C53.5878 18.9178 54.35 20.2556 54.35 22.1689C54.35 24.2067 53.5178 25.7389 52.6233 26.6956C51.9233 27.4267 50.4845 28.5467 47.7389 28.5467C46.37 28.5467 44.3245 28.3522 44.1611 28.3522C44.0989 28.3522 43.0722 28.4144 42.5978 28.4144C42.4345 28.4144 42.3411 28.3833 42.3411 28.29C42.3411 28.2278 42.3722 28.1967 42.4656 28.1967C42.6289 28.1967 42.8156 28.1656 42.9478 28.1344C43.2667 28.0722 43.36 27.7222 43.43 27.24C43.5233 26.5711 43.5233 25.2956 43.5233 23.7633C43.5233 23.7633 43.4922 17.93 43.4611 17.4167V17.4089ZM44.8689 26.12C44.8689 26.5322 44.9311 27.17 45.0633 27.3333C45.2889 27.6522 45.8956 27.9711 47.8089 27.9711C49.31 27.9711 50.6789 27.4267 51.6433 26.47C52.4756 25.6378 52.9189 24.1133 52.9189 22.6122C52.9189 20.5744 52.0245 19.2678 51.3867 18.56C49.8856 16.9656 48.0345 16.74 46.1211 16.74C45.8022 16.74 45.1956 16.8022 45.0711 16.8644C44.9078 16.9267 44.8767 17.02 44.8767 17.1833V20.5978C44.8767 20.5978 44.8456 25.8244 44.8767 26.1122L44.8689 26.12Z" fill="white"/>
  <path d="M55.5633 20.8856C55.5633 18.3656 55.5633 17.9222 55.5322 17.4089C55.5011 16.8644 55.3689 16.6156 54.8322 16.4833C54.7078 16.4522 54.42 16.4522 54.2878 16.4522C54.2256 16.4522 54.1633 16.4211 54.1633 16.3589C54.1633 16.2656 54.2256 16.2344 54.42 16.2344C55.1511 16.2344 56.1467 16.2656 56.24 16.2656C56.3645 16.2656 60.0745 16.2656 60.4245 16.2344C60.7433 16.2344 61 16.1722 61.1245 16.1722C61.1867 16.1722 61.2489 16.0789 61.35 16.0789C61.3811 16.0789 61.4122 16.1411 61.4122 16.2344C61.4122 16.3589 61.3189 16.5533 61.2878 16.9967C61.2567 17.1522 61.2256 17.86 61.2256 18.0467C61.2256 18.1089 61.1633 18.2411 61.1011 18.2411C61.0078 18.2411 60.9767 18.1789 60.9767 18.0156C60.9767 17.8911 60.9456 17.6344 60.8833 17.44C60.79 17.1833 60.5956 16.9967 59.7322 16.8956C59.4445 16.8644 57.2122 16.8644 57.0178 16.8644C56.9556 16.8644 56.9245 16.8956 56.9245 17.02V21.4533C56.9245 21.5778 56.9245 21.6089 57.0178 21.6089C57.2122 21.6089 59.7011 21.6089 60.0822 21.5778C60.4633 21.5467 60.6889 21.5156 60.8445 21.3522C60.9378 21.2278 61.0078 21.1267 61.1011 21.1267C61.1633 21.1267 61.1633 21.1578 61.1633 21.2511C61.1633 21.3444 61.1011 21.6322 61.0389 22.1456C61.0078 22.4644 60.9767 23.0711 60.9767 23.1644C60.9767 23.2889 60.9767 23.4833 60.8522 23.4833C60.79 23.4833 60.7589 23.4211 60.7589 23.3278C60.7589 23.1722 60.7589 23.0089 60.6967 22.7833C60.6345 22.5578 60.4711 22.27 59.8645 22.2078C59.4211 22.1456 57.3445 22.1456 57.0567 22.1456C56.9633 22.1456 56.9322 22.1767 56.9322 22.27V23.67C56.9322 24.2144 56.9011 26.0967 56.9322 26.4156C56.9945 27.5278 57.7333 27.7222 59.2967 27.7222C59.7089 27.7222 60.4167 27.7222 60.8289 27.5278C61.2411 27.3333 61.4356 27.0144 61.56 26.3767C61.5911 26.1822 61.6222 26.12 61.7233 26.12C61.8245 26.12 61.8167 26.2444 61.8167 26.3767C61.8167 26.5089 61.6922 27.59 61.5911 27.94C61.4978 28.3522 61.3345 28.3522 60.7278 28.3522C58.3011 28.3522 56.7067 28.2589 56.2556 28.2589C56.1622 28.2589 55.1667 28.3211 54.6922 28.3211C54.4978 28.3211 54.4356 28.29 54.4356 28.1967C54.4356 28.1344 54.4667 28.1033 54.56 28.1033C54.7233 28.1033 54.91 28.0722 55.0422 28.0411C55.3611 27.9789 55.4545 27.6289 55.5245 27.1467C55.6178 26.4778 55.6178 25.2022 55.6178 23.67L55.5867 20.8622L55.5633 20.8856Z" fill="white"/>
  <path d="M64.2589 26.2133C64.29 27.52 64.4533 27.9322 64.8967 28.0644C65.2156 28.1578 65.5656 28.1578 65.6978 28.1578C65.76 28.1578 65.8222 28.1889 65.8222 28.2511C65.8222 28.3444 65.7289 28.3756 65.5345 28.3756C64.6089 28.3756 63.9711 28.3133 63.8078 28.3133C63.6445 28.3133 62.9756 28.3756 62.2756 28.3756C62.1122 28.3756 62.0189 28.3756 62.0189 28.2511C62.0189 28.1889 62.05 28.1578 62.1433 28.1578C62.2678 28.1578 62.5556 28.1267 62.8122 28.0644C63.2245 27.94 63.2945 27.4889 63.2945 26.0267V16.81C63.2945 16.1722 63.3567 16.0167 63.4578 16.0167C63.5822 16.0167 63.87 16.3667 64.0333 16.53C64.29 16.8178 66.6856 19.4 69.1745 22.0444C70.7689 23.7322 72.5267 25.7078 73.04 26.2522L72.8456 18.0856C72.8145 17.0356 72.7211 16.6856 72.2078 16.5533C71.92 16.4911 71.5389 16.46 71.4067 16.46C71.2745 16.46 71.2822 16.4289 71.2822 16.3356C71.2822 16.2422 71.4067 16.2111 71.6011 16.2111C72.3322 16.2111 73.1022 16.2422 73.2578 16.2422C73.4522 16.2422 73.9578 16.2111 74.6267 16.2111C74.79 16.2111 74.9145 16.2111 74.9145 16.3356C74.9145 16.3978 74.8522 16.46 74.72 16.46C74.6267 16.46 74.5256 16.46 74.3389 16.4911C73.7945 16.6156 73.7322 16.9656 73.7322 17.9222L73.7011 27.3256C73.7011 28.3756 73.67 28.4767 73.5767 28.4767C73.4522 28.4767 73.2578 28.2822 72.3945 27.4578C72.2311 27.3022 69.9056 24.9378 68.1789 23.0867C66.3278 21.08 64.5078 19.0656 63.9633 18.4667L64.2511 26.2133H64.2589Z" fill="white"/>
  <path d="M82.1322 26.4389C83.0578 24.2689 85.2278 18.6922 85.5778 17.51C85.64 17.2533 85.7022 17.0356 85.7022 16.9033C85.7022 16.7711 85.6711 16.6156 85.5078 16.5222C85.3133 16.46 85.0645 16.46 84.9011 16.46C84.8078 16.46 84.7378 16.46 84.7378 16.3667C84.7378 16.2733 84.8311 16.2422 85.0878 16.2422C85.7256 16.2422 86.4567 16.2733 86.6511 16.2733C86.7445 16.2733 87.4522 16.2422 87.8956 16.2422C88.09 16.2422 88.1833 16.2733 88.1833 16.3667C88.1833 16.46 88.1211 16.4911 87.9889 16.4911C87.8567 16.4911 87.5067 16.4911 87.2267 16.6856C87.0011 16.8411 86.7833 17.0978 86.3322 18.1867C86.1378 18.63 85.3445 20.5744 84.5433 22.5578C83.5556 24.9144 82.8478 26.6411 82.4667 27.4344C82.0233 28.3911 81.9533 28.6478 81.7978 28.6478C81.6033 28.6478 81.5411 28.4222 81.2222 27.66L77.2633 17.8056C76.9133 16.9111 76.6567 16.7244 76.1122 16.5611C75.8556 16.4989 75.5989 16.4989 75.5056 16.4989C75.4122 16.4989 75.3811 16.4678 75.3811 16.3744C75.3811 16.2811 75.5445 16.25 75.7933 16.25C76.5556 16.25 77.4889 16.2811 77.6756 16.2811C77.8389 16.2811 78.57 16.25 79.1767 16.25C79.4645 16.25 79.62 16.2811 79.62 16.3744C79.62 16.4678 79.5578 16.4989 79.4567 16.4989C79.2622 16.4989 78.9745 16.53 78.85 16.5922C78.6556 16.6856 78.6245 16.8178 78.6245 16.9111C78.6245 17.1367 78.8189 17.6111 79.0678 18.2489L82.1011 26.4467L82.1322 26.4389Z" fill="white"/>
  <path d="M90.1356 17.4089C90.1045 16.8644 89.9722 16.6156 89.4356 16.4833C89.3111 16.4522 89.0233 16.4522 88.8911 16.4522C88.8289 16.4522 88.7667 16.4211 88.7667 16.3589C88.7667 16.2656 88.86 16.2344 89.0233 16.2344C89.7545 16.2344 90.75 16.2656 90.8433 16.2656C90.9367 16.2656 94.6778 16.2656 95.0278 16.2344C95.3467 16.2344 95.6033 16.1722 95.7278 16.1722C95.79 16.1722 95.8522 16.0789 95.9533 16.0789C95.9845 16.0789 96.0156 16.1411 96.0156 16.2344C96.0156 16.3589 95.9222 16.5533 95.8911 16.9967C95.86 17.1522 95.86 17.86 95.8289 18.0467C95.7978 18.1089 95.7667 18.2411 95.7045 18.2411C95.6111 18.2411 95.58 18.1789 95.58 18.0156C95.58 17.8911 95.58 17.6344 95.4867 17.44C95.3622 17.1833 95.1989 16.9967 94.3356 16.8956C94.0478 16.8644 91.8156 16.8644 91.6211 16.8644C91.5589 16.8644 91.5278 16.8956 91.5278 17.02V21.4533C91.5278 21.5778 91.5278 21.6089 91.6211 21.6089C91.8156 21.6089 94.3045 21.6089 94.6856 21.5778C95.0667 21.5467 95.2922 21.5156 95.4478 21.3522C95.5722 21.2278 95.6422 21.1267 95.7045 21.1267C95.7667 21.1267 95.7978 21.1578 95.7978 21.2511C95.7978 21.3444 95.7045 21.6322 95.6733 22.1456C95.6422 22.4644 95.6111 23.0711 95.6111 23.1644C95.6111 23.2889 95.6111 23.4833 95.4867 23.4833C95.4245 23.4833 95.3933 23.4211 95.3933 23.3278C95.3933 23.1722 95.3933 23.0089 95.3311 22.7833C95.2689 22.5578 95.1056 22.27 94.4989 22.2078C94.0556 22.1456 91.9789 22.1456 91.6911 22.1456C91.5978 22.1456 91.5667 22.1767 91.5667 22.27V23.67C91.5667 24.2144 91.5356 26.0967 91.5667 26.4156C91.5978 27.5278 92.3678 27.7222 93.9311 27.7222C94.3433 27.7222 95.0511 27.7222 95.4633 27.5278C95.8756 27.3333 96.07 27.0144 96.1945 26.3767C96.2256 26.1822 96.2567 26.12 96.3578 26.12C96.4589 26.12 96.4511 26.2444 96.4511 26.3767C96.4511 26.5089 96.3267 27.59 96.2256 27.94C96.1322 28.3522 95.9689 28.3522 95.3622 28.3522C92.9356 28.3522 91.3411 28.2589 90.89 28.2589C90.7967 28.2589 89.8011 28.3211 89.3267 28.3211C89.1322 28.3211 89.07 28.29 89.07 28.1967C89.07 28.1344 89.1011 28.1033 89.1945 28.1033C89.3189 28.1033 89.5445 28.0722 89.6767 28.0411C89.9956 27.9789 90.0889 27.6289 90.1589 27.1467C90.2522 26.4778 90.2522 25.2022 90.2522 23.67C90.2522 23.67 90.19 17.8989 90.1589 17.3856L90.1356 17.4089Z" fill="white"/>
  <path d="M98.0611 17.4089C98.03 16.8644 97.8978 16.6078 97.3611 16.4833C97.2367 16.4522 96.9489 16.4522 96.8167 16.4522C96.7545 16.4522 96.6922 16.4211 96.6922 16.3589C96.6922 16.2656 96.7856 16.2344 96.9489 16.2344C97.68 16.2344 98.7067 16.2656 98.7689 16.2656C98.9633 16.2656 100.177 16.2344 100.682 16.2344C101.701 16.2344 102.79 16.3278 103.622 16.9344C104.034 17.2222 104.742 18.0156 104.742 19.1356C104.742 20.3178 104.229 21.5233 102.798 22.8689C104.104 24.5567 105.224 25.9956 106.15 26.9833C107.013 27.9089 107.713 28.0644 108.126 28.1344C108.444 28.1967 108.67 28.1967 108.763 28.1967C108.826 28.1967 108.927 28.2589 108.927 28.29C108.927 28.3833 108.833 28.4144 108.546 28.4144H107.394C106.5 28.4144 106.088 28.3211 105.668 28.0956C104.968 27.7144 104.423 26.9444 103.498 25.7389C102.829 24.8444 102.059 23.7944 101.74 23.3822C101.678 23.32 101.647 23.2889 101.514 23.2889L99.5389 23.2578C99.4456 23.2578 99.4145 23.2889 99.4145 23.3822V23.7633C99.4145 25.2956 99.4145 26.5711 99.5078 27.24C99.5389 27.7144 99.6322 28.0722 100.146 28.1344C100.371 28.1656 100.721 28.1967 100.877 28.1967C100.97 28.1967 101.001 28.2589 101.001 28.29C101.001 28.3522 100.908 28.4144 100.744 28.4144C99.85 28.4144 98.8311 28.3522 98.7689 28.3522C98.7378 28.3522 97.75 28.4144 97.2678 28.4144C97.0733 28.4144 97.0111 28.3833 97.0111 28.29C97.0111 28.2278 97.0422 28.1967 97.1356 28.1967C97.26 28.1967 97.4856 28.1656 97.6178 28.1344C97.9367 28.0722 98.03 27.7222 98.1 27.24C98.1933 26.5711 98.1933 25.2956 98.1933 23.7633C98.1933 23.7633 98.1 17.93 98.0689 17.4167L98.0611 17.4089ZM99.3678 22.2933C99.3678 22.3867 99.3989 22.4489 99.4922 22.4878C99.7489 22.6433 100.48 22.7444 101.188 22.7444C101.569 22.7444 102.02 22.7133 102.401 22.4256C102.977 22.0444 103.389 21.1811 103.389 19.9367C103.389 17.93 102.339 16.7167 100.612 16.7167C100.13 16.7167 99.6867 16.7478 99.5233 16.81C99.43 16.8411 99.3989 16.9033 99.3989 17.0044L99.3678 22.3011V22.2933Z" fill="white"/>
</svg>