<svg width="103" height="24" xmlns="http://www.w3.org/2000/svg" viewBox="0 0 103 24" fill="white">
  <path d="M19.7021 5.64344L10.578 0.0783179C10.5314 0.0516586 10.4847 0.0316641 10.438 0.00500488L10.9646 10.0489L11.0845 10.1089C11.4844 10.3155 11.8243 10.6421 12.0309 11.0419L12.0909 11.1619L20.1154 11.5751V6.38323C20.1154 6.08332 19.9554 5.80339 19.7021 5.64344Z" fill="white"/>
  <path d="M8.15201 11.1619L8.212 11.0419C8.41194 10.6421 8.75185 10.3155 9.15174 10.1089L9.26504 10.0489L9.79156 0.00500488C9.7449 0.0183345 9.69825 0.0449938 9.65826 0.071653L0.540794 5.64344C0.287531 5.79673 0.127575 6.08332 0.127575 6.38323V11.5751L8.15201 11.1619Z" fill="white"/>
  <path d="M9.2717 13.9545L9.15174 13.8945C8.75185 13.6879 8.41194 13.3613 8.20533 12.9614L8.14535 12.8414L0.120911 12.4282V17.6201C0.120911 17.92 0.280866 18.2 0.534129 18.3599L9.65826 23.9317C9.70492 23.9584 9.75157 23.9783 9.79822 24.005L9.2717 13.9611V13.9545Z" fill="white"/>
  <path d="M12.0843 12.8414L12.0243 12.9614C11.8243 13.3613 11.4844 13.6879 11.0845 13.8945L10.9712 13.9545L10.4447 23.9983C10.4914 23.985 10.538 23.9584 10.578 23.9317L19.7021 18.3599C19.9554 18.2066 20.1154 17.92 20.1154 17.6201V12.4282L12.0909 12.8414H12.0843Z" fill="white"/>
  <path d="M10.8846 11.2352C10.458 10.8153 9.77156 10.8153 9.34502 11.2352C8.91847 11.6551 8.91847 12.3416 9.34502 12.7615C9.77156 13.1813 10.458 13.1813 10.8846 12.7615C11.3111 12.3416 11.3111 11.6551 10.8846 11.2352Z" fill="white"/>
  <path d="M38.6102 6.23661H36.3442C36.1109 6.23661 36.0576 6.26327 35.9443 6.48321L33.325 11.9217C32.9385 12.7348 32.5986 13.7878 32.5986 13.7878H32.4919C32.4919 13.7878 32.1653 12.7281 31.7655 11.9217H31.7788L29.1595 6.48321C29.0529 6.24994 28.9796 6.23661 28.7596 6.23661H26.4936C26.3869 6.23661 26.3403 6.2766 26.3403 6.34324C26.3403 6.40989 26.3936 6.52319 26.4469 6.62983L31.6588 17.5401H33.4317L38.6435 6.62983C38.6969 6.5032 38.7502 6.39656 38.7502 6.34324C38.7502 6.28993 38.7102 6.23661 38.5969 6.23661H38.6102Z" fill="white"/>
  <path d="M48.5075 14.3877C48.2475 13.9878 47.901 13.6346 47.901 13.6346V13.5946C49.4072 13.0614 50.4403 12.6748 50.4403 10.2022C50.4403 7.72953 48.4808 6.24327 45.7349 6.24327H40.5097C40.4031 6.24327 40.2898 6.34991 40.2898 6.46321L40.3031 6.47654V17.3335C40.3031 17.4402 40.4097 17.5535 40.523 17.5535H42.6358C42.7424 17.5535 42.8557 17.4468 42.8557 17.3335V14.0211H45.2817L47.5744 17.3735C47.6544 17.5001 47.781 17.5668 47.8743 17.5668H50.3736C50.4803 17.5668 50.5269 17.5001 50.5269 17.4268C50.5269 17.3868 50.5136 17.3202 50.4203 17.1802L48.5141 14.3943L48.5075 14.3877ZM45.5683 11.9684H42.8357V8.38268H45.5683C46.9812 8.38268 47.8876 9.08248 47.8876 10.1955C47.8876 11.3085 46.9812 11.9684 45.5683 11.9684Z" fill="white"/>
  <path d="M51.2934 6.23661C51.1867 6.23661 51.0334 6.3899 51.0334 6.49654V8.11609C51.0334 8.22272 51.1867 8.37601 51.2934 8.37601H55.3722V17.3069C55.3722 17.4135 55.4789 17.5268 55.5922 17.5268H57.7049C57.8116 17.5268 57.9249 17.4202 57.9249 17.3069V8.37601H61.9904C62.097 8.37601 62.2503 8.22272 62.2503 8.11609V6.49654C62.2503 6.3899 62.097 6.23661 61.9904 6.23661H51.2934Z" fill="white"/>
  <path d="M69.6549 10.8553L66.7291 10.6087C65.7027 10.5287 65.3561 10.4688 65.3561 9.64899C65.3561 8.82922 66.1692 8.17607 67.8288 8.17607C69.4883 8.17607 70.1348 8.82256 70.2414 9.48237C70.2814 9.71564 70.3947 9.76896 70.5813 9.76896H72.4475C72.6674 9.76896 72.8007 11.2552 72.8007 9.45571C72.8007 7.65621 71.1812 6.04999 67.8488 6.04999C64.5164 6.04999 62.7968 8.12275 62.7968 9.81561C62.7968 11.5085 64.0165 12.5615 66.3092 12.7548L69.2484 13.0014C70.3881 13.0947 70.7546 13.288 70.7546 14.1011C70.7546 14.9142 69.9149 15.5873 68.1354 15.5873C66.3558 15.5873 65.5427 14.9808 65.3495 14.0211C65.3228 13.8278 65.1962 13.7345 64.9762 13.7345V13.7212H63.1501C62.9435 13.7212 62.7902 13.8745 62.7902 14.0678V14.2211C62.7902 16.0872 64.4764 17.7267 68.1287 17.7267C71.781 17.7267 73.3006 15.5407 73.3006 13.9745C73.3006 12.4082 72.2742 11.0886 69.6349 10.8687L69.6549 10.8553Z" fill="white"/>
  <path d="M82.8979 9.82228H80.8785C80.6185 9.82228 80.5319 9.8756 80.4653 10.0689L78.6391 14.601H78.5991C78.5991 14.601 78.4592 14.1611 78.1992 13.6545L76.4131 10.0555C76.3197 9.86227 76.2198 9.80895 75.9598 9.80895H73.9271C73.8604 9.80895 73.7605 9.86227 73.7605 9.96224C73.7605 10.0022 73.7605 10.0555 73.8538 10.2488L77.4461 17.4602L75.6866 21.7723C75.6066 21.9522 75.5933 21.9922 75.5933 22.0855C75.5933 22.1788 75.6733 22.2388 75.7466 22.2388H77.766C78.0259 22.2388 78.1126 22.2122 78.1792 22.0189L82.9446 10.2888C82.9979 10.1355 83.0379 10.0689 83.0379 9.97557C83.0379 9.88226 82.9579 9.82228 82.8846 9.82228H82.8979Z" fill="white"/>
  <path d="M89.2095 9.61567C88.2364 9.61567 87.2034 10.0422 86.5636 10.7154H86.4969L86.2903 10.1222C86.2237 9.91559 86.1104 9.80895 85.9771 9.80895H84.5241C84.4175 9.80895 84.2109 10.0156 84.2109 10.1222V17.2136C84.2109 17.3202 84.4175 17.5268 84.5241 17.5268H86.297C86.4036 17.5268 86.6102 17.3202 86.6102 17.2136V12.9681C86.9235 12.2683 87.8832 11.6484 88.6563 11.6484C89.4294 11.6484 89.916 12.1416 89.916 12.9014H89.9293V17.2136C89.9293 17.3202 90.1359 17.5268 90.2425 17.5268H92.0287C92.1353 17.5268 92.342 17.3202 92.342 17.2136V12.7081C92.342 10.9353 91.3822 9.61567 89.2162 9.61567H89.2095Z" fill="white"/>
  <path d="M101.753 14.7276C101.686 14.6209 101.546 14.521 101.393 14.521C101.239 14.521 101.146 14.561 100.953 14.7143C100.2 15.2941 99.7999 15.6873 98.4803 15.6873C97.1606 15.6873 96.3542 14.8209 96.3542 13.6679C96.3542 12.5149 97.3539 11.6484 98.3736 11.6484C99.3933 11.6484 99.9399 12.1416 100.16 12.8148C100.186 12.9547 100.326 13.0614 100.473 13.0614H102.106C102.286 13.0614 102.479 12.8814 102.479 12.6882L102.519 12.6748C102.519 12.6348 102.519 12.5215 102.506 12.4149C102.206 10.682 100.833 9.609 98.4003 9.609C95.9676 9.609 93.9548 11.0819 93.9548 13.6612C93.9548 16.2405 95.9476 17.7134 98.4669 17.7134C100.06 17.7134 101.359 17.1069 102.226 16.3005C102.419 16.1205 102.486 15.9872 102.486 15.8339C102.486 15.7406 102.459 15.6673 102.346 15.5207L101.739 14.7209L101.753 14.7276Z" fill="white"/>
</svg>