<svg width="66" height="21" viewBox="0 0 66 21" fill="white" xmlns="http://www.w3.org/2000/svg">
  <path fill-rule="evenodd" clip-rule="evenodd" d="M65.287 4.4424C64.2164 4.3445 63.1687 4.79353 62.5012 5.63633V4.56255H60.1284V14.8799H62.5012V9.18807C62.4662 8.4975 62.7257 7.82448 63.2154 7.33626C63.705 6.84804 64.3788 6.59046 65.0693 6.62751H65.287V4.4424ZM50.5469 8.48886C51.0225 7.32093 52.158 6.5573 53.4191 6.5573C54.6801 6.5573 55.8156 7.32093 56.2912 8.48886H50.5469ZM53.4157 4.44868C51.5298 4.46075 49.7935 5.47804 48.861 7.11734C47.9285 8.75665 47.9414 10.7689 48.8948 12.3961C49.8482 14.0234 51.5974 15.0184 53.4833 15.0063C56.0514 15.0063 58.1389 13.6246 58.7921 11.7549H55.9838C55.6309 12.4157 54.7448 12.8587 53.4833 12.8587C52.0516 12.8937 50.7943 11.913 50.4797 10.5159H58.8372C58.8828 10.2556 58.9054 9.99177 58.9048 9.72748C58.8792 8.30081 58.2852 6.94337 57.2546 5.95649C56.224 4.96961 54.8422 4.43495 53.4157 4.47121V4.44868ZM41.6488 12.8168C40.8182 12.8463 40.0126 12.5303 39.4235 11.9441C38.8344 11.3579 38.5146 10.5538 38.5401 9.7231C38.6217 8.05944 39.9944 6.75248 41.66 6.75248C43.3257 6.75248 44.6984 8.05944 44.78 9.7231C44.8058 10.5578 44.4829 11.3657 43.8889 11.9526C43.2948 12.5396 42.4831 12.8527 41.6488 12.8168ZM41.7541 4.44937C44.9755 4.44937 47.108 6.50683 47.108 9.70565C47.108 12.9045 44.9755 14.9619 41.7541 14.9619C40.5834 14.9992 39.4441 14.5791 38.5779 13.7905V20.023L36.205 20.2633V4.56951H38.5779V5.6433C39.4463 4.85601 40.5821 4.42909 41.7541 4.44937ZM31.4369 4.44464C32.7063 4.48447 33.8649 5.17739 34.5006 6.27683L32.5708 7.16289C32.326 6.75863 31.8942 6.50466 31.4219 6.48708C30.9338 6.48708 30.4382 6.71986 30.4382 7.29054C30.4382 7.86122 31.1366 8.16158 32.4056 8.61212C34.1702 9.24287 35.0112 10.1139 35.0112 11.6608C35.0112 13.2076 33.5845 15.0098 31.1966 15.0098C29.262 15.1237 27.5835 13.6874 27.3971 11.7584H29.7024C29.8304 12.477 30.4754 12.9865 31.2041 12.9448C31.5637 12.9765 31.9201 12.8553 32.1858 12.611C32.4516 12.3667 32.6022 12.0218 32.6008 11.6608C32.6008 11.1877 32.4356 10.6696 30.9413 10.2791C29.3344 9.85861 28.1855 8.99508 28.1855 7.27552C28.2294 6.46445 28.5998 5.70571 29.2124 5.17234C29.825 4.63897 30.6275 4.37645 31.4369 4.44464ZM20.9839 12.8179C19.2753 12.8179 17.8903 11.4328 17.8903 9.72417C17.8903 8.01557 19.2753 6.63048 20.9839 6.63048C22.6925 6.63048 24.0776 8.01557 24.0776 9.72417C24.0776 11.4328 22.6925 12.8179 20.9839 12.8179ZM20.9017 4.44417C19.4739 4.37991 18.0828 4.90745 17.0567 5.90234C16.0305 6.89722 15.4602 8.27133 15.4803 9.70044C15.4602 11.1296 16.0305 12.5037 17.0567 13.4986C18.0828 14.4934 19.4739 15.021 20.9017 14.9567C22.047 15.0024 23.1614 14.5794 23.9879 13.7853V14.8591H26.3908V4.56431H23.9879V5.63809C23.1623 4.84027 22.0494 4.40974 20.9017 4.44417ZM8.33918 0.270393C5.6446 0.18446 3.11709 1.57295 1.74438 3.89326C0.371665 6.21357 0.371665 9.09735 1.74438 11.4177C3.11709 13.738 5.6446 15.1265 8.33918 15.0405C10.9572 15.0751 13.4042 13.7435 14.7969 11.5263L12.5442 10.3249C11.6905 11.8376 10.0678 12.7516 8.33168 12.6977C6.99688 12.7145 5.71245 12.1888 4.77243 11.241C2.83151 9.24463 2.83151 6.06629 4.77243 4.06993C5.71047 3.11919 6.99622 2.59295 8.33168 2.61319C9.38347 2.58629 10.4141 2.91134 11.2602 3.53679C11.9581 4.11488 12.832 4.43799 13.7381 4.45289C15.2722 4.46831 16.6112 3.41644 16.9595 1.92237L14.6317 1.4493C14.5552 1.88312 14.1786 2.1996 13.7381 2.2002C13.4228 2.2002 13.2275 2.08005 12.7244 1.71211C11.4826 0.721789 9.92643 0.210187 8.33918 0.270393Z"/>
</svg>